<svg xmlns="http://www.w3.org/2000/svg" width="104.993" height="50" viewBox="0 0 104.993 50">
  <g id="W3C__Icon" data-name="W3C®_Icon" transform="translate(-5.006 -23.881)">
    <path id="Trazado_10" data-name="Trazado 10" d="M29.863,24.409l8.9,30.263,8.9-30.263H71.8v3.008L62.709,43.071a12.667,12.667,0,0,1,7.242,5.587,17.993,17.993,0,0,1,2.457,9.514,17.9,17.9,0,0,1-3.593,11.356,11.265,11.265,0,0,1-9.3,4.6A11.148,11.148,0,0,1,52.029,71.4,16.073,16.073,0,0,1,47.3,64l5.032-2.087a11.462,11.462,0,0,0,2.917,4.449,6.175,6.175,0,0,0,4.266,1.628q2.576,0,4.358-2.884a12.948,12.948,0,0,0,1.781-6.938q0-4.482-1.9-6.937-2.214-2.884-6.938-2.885H54.362V45.4l8.593-14.856H52.584l-.59,1L39.377,74.123h-.614L29.555,43.31,20.349,74.123h-.613L5.006,24.407h6.445l8.9,30.263,6.017-20.378-2.946-9.884h6.443v0Z" transform="translate(0 -0.249)" fill="#005a9c"/>
    <path id="Trazado_11" data-name="Trazado 11" d="M191.781,24.412a4.481,4.481,0,0,0-3.263,1.331,4.8,4.8,0,0,0-1.422,3.366,4.748,4.748,0,0,0,4.686,4.7,4.793,4.793,0,0,0,3.34-1.4,4.513,4.513,0,0,0,1.371-3.3,4.7,4.7,0,0,0-1.357-3.3,4.6,4.6,0,0,0-3.35-1.4Zm4.084,4.738a3.9,3.9,0,0,1-1.186,2.831,4.127,4.127,0,0,1-2.924,1.2,4.007,4.007,0,0,1-2.844-1.213,4.061,4.061,0,0,1-1.2-2.858,4.179,4.179,0,0,1,1.24-2.922,3.923,3.923,0,0,1,2.843-1.161,4.061,4.061,0,0,1,4.076,4.121Zm-3.953-2.794H189.9v5.325h1v-2.27h.993l1.083,2.27h1.122l-1.189-2.426a1.392,1.392,0,0,0,1.214-1.435c.005-.966-.73-1.464-2.216-1.464Zm-.184.653c.939,0,1.37.261,1.37.914,0,.625-.43.849-1.346.849H190.9V27.009h.824Z" transform="translate(-86.493 -0.252)" fill="#fff"/>
    <path id="Trazado_12" data-name="Trazado 12" d="M161.1,23.881l1.044,6.347-3.7,7.071a13.586,13.586,0,0,0-3.775-4.659c-1.985-1.4-3.279-1.7-5.3-1.286-2.6.536-5.545,3.642-6.83,7.473a25.562,25.562,0,0,0-1.608,8.837,20.086,20.086,0,0,0,.428,5.2,23.164,23.164,0,0,1-2.223-10.23,25.671,25.671,0,0,1,2.7-12.159c1.767-3.415,4.393-5.464,6.724-5.705a7.636,7.636,0,0,1,5.786,2.169,18.418,18.418,0,0,1,3.106,4.205l3.633-7.258Z" transform="translate(-63.712 0)" fill="#fff"/>
    <path id="Trazado_13" data-name="Trazado 13" d="M159.5,91.443a31.482,31.482,0,0,1-2.651,4.045,16.234,16.234,0,0,1-5.088,4.1,9.486,9.486,0,0,1-5.651.964,11.1,11.1,0,0,1-5.007-2.035,19.5,19.5,0,0,1-3.617-3.589c-1.046-1.474-2.679-4.418-2.679-4.418s.909,2.952,1.481,4.205a27.194,27.194,0,0,0,2.765,4.847c1.334,1.79,3.924,4.874,7.861,5.57a10.011,10.011,0,0,0,7.311-1.5,20.143,20.143,0,0,0,2.974-2.567,22.482,22.482,0,0,0,2.3-3.031c.358-.558.939-1.688.939-1.688l-.94-4.9Z" transform="translate(-61.656 -31.648)" fill="#fff"/>
  </g>
</svg>
