<svg xmlns="http://www.w3.org/2000/svg" width="50.012" height="50" viewBox="0 0 50.012 50">
  <path id="plain" d="M49.927,23.657,28.1,1.826a3.221,3.221,0,0,0-4.554,0L19.01,6.36l5.75,5.751A3.824,3.824,0,0,1,29.6,16.986l5.542,5.543a3.826,3.826,0,1,1-2.295,2.16l-5.168-5.169v13.6a3.815,3.815,0,1,1-4.528.724,4.088,4.088,0,0,1,1.131-.836V19.282a4.048,4.048,0,0,1-1.131-.836,3.811,3.811,0,0,1-.764-4.189L16.751,8.587,1.8,23.556A3.221,3.221,0,0,0,1.8,28.111L23.64,49.941a3.224,3.224,0,0,0,4.556,0l21.73-21.729A3.222,3.222,0,0,0,49.927,23.657Z" transform="translate(-0.858 -0.883)" fill="#f34f29"/>
</svg>
