<svg xmlns="http://www.w3.org/2000/svg" width="50.007" height="50" viewBox="0 0 50.007 50">
  <path id="illustrator-plain" d="M19.622,27.984h6.1c-1.05-3.571-2.084-6.873-3.1-10.229C21.633,21.123,20.632,24.413,19.622,27.984ZM49.843,1H1.733C.865,1,.99,1.189.99,2.026V50.2c0,.836-.124.8.682.8H49.9c.806,0,1.085.034,1.085-.8V2.087C50.989,1.189,50.711,1,49.843,1ZM31.266,38.7c-.65,0-1.3-.053-1.948-.006-.466.035-.622-.161-.746-.566-.6-1.957-1.239-3.913-1.84-5.869a.627.627,0,0,0-.721-.532q-3.287.038-6.577,0a.681.681,0,0,0-.806.575c-.558,1.946-1.168,3.876-1.732,5.82a.644.644,0,0,1-.756.557c-1.317-.033-2.635-.013-4.077-.013.381-1.208.726-2.326,1.083-3.438q3.282-10.238,6.556-20.48a.729.729,0,0,1,.85-.611c1.542.034,3.085.009,4.628,0,.288,0,.485.015.591.343,2.581,7.983,5.172,16.014,7.76,24,.011.036,0,.227.01.227H31.266Zm8.215,0H34.72V20.841h4.762Zm-2.52-20.266a2.378,2.378,0,0,1-2.506-2.409A2.421,2.421,0,0,1,37,13.578a2.43,2.43,0,1,1-.037,4.854Z" transform="translate(-0.983 -1)" fill="#faa625" fill-rule="evenodd"/>
</svg>
