<svg xmlns="http://www.w3.org/2000/svg" width="50.098" height="50" viewBox="0 0 50.098 50">
  <path id="photoshop-plain" d="M20.58,17.149A11.085,11.085,0,0,0,16.1,17.14c0,2.706-.006,5.339.015,7.972a.531.531,0,0,0,.334.387,8.4,8.4,0,0,0,4.943-.523,4.166,4.166,0,0,0,2.248-4.41A3.753,3.753,0,0,0,20.58,17.149ZM51.1,26.034V1.909c0-.833.009-.909-.8-.909H1.986C1.2,1,1,1.076,1,1.869V50.182c0,.8.1.8.878.8,16.125,0,32.3,0,48.423.015.625,0,.793-.166.792-.779-.021-8.062.006-16.125.006-24.187Zm-28.09,2.322a16.431,16.431,0,0,1-6.9.647v8.974H11.735V37.42c0-7.513-.035-15.025-.056-22.537,0-.624.1-.925.8-1,3.313-.339,6.607-.72,9.9.053,3.541.83,5.583,3.171,5.738,6.405.192,4.005-1.568,6.749-5.11,8.012Zm17.618,5.071a4.911,4.911,0,0,1-3.584,4.53A11.83,11.83,0,0,1,28.6,37.6c-.454-.181-.542-.41-.392-.873.273-.845.473-1.714.684-2.5a32.643,32.643,0,0,0,3.445.977,7.86,7.86,0,0,0,2.528-.071,1.612,1.612,0,0,0,1.4-1.42,1.8,1.8,0,0,0-.837-1.946c-.569-.343-1.2-.588-1.8-.876a25.1,25.1,0,0,1-2.891-1.4c-3.511-2.277-2.368-6.514-.025-8.11A7.621,7.621,0,0,1,34.843,20.1a10.522,10.522,0,0,1,5.081,1.043l-.873,3.1a13.993,13.993,0,0,0-2.016-.689,9.446,9.446,0,0,0-2.467-.168,1.751,1.751,0,0,0-1.731,1.777,1.4,1.4,0,0,0,.672,1.29c.662.385,1.365.7,2.062,1.025.754.349,1.55.617,2.275,1.015a4.9,4.9,0,0,1,2.78,4.939Z" transform="translate(-1 -1)" fill="#80b5e2" fill-rule="evenodd"/>
</svg>
