<svg xmlns="http://www.w3.org/2000/svg" xmlns:xlink="http://www.w3.org/1999/xlink" width="50.709" height="50" viewBox="0 0 50.709 50">
  <defs>
    <linearGradient id="linear-gradient" x1="0.119" y1="0.92" x2="0.629" y2="0.366" gradientUnits="objectBoundingBox">
      <stop offset="0" stop-color="#e01d84"/>
      <stop offset="0.401" stop-color="#df1d85"/>
      <stop offset="0.77" stop-color="#932c87"/>
      <stop offset="1" stop-color="#5d2f88"/>
    </linearGradient>
    <radialGradient id="radial-gradient" cx="0.776" cy="0.333" r="0.773" gradientTransform="matrix(0.734, 0.002, -0.001, 0.836, 0.207, 0.053)" gradientUnits="objectBoundingBox">
      <stop offset="0" stop-color="#e01d84"/>
      <stop offset="0.139" stop-color="#de1e85"/>
      <stop offset="0.285" stop-color="#d62085"/>
      <stop offset="0.434" stop-color="#c92386"/>
      <stop offset="0.586" stop-color="#b72786"/>
      <stop offset="0.739" stop-color="#9d2b87"/>
      <stop offset="0.891" stop-color="#7c2e88"/>
      <stop offset="1" stop-color="#5d2f88"/>
    </radialGradient>
    <linearGradient id="linear-gradient-2" x1="-0.001" y1="0.5" x2="0.999" y2="0.5" gradientUnits="objectBoundingBox">
      <stop offset="0" stop-color="#e01d84"/>
      <stop offset="0.238" stop-color="#da1e85"/>
      <stop offset="0.658" stop-color="#c72085"/>
      <stop offset="0.999" stop-color="#b52284"/>
    </linearGradient>
  </defs>
  <g id="rxjs-1" transform="translate(-14.986 -16.719)">
    <path id="Trazado_37" data-name="Trazado 37" d="M17.966,49.061a21.7,21.7,0,0,1-.755-10.381,36.054,36.054,0,0,1,1.122-4.364A23.619,23.619,0,0,1,30.672,20.855,20.177,20.177,0,0,1,38.892,19a10.757,10.757,0,0,0-1.1-.938C35.465,16.511,32,16,29.9,18.184c-.632.653-1.163,1.366-1.754,2.019A6.3,6.3,0,0,1,25.716,21.9a12.687,12.687,0,0,1-2.468.388,5.31,5.31,0,0,0-2.427,1,3.216,3.216,0,0,0-1.142,2.366c-.082.734-.061,1.489-.1,2.223-.1,2.162-.8,2.774-2.345,3.977a6.3,6.3,0,0,0-1.611,1.836c-1.224,2.162.734,4.405.836,6.588a3.269,3.269,0,0,1-.184,1.326,4.951,4.951,0,0,1-.755,1.163,2.386,2.386,0,0,0-.51,1.754,5.637,5.637,0,0,0,.734,1.774,16.758,16.758,0,0,0,2.1,2.692c.041,0,.082.041.122.082" transform="translate(0)" fill="#e32286"/>
    <path id="Trazado_38" data-name="Trazado 38" d="M63.516,65.029a14.543,14.543,0,0,0,6.553-5.453A15.719,15.719,0,0,0,72.906,47.55c-2.737,5.953-5.235,7.591-5.235,7.591,6.733-10.248.04-16.44.04-16.44,2.737,5.833-.9,12.945-.9,12.945-3.057,6.432-7.392,8.73-7.392,8.73a10.513,10.513,0,0,0,8.391-2.357c-6.933,7.491-14.445,7.132-14.445,7.132a10.563,10.563,0,0,0,7.892,3.236c-6.194,1.458-12.008-.6-16.783-4.575a26.321,26.321,0,0,1-2.557-2.4s-.719-.759-.859-.959l-.02-.02c-.1,3.7,3.756,7.131,3.756,7.131a14.372,14.372,0,0,1-7.952-18.218c2.358-6.332,9.49-7.691,9.49-7.691a46.814,46.814,0,0,0,10.889,3.756c10.529,1.758,9.93-3.4,9.93-3.4.1-4.435-6.593-9.149-6.593-9.149-11.928-8.849-22.717-3.136-22.717-3.136A23.135,23.135,0,0,0,25.754,42.916a35.309,35.309,0,0,0-1.1,4.275,22.418,22.418,0,0,0,3.856,16.54A28.6,28.6,0,0,0,42.137,74.159c12.487,4.235,21.019-2,21.019-2,7.852-5.394,9.43-11.626,9.43-11.626-6.334,4.954-9.071,4.495-9.071,4.495Zm-9.75-29.145a1.079,1.079,0,1,1-1.079,1.079A1.074,1.074,0,0,1,53.766,35.884Z" transform="translate(-7.45 -8.914)" fill="url(#linear-gradient)"/>
    <path id="Trazado_39" data-name="Trazado 39" d="M66.979,42.278c.1-4.528-6.574-9.341-6.574-9.341-11.893-9.015-22.651-3.182-22.651-3.182A23.5,23.5,0,0,0,25.7,43.216a38.561,38.561,0,0,0-1.016,3.977,23.324,23.324,0,0,0-.319,5.813,22.616,22.616,0,0,0,.817,4.466,23.466,23.466,0,0,0,.877,2.509c-.02-.061-.12-.51-.12-.51a23.538,23.538,0,0,1-.06-8.076,16.65,16.65,0,0,1,3.426-7.3,11.437,11.437,0,0,1,12.77-3.957s1.793.653,2.41.979c.618.306,1.693.775,1.693.775a45.911,45.911,0,0,0,10.857,3.834C67.577,47.54,66.979,42.278,66.979,42.278ZM53.652,38.26a1.1,1.1,0,1,1,1.076-1.1A1.084,1.084,0,0,1,53.652,38.26Z" transform="translate(-7.422 -8.9)" fill="url(#radial-gradient)"/>
    <path id="Trazado_40" data-name="Trazado 40" d="M94.326,49.585l-6.955-2.162a1.054,1.054,0,0,0-.612,0s-4.1,1.04-3.386,3.284a8.683,8.683,0,0,0,1.591,2.774l7.648-.367Z" transform="translate(-54.721 -24.406)" fill="url(#linear-gradient-2)"/>
  </g>
</svg>
