<svg xmlns="http://www.w3.org/2000/svg" width="66.849" height="50" viewBox="0 0 66.849 50">
  <path id="original" d="M1.219,37.849a2.945,2.945,0,0,0,.172.862,10.581,10.581,0,0,0,2.294,4.125A27.189,27.189,0,0,0,8.772,47.3c1.592,1.144,3.215,2.262,4.812,3.4.274.195.534.419.831.658-.256.138-.469.26-.691.373a36.952,36.952,0,0,0-6.006,3.72,12.284,12.284,0,0,0-2.986,3.021,6.5,6.5,0,0,0-.753,6.262,3.7,3.7,0,0,0,1.26,1.626,1.857,1.857,0,0,0,.619.319c.563.133,1.137.22,1.708.325H9.18a10.044,10.044,0,0,0,4.881-1.785,10.707,10.707,0,0,0,4.508-6.436,11.36,11.36,0,0,0-.067-5.939c-.053-.183-.119-.363-.189-.54s-.15-.35-.247-.571l3.661-2.105.054.047c-.066.218-.137.435-.2.655a14.816,14.816,0,0,0-.62,4.855,9.323,9.323,0,0,0,1.629,4.87,2.361,2.361,0,0,0,3.7.04,8.544,8.544,0,0,0,.846-1.338c.6-1.233,1.15-2.487,1.72-3.733.024-.054.047-.108.1-.228-.041.591-.089,1.108-.111,1.627a6.189,6.189,0,0,0,.29,2.385,1.647,1.647,0,0,0,1.4,1.239,1.753,1.753,0,0,0,1.307-.477,5.529,5.529,0,0,0,1.433-1.7c1.012-1.859,2.052-3.707,2.969-5.612.993-2.061,1.86-4.183,2.782-6.279.051-.115.1-.233.152-.372.218.856.37,1.694.649,2.487a23.557,23.557,0,0,0,1.164,2.693.806.806,0,0,1-.1,1.027c-1.2,1.448-2.382,2.914-3.563,4.378a9.737,9.737,0,0,0-.74,1.005,1.981,1.981,0,0,0-.256.726.925.925,0,0,0,.736,1.049,5.125,5.125,0,0,0,1.442.1,8.441,8.441,0,0,0,4.47-1.681,4.686,4.686,0,0,0,1.85-5.059,11.753,11.753,0,0,0-.5-1.637.6.6,0,0,1,.065-.638,51.993,51.993,0,0,0,3.632-6.161,1.318,1.318,0,0,1,.163-.257,16,16,0,0,0,1.836,5.214c-.486.468-.966.892-1.4,1.36a9.372,9.372,0,0,0-2.221,3.511,4.15,4.15,0,0,0-.247,1.814,1.528,1.528,0,0,0,1.887,1.387,8.573,8.573,0,0,0,5.118-3.155,4.148,4.148,0,0,0,.586-3.787c-.1-.366-.219-.727-.347-1.147.506-.157,1-.346,1.511-.462a13.389,13.389,0,0,1,7.828.458,5.909,5.909,0,0,1,3.412,2.966,3.422,3.422,0,0,1-1.306,4.644,2.9,2.9,0,0,0-.47.322.459.459,0,0,0-.109.357c.011.065.184.148.284.147a2.6,2.6,0,0,0,1.444-.6,4.444,4.444,0,0,0,2.051-3.1.217.217,0,0,1,.034-.1c0-.3-.041-.573-.041-.868-.017-.05.012-.1.008-.137a6.805,6.805,0,0,0-2.776-4.626,10.121,10.121,0,0,0-5.99-2.017,13.531,13.531,0,0,0-5.2.8c-.478.174-.952.378-1.432.572-.064-.117-.134-.228-.191-.345a9.732,9.732,0,0,1-1.223-3.132,7.024,7.024,0,0,1-.014-2.456c.188-.782.433-1.551.664-2.323a.567.567,0,0,0-.344-.8A1.52,1.52,0,0,0,51.114,38a6.454,6.454,0,0,0-2.753.2.789.789,0,0,0-.622.626c-.04.2-.123.4-.181.6a14.959,14.959,0,0,1-.784,2.473c-.955,1.989-2.045,3.9-3.162,5.8-.121.2-.248.406-.4.655a8.583,8.583,0,0,1-.937-2.418,7.432,7.432,0,0,1-.013-2.917c.181-.722.416-1.431.634-2.144a.5.5,0,0,0-.251-.695,1.48,1.48,0,0,0-.505-.2,6.2,6.2,0,0,0-2.85.233.771.771,0,0,0-.529.579,22.522,22.522,0,0,1-.846,2.617c-1.478,3.387-3,6.755-4.515,10.123-.316.7-.688,1.382-1.045,2.067a4.763,4.763,0,0,1-.335.489.4.4,0,0,1-.125-.253,6.962,6.962,0,0,1,.034-1.3c.25-1.266.537-2.526.84-3.779.25-1.037.541-2.063.819-3.092a.97.97,0,0,0-.153-.956,1.431,1.431,0,0,0-1.8-.218c-.056.04-.121.069-.228.129.02-.165.03-.266.044-.367a5.735,5.735,0,0,0-.086-2.349A1.868,1.868,0,0,0,29.4,42.421a4.216,4.216,0,0,0-1.391.265,10.515,10.515,0,0,0-4.412,3.5,1.373,1.373,0,0,1-.4.348c-1.54.854-3.086,1.7-4.63,2.545l-1.72.941c-.461-.44-.88-.9-1.356-1.283-1.452-1.184-2.927-2.339-4.39-3.51a17.288,17.288,0,0,1-3.512-3.493,6.252,6.252,0,0,1-1.219-3.4,7.993,7.993,0,0,1,1.221-4.453A17.063,17.063,0,0,1,11.64,29.44a37.544,37.544,0,0,1,5.329-3.535A40.211,40.211,0,0,1,25.141,22.3a22.591,22.591,0,0,1,9.034-1.028,9.3,9.3,0,0,1,3.475,1.009,3.585,3.585,0,0,1,1.825,1.979,4.946,4.946,0,0,1,.087,2.77,10.576,10.576,0,0,1-2.767,4.819,18.682,18.682,0,0,1-7.641,4.841,21.016,21.016,0,0,1-5.2,1.109,9.792,9.792,0,0,1-4.252-.513,5.532,5.532,0,0,1-2.343-1.59c-.114-.133-.26-.277-.472-.152a.4.4,0,0,0-.175.521,5.06,5.06,0,0,0,.406.979A5.573,5.573,0,0,0,18.973,38.8a9.075,9.075,0,0,0,4.611,1.266,23.211,23.211,0,0,0,7.27-.926,17.84,17.84,0,0,0,8.724-5.263A13.405,13.405,0,0,0,43.263,26.2a7.432,7.432,0,0,0-.694-4.23A7.646,7.646,0,0,0,39.233,18.7,14.11,14.11,0,0,0,32.67,17H30.376a23.752,23.752,0,0,0-8.063,1.743,55.389,55.389,0,0,0-5.787,2.5,37.4,37.4,0,0,0-11.03,7.9,16.465,16.465,0,0,0-3.638,5.745c-.222.642-.433,1.331-.592,1.995M16.089,56.061a8.465,8.465,0,0,1-3.012,5.858,6.854,6.854,0,0,1-3.446,1.72,2.524,2.524,0,0,1-1.434-.1,1.463,1.463,0,0,1-.824-1.5,5.417,5.417,0,0,1,.81-2.761,9.879,9.879,0,0,1,2.524-2.772,38.612,38.612,0,0,1,4.935-3.325,1.162,1.162,0,0,1,.129-.053A8.661,8.661,0,0,1,16.089,56.061Zm13.4-10.319a17.914,17.914,0,0,1-.5,2.252,66.3,66.3,0,0,1-2.812,7.44,12.835,12.835,0,0,1-.731,1.287.9.9,0,0,1-.151.178c-.307.3-.6.288-.755-.11a8.384,8.384,0,0,1-.388-1.446,7.657,7.657,0,0,1-.069-1.01,12.66,12.66,0,0,1,1.989-6.592,6.174,6.174,0,0,1,1.916-2.159,3.338,3.338,0,0,1,.849-.376C29.282,45.08,29.56,45.289,29.485,45.743Zm9.139,11.644,3.285-3.835C42.046,54.976,39.624,57.819,38.624,57.387Zm10.491-2.58c-.232.133-.485.228-.724.352-.218.112-.289,0-.3-.188a1.27,1.27,0,0,1,.05-.384A8.257,8.257,0,0,1,50.62,50.6a.478.478,0,0,1,.085-.044A3.519,3.519,0,0,1,49.115,54.806Z" transform="translate(-1.219 -17)" fill="#cb6699" fill-rule="evenodd"/>
</svg>
