<svg id="svg-2" xmlns="http://www.w3.org/2000/svg" width="49.997" height="50" viewBox="0 0 49.997 50">
  <path id="Trazado_8" data-name="Trazado 8" d="M47.942,30.2a7.025,7.025,0,0,0-4.968-11.993,7.138,7.138,0,0,0-1.312.121A7.023,7.023,0,1,0,31.9,8.581a7.023,7.023,0,1,0-13.794,0,7.023,7.023,0,1,0-9.765,9.746,7.133,7.133,0,0,0-1.312-.121,7.026,7.026,0,0,0,0,14.051,7.121,7.121,0,0,0,1.312-.121A7.023,7.023,0,1,0,18.1,41.883a7.023,7.023,0,1,0,13.794,0,7.023,7.023,0,1,0,9.765-9.746,7.123,7.123,0,0,0,1.312.121A6.98,6.98,0,0,0,47.942,30.2" transform="translate(0 -0.232)"/>
  <path id="Trazado_9" data-name="Trazado 9" d="M55.056,33.33a3.739,3.739,0,0,0-5.287,0H42.117l5.411-5.41a3.739,3.739,0,1,0-3.739-3.739l-5.411,5.411V21.94a3.739,3.739,0,1,0-5.287,0v7.652L27.68,24.181a3.739,3.739,0,1,0-3.739,3.739l5.411,5.41H21.7a3.739,3.739,0,1,0,0,5.287h7.652l-5.41,5.41a3.739,3.739,0,1,0,3.739,3.739l5.411-5.411v7.652a3.739,3.739,0,1,0,5.288,0V42.355l5.411,5.411a3.739,3.739,0,1,0,3.739-3.739l-5.411-5.411h7.652a3.739,3.739,0,1,0,5.287-5.287" transform="translate(-10.736 -10.973)" fill="#ffb13b"/>
</svg>
