<svg xmlns="http://www.w3.org/2000/svg" width="50" height="50" viewBox="0 0 50 50">
  <g id="original" transform="translate(-1.5 -1.408)">
    <rect id="Rectángulo_13" data-name="Rectángulo 13" width="39.609" height="29.276" transform="translate(10.236 19.85)" fill="#fff"/>
    <path id="original-2" data-name="original" d="M1.5,26.408v25h50v-50H1.5Zm40.294-1.992a6.222,6.222,0,0,1,3.127,1.8,8.255,8.255,0,0,1,1.2,1.6c.016.064-2.159,1.524-3.476,2.342-.048.032-.238-.175-.452-.492a2.833,2.833,0,0,0-2.349-1.412c-1.516-.1-2.492.69-2.484,2.016a1.834,1.834,0,0,0,.214.937c.333.69.952,1.1,2.9,1.944,3.579,1.54,5.111,2.556,6.063,4a7.256,7.256,0,0,1,.58,6.1c-.794,2.079-2.762,3.492-5.532,3.96a15.32,15.32,0,0,1-3.809-.04,9.187,9.187,0,0,1-5.088-2.651,8.837,8.837,0,0,1-1.3-1.928,3.776,3.776,0,0,1,.46-.294c.222-.127,1.064-.611,1.857-1.072l1.436-.833.3.444a6.714,6.714,0,0,0,1.9,1.818,4.644,4.644,0,0,0,4.865-.246,2.173,2.173,0,0,0,.278-2.77c-.389-.556-1.182-1.024-3.436-2-2.579-1.111-3.69-1.8-4.706-2.9a6.591,6.591,0,0,1-1.373-2.5,10.013,10.013,0,0,1-.087-3.19A6.093,6.093,0,0,1,38,24.3,12.657,12.657,0,0,1,41.794,24.416ZM30.056,26.5l.016,2.048H23.564V47.043h-4.6V28.551H12.452V26.543a19.591,19.591,0,0,1,.056-2.064c.024-.032,3.984-.048,8.786-.04l8.738.024Z" transform="translate(0 0)" fill="#007acc"/>
  </g>
</svg>
