<svg xmlns="http://www.w3.org/2000/svg" width="50.119" height="50" viewBox="0 0 50.119 50">
  <path id="xd-plain" d="M51.119,1.915c0-.835,0-.915-.8-.915H1.994C1.2,1,1,1.08,1,1.875V50.2c0,.8.119.8.875.8H50.324c.636,0,.8-.159.8-.8-.04-8.035,0-16.11,0-24.145ZM23.951,37.993l-3.858-8.671-4.057,8.671H11.581l5.768-11.655-5.37-12.331,4.574.04,3.381,8.075,4.137-8.115h4.3L22.559,25.7l5.768,12.291H23.951ZM41.294,14.445V36.959c0,.6-.08.955-.676.994-2.784.358-5.569.756-8.313-.04a6.442,6.442,0,0,1-4.813-6.4c-.159-3.978,1.352-6.722,4.3-8a11.353,11.353,0,0,1,5.807-.636V14.047h3.7v.4ZM33.538,34.89a8.951,8.951,0,0,0,3.978,0V26.935a.575.575,0,0,0-.278-.4,6.678,6.678,0,0,0-4.375.517,4.433,4.433,0,0,0-2.029,4.415,3.544,3.544,0,0,0,2.7,3.421Z" transform="translate(-1 -1)" fill="#dd80bc"/>
</svg>
