<svg width="229" height="229" viewBox="0 0 229 229" fill="none" xmlns="http://www.w3.org/2000/svg">
<path d="M30.5832 228.106C28.7606 227.628 26.5786 226.883 25.7345 226.45C24.8904 226.017 23.3683 225.092 22.3524 224.394C21.3365 223.696 19.6967 222.336 18.708 221.372C17.7193 220.407 16.1216 218.398 15.1578 216.906C14.1936 215.415 12.927 212.804 12.3437 211.105C11.5005 208.65 11.2826 207.021 11.2826 203.167C11.2826 199.314 11.5005 197.685 12.3437 195.23C12.927 193.531 14.1936 190.92 15.1578 189.429C16.1216 187.937 17.7193 185.92 18.708 184.947C19.6967 183.974 21.7124 182.39 23.1882 181.427C24.6636 180.463 27.2611 179.201 28.9605 178.62C31.3539 177.802 33.0898 177.562 36.6677 177.553C40.1744 177.543 42.0677 177.787 44.5374 178.563C46.3254 179.126 49.0268 180.388 50.5405 181.367C52.0538 182.345 54.2168 184.098 55.3477 185.261C56.4786 186.425 58.1803 188.66 59.1292 190.23C60.0782 191.799 61.2285 194.533 61.6847 196.305L62.515 199.527L93.2295 199.345C122.519 199.172 124.159 199.118 128.562 198.173C131.102 197.628 135.154 196.533 137.567 195.738C139.98 194.944 144.032 193.296 146.572 192.076C149.112 190.856 152.993 188.645 155.198 187.162C157.403 185.68 160.982 182.94 163.152 181.074C165.323 179.208 168.534 175.987 170.289 173.917C172.044 171.846 174.665 168.387 176.114 166.228C177.563 164.069 179.744 160.225 180.962 157.686C182.179 155.146 183.826 151.083 184.622 148.657C185.419 146.23 186.485 142.178 186.991 139.653C187.497 137.126 188.039 132.151 188.194 128.596C188.367 124.645 188.267 120.426 187.937 117.745C187.64 115.332 187.091 111.875 186.717 110.063C186.344 108.25 185.607 105.452 185.079 103.845C184.552 102.238 183.709 99.8249 183.207 98.4831L182.293 96.0428H167.266L166.154 92.7514C165.43 90.6048 164.717 89.3105 164.105 89.0293C163.397 88.7043 162.435 88.9448 160.18 90.0115C158.537 90.7886 156.983 91.4249 156.727 91.4249C156.471 91.4253 152.032 87.193 146.864 82.0205C138.512 73.662 137.504 72.4929 137.807 71.5158C137.995 70.911 138.66 69.3978 139.286 68.1539C140.152 66.432 140.317 65.6586 139.979 64.9161C139.675 64.2485 138.496 63.6071 136.242 62.8808L132.949 61.8206V57.9535C132.949 54.67 132.827 54.0499 132.141 53.8458C131.697 53.7133 129.463 53.2382 127.177 52.7893C124.122 52.19 120.757 51.973 114.478 51.9702C107.426 51.9674 105.022 52.1503 100.704 53.0161C97.827 53.5932 93.5671 54.6991 91.2379 55.473C88.9082 56.2469 84.9239 57.8815 82.3841 59.1046C79.8443 60.3278 76 62.5141 73.8411 63.9631C71.6823 65.412 68.2222 68.0334 66.1515 69.788C64.0809 71.5431 60.86 74.7541 58.9939 76.9243C57.1278 79.094 54.3876 82.673 52.9048 84.8778C51.4221 87.0822 49.2074 90.9636 47.9836 93.5032C46.7594 96.0428 45.128 100.018 44.3573 102.336C43.587 104.655 42.4917 108.811 41.9237 111.571C40.9936 116.092 40.8736 118.241 40.7115 133.213L40.5319 149.836L44.7207 145.688L48.9095 141.539L54.2089 146.838L45.5537 155.492L36.8986 164.147L28.2434 155.492L19.5882 146.838L24.8876 141.539L28.9988 145.631L33.1096 149.722L33.347 132.695C33.5206 120.234 33.77 114.738 34.2761 112.204C34.6566 110.299 35.4199 106.975 35.9717 104.816C36.524 102.657 37.6924 99.0353 38.5679 96.7672C39.4434 94.4987 41.3044 90.4469 42.7036 87.7632C44.1024 85.0791 46.6408 80.9091 48.3443 78.4965C50.0478 76.0839 54.0394 71.5098 57.2151 68.3321C60.3908 65.1539 64.9084 61.206 67.2533 59.559C69.5987 57.9115 73.547 55.4762 76.0272 54.1469L80.537 51.7301L48.4246 51.7227C20.9278 51.7163 15.9175 51.6124 13.5647 50.9996C12.0533 50.6062 9.82471 49.6472 8.61161 48.8691C7.39897 48.0906 5.59802 46.536 4.61027 45.4135C3.62205 44.291 2.35215 42.3927 1.78739 41.195C1.22309 39.9972 0.537809 37.7189 0.264895 36.1315C-0.0934478 34.0481 -0.0888299 32.4112 0.282443 30.2452C0.565054 28.5944 1.27435 26.2571 1.85851 25.0505C2.44266 23.8435 3.72411 21.9846 4.70632 20.9193C5.68807 19.8541 7.46501 18.358 8.65409 17.5948C9.84365 16.8315 12.0533 15.8849 13.5647 15.4915C15.4469 15.0011 18.4633 14.7758 23.1421 14.7758C28.6063 14.7758 29.9718 14.6498 29.9718 14.1451C29.9718 13.7983 30.7088 12.0414 31.6102 10.2401C32.6423 8.17749 34.0517 6.25155 35.4199 5.0344C36.6141 3.97238 38.9419 2.45694 40.5928 1.6669C43.3007 0.371242 44.0234 0.230872 47.9813 0.230872C51.9485 0.230872 52.6633 0.37078 55.453 1.69229C57.1491 2.49573 59.4848 4.02687 60.6429 5.09442C61.8801 6.23447 63.4178 8.37188 64.37 10.2747C65.2612 12.0566 65.9908 13.7983 65.9908 14.1451C65.9908 14.6696 69.8112 14.7758 88.6754 14.7758H111.36L106.222 10.6644L101.083 6.55353L103.245 3.85372C104.435 2.36921 105.465 1.07679 105.536 0.981668C105.607 0.886549 110.557 4.71718 116.536 9.49392C122.516 14.2707 127.408 18.31 127.408 18.4698C127.408 18.6295 122.516 22.6689 116.536 27.4456C110.557 32.2223 105.607 36.053 105.536 35.9579C105.465 35.8627 104.435 34.5703 103.245 33.0858L101.083 30.386L106.222 26.2751L111.36 22.1637H88.6754C70.8358 22.1637 65.9908 22.287 65.9904 22.7409C65.9904 23.0586 65.3947 24.5648 64.6674 26.0885C63.9396 27.6123 62.4716 29.8411 61.4049 31.0421C60.1179 32.4906 58.2805 33.8107 55.9411 34.967C52.6079 36.614 52.1762 36.7087 48.0053 36.7087C44.0109 36.7087 43.303 36.5706 40.5097 35.2472C38.8136 34.4438 36.4779 32.9127 35.3197 31.8451C34.0826 30.7051 32.5449 28.5676 31.5927 26.6648C30.7014 24.8829 29.9718 23.1232 29.9718 22.7547C29.9718 22.1896 28.7855 22.1088 22.43 22.2394C14.9611 22.3932 14.8665 22.408 12.6291 23.7918C11.2308 24.6571 9.8381 26.0502 8.97272 27.4498C7.73607 29.4505 7.57537 30.1163 7.57537 33.2456C7.57537 36.3748 7.73607 37.0406 8.97272 39.0414C9.83903 40.4419 11.2299 41.8331 12.6305 42.6993L14.8905 44.0966L69.4177 44.3644C118.048 44.6031 124.369 44.7162 127.87 45.4121C130.028 45.841 132.055 46.2857 132.372 46.3997C132.815 46.559 132.949 45.1807 132.949 40.4603V34.3136L136.241 33.2022C138.444 32.4583 139.68 31.7708 139.978 31.1211C140.317 30.3832 140.151 29.6107 139.286 27.8889C138.66 26.6449 137.995 25.1318 137.807 24.5269C137.504 23.5499 138.512 22.3807 146.864 14.0222C152.032 8.84979 156.528 4.61744 156.855 4.61744C157.183 4.61744 158.723 5.25973 160.278 6.04469C162.473 7.15288 163.323 7.37267 164.074 7.02728C164.722 6.72992 165.411 5.49245 166.154 3.29131L167.266 0H194.684L195.795 3.29131C196.52 5.43796 197.232 6.73223 197.844 7.01343C198.552 7.3385 199.514 7.09793 201.769 6.0313C203.412 5.25419 204.966 4.6179 205.222 4.6179C205.479 4.61744 209.917 8.84979 215.086 14.0222C223.437 22.3807 224.445 23.5499 224.142 24.5269C223.954 25.1318 223.289 26.6449 222.663 27.8889C221.798 29.6107 221.632 30.3832 221.972 31.1211C222.27 31.7708 223.505 32.4583 225.708 33.2022L229 34.3136V61.7292L225.708 62.8406C223.562 63.5651 222.267 64.2775 221.986 64.8894C221.661 65.5977 221.901 66.559 222.968 68.8142C223.745 70.4571 224.382 72.0108 224.382 72.2671C224.382 72.5234 220.131 76.9801 214.935 82.171L205.488 91.6091L202.043 90.0955C199.443 88.9531 198.391 88.6932 197.752 89.0363C197.277 89.2911 196.418 90.9289 195.795 92.7667L194.684 96.0428H192.447C191.217 96.0428 190.21 96.0949 190.211 96.1582C190.211 96.2215 190.617 97.3426 191.114 98.6488C191.61 99.9556 192.529 103.072 193.156 105.575C193.783 108.078 194.564 111.788 194.892 113.82C195.22 115.852 195.488 121.15 195.488 125.594C195.488 130.039 195.22 135.337 194.892 137.369C194.564 139.401 193.776 143.139 193.14 145.676C192.505 148.213 191.267 152.147 190.39 154.418C189.513 156.688 187.652 160.742 186.252 163.426C184.854 166.11 182.315 170.28 180.612 172.692C178.908 175.105 174.917 179.679 171.741 182.857C168.565 186.035 164.048 189.983 161.703 191.63C159.357 193.277 155.409 195.713 152.929 197.042L148.419 199.459L162.85 199.466L177.28 199.473L177.283 192.663C177.285 188.917 177.516 185.021 177.798 184.006C178.099 182.922 179.101 181.37 180.228 180.244C181.467 179.004 182.875 178.13 184.21 177.771C185.346 177.465 187.163 177.336 188.247 177.485C189.507 177.657 196.593 180.966 207.878 186.652C223.78 194.663 225.682 195.742 226.993 197.489C227.794 198.556 228.592 200.27 228.765 201.298C228.939 202.326 228.939 204.009 228.765 205.037C228.592 206.065 227.794 207.779 226.993 208.846C225.682 210.593 223.78 211.671 207.878 219.683C196.593 225.369 189.507 228.677 188.247 228.85C187.163 228.999 185.346 228.87 184.21 228.564C182.875 228.205 181.467 227.33 180.228 226.091C179.101 224.964 178.099 223.413 177.798 222.328C177.516 221.313 177.285 217.418 177.283 213.672L177.28 206.861H62.5011L61.687 210.021C61.2395 211.759 60.1026 214.483 59.1606 216.076C58.2186 217.668 56.0911 220.247 54.4324 221.805C52.7742 223.364 50.348 225.214 49.0411 225.918C47.7343 226.622 45.0578 227.609 43.0934 228.112C41.1289 228.614 38.2562 229.014 36.7092 229C35.1627 228.986 32.4059 228.583 30.5832 228.106ZM44.4852 219.873C46.1185 219.109 48.4076 217.606 49.5722 216.532C50.891 215.316 52.3401 213.265 53.4142 211.091C55.0438 207.794 55.139 207.358 55.139 203.167C55.139 198.977 55.0438 198.541 53.4142 195.244C52.3401 193.07 50.891 191.018 49.5722 189.803C48.4076 188.729 46.0663 187.193 44.3702 186.39C41.5806 185.068 40.8657 184.928 36.8986 184.928C32.9314 184.928 32.2165 185.068 29.4269 186.39C27.7308 187.193 25.3895 188.729 24.2249 189.803C22.9061 191.018 21.457 193.07 20.3829 195.244C18.7551 198.537 18.6581 198.981 18.6581 203.143C18.6581 207.137 18.7962 207.845 20.1197 210.638C20.9232 212.334 22.4295 214.643 23.4662 215.768C24.5034 216.893 26.5717 218.464 28.0628 219.258C29.5534 220.052 31.5797 220.905 32.5661 221.153C33.552 221.401 35.969 221.527 37.9371 221.433C40.7087 221.301 42.185 220.95 44.4852 219.873ZM32.4858 213.153C31.202 212.556 29.4172 211.208 28.5195 210.16C27.6218 209.111 26.6465 207.449 26.3519 206.465C26.0568 205.481 25.8158 203.997 25.8158 203.167C25.8158 202.338 26.0684 200.803 26.3773 199.758C26.731 198.561 27.7991 196.998 29.2634 195.533C30.7282 194.069 32.2913 193.001 33.4887 192.647C34.5342 192.338 36.0687 192.086 36.8986 192.086C37.7284 192.086 39.2125 192.327 40.1966 192.622C41.1802 192.916 42.8431 193.891 43.8918 194.789C44.94 195.687 46.2875 197.471 46.8851 198.755C47.52 200.118 47.9721 201.954 47.9721 203.167C47.9721 204.393 47.5246 206.192 46.8809 207.554C46.2806 208.824 45.1917 210.422 44.4607 211.105C43.7302 211.789 42.1975 212.771 41.0546 213.288C39.9117 213.806 38.0415 214.232 36.8986 214.234C35.6748 214.238 33.8609 213.794 32.4858 213.153ZM39.4591 205.728C40.174 205.013 40.5928 204.067 40.5928 203.167C40.5928 202.268 40.174 201.321 39.4591 200.607C38.7448 199.892 37.7981 199.473 36.8986 199.473C35.999 199.473 35.0523 199.892 34.338 200.607C33.6231 201.321 33.2043 202.268 33.2043 203.167C33.2043 204.067 33.6231 205.013 34.338 205.728C35.0523 206.443 35.999 206.861 36.8986 206.861C37.7981 206.861 38.7448 206.443 39.4591 205.728ZM204.298 213.21C214.852 207.937 221.256 204.482 221.417 203.975C221.558 203.531 221.558 202.804 221.417 202.359C221.256 201.853 214.852 198.398 204.298 193.124C195.024 188.489 187.14 184.698 186.778 184.698C186.416 184.698 185.794 185.024 185.394 185.423C184.761 186.057 184.669 188.301 184.669 203.049C184.669 218.126 184.751 220.039 185.433 220.793C185.853 221.257 186.476 221.637 186.817 221.637C187.157 221.637 195.024 217.845 204.298 213.21ZM189.536 88.6549L191.365 83.5147L195.12 82.0141L198.875 80.5139L203.795 82.6854L215.642 70.8403L213.47 65.9204L214.97 62.1655L216.471 58.4106L221.611 56.5821V39.4168L216.669 37.8589L215.062 34.007L213.455 30.1551L214.549 27.6788L215.642 25.2025L203.795 13.3573L198.875 15.5289L195.12 14.0287L191.365 12.528L189.536 7.3879H172.369L170.811 12.3304L166.988 13.9248L163.164 15.5192L160.671 14.4267L158.177 13.3342L152.243 19.2681L146.308 25.2025L147.393 27.6622L148.479 30.1223L146.979 33.8772L145.478 37.6321L142.908 38.5464L140.338 39.4606V56.626L145.281 58.1839L146.887 62.0358L148.494 65.8876L146.308 70.8403L158.154 82.6854L163.074 80.5139L166.829 82.0141L170.585 83.5147L172.413 88.6549H189.536ZM175.895 77.1385C174.752 76.9243 172.585 76.3138 171.078 75.7814C169.571 75.249 167.19 74.1358 165.787 73.3074C164.384 72.479 161.876 70.4418 160.214 68.78C158.552 67.1187 156.503 64.5911 155.659 63.1629C154.816 61.7347 153.577 59.0428 152.906 57.1801C151.833 54.2014 151.687 53.0978 151.687 48.0214C151.687 42.945 151.833 41.8414 152.906 38.8627C153.577 37 154.816 34.308 155.659 32.8799C156.503 31.4517 158.552 28.9241 160.214 27.2628C161.876 25.6009 164.404 23.5517 165.832 22.7081C167.26 21.865 169.952 20.6261 171.815 19.9552C174.794 18.8826 175.898 18.7357 180.975 18.7357C186.051 18.7357 187.155 18.8826 190.134 19.9552C191.997 20.6261 194.689 21.865 196.117 22.7081C197.546 23.5517 200.073 25.6009 201.735 27.2628C203.397 28.9241 205.446 31.4517 206.29 32.8799C207.133 34.3076 208.328 36.9691 208.946 38.7943C209.564 40.6192 210.199 43.8154 210.36 45.8964C210.569 48.6207 210.431 50.7614 209.868 53.5425C209.438 55.6669 208.505 58.6701 207.795 60.2165C207.086 61.7629 205.55 64.3145 204.382 65.8863C203.215 67.4585 201.181 69.5968 199.864 70.6381C198.546 71.6793 196.559 73.0641 195.448 73.7156C194.336 74.3666 191.924 75.4088 190.087 76.0308C187.77 76.8153 185.404 77.2179 182.36 77.3444C179.947 77.4451 177.038 77.3523 175.895 77.1385ZM186.266 69.4782C187.759 69.0894 190.184 68.1294 191.655 67.3454C193.126 66.5613 195.457 64.7388 196.834 63.2949C198.212 61.8511 199.884 59.5931 200.551 58.2781C201.217 56.9626 202.073 54.6964 202.451 53.2423C202.83 51.7878 203.14 49.4385 203.14 48.0214C203.14 46.6043 202.83 44.2549 202.451 42.8004C202.073 41.3464 201.217 39.0802 200.551 37.7647C199.884 36.4496 198.212 34.1917 196.834 32.7478C195.457 31.3039 193.126 29.4814 191.655 28.6974C190.184 27.9134 187.759 26.9534 186.266 26.5646C184.773 26.1758 182.392 25.8577 180.975 25.8577C179.557 25.8577 177.208 26.1675 175.753 26.5466C174.299 26.9252 172.033 27.7804 170.717 28.4471C169.402 29.1134 167.144 30.7859 165.7 32.1632C164.256 33.5402 162.433 35.8706 161.649 37.3417C160.865 38.8124 159.905 41.2374 159.516 42.7307C159.127 44.2235 158.809 46.6043 158.809 48.0214C158.809 49.4385 159.119 51.7878 159.498 53.2423C159.877 54.6968 160.732 56.9626 161.399 58.2781C162.065 59.5931 163.738 61.8511 165.115 63.2949C166.492 64.7388 168.829 66.565 170.308 67.3532C171.787 68.1414 174.117 69.0875 175.485 69.4551C176.854 69.8231 179.228 70.138 180.762 70.1546C182.296 70.1712 184.773 69.8669 186.266 69.4782ZM176.495 61.9656C175.175 61.4937 173.29 60.5503 172.307 59.8693C171.324 59.1882 170.094 58.0555 169.574 57.3523C169.054 56.6491 168.142 55.1447 167.546 54.0097C166.658 52.3151 166.464 51.2444 166.465 48.0214C166.466 44.6557 166.644 43.7535 167.717 41.6876C168.405 40.3629 169.703 38.545 170.6 37.6474C171.497 36.7502 173.316 35.4532 174.64 34.7647C176.707 33.6916 177.607 33.5138 180.975 33.5138C184.342 33.5138 185.242 33.6916 187.309 34.7647C188.634 35.4532 190.479 36.777 191.41 37.7074C192.34 38.6378 193.644 40.5601 194.308 41.979C195.272 44.0407 195.515 45.2532 195.515 48.0214C195.515 50.7895 195.272 52.0021 194.308 54.0638C193.644 55.4827 192.313 57.4317 191.349 58.3954C190.386 59.3586 188.466 60.6653 187.082 61.2984C185.581 61.9854 183.423 62.5252 181.731 62.637C179.741 62.7681 178.181 62.5682 176.495 61.9656ZM183.897 54.7795C184.726 54.4332 185.958 53.4921 186.635 52.6882C187.311 51.8843 188 50.5051 188.165 49.6241C188.331 48.7426 188.322 47.2526 188.145 46.3125C187.944 45.2403 187.186 43.965 186.109 42.8877C185.031 41.8109 183.756 41.0523 182.684 40.8514C181.743 40.675 180.206 40.675 179.266 40.8514C178.193 41.0523 176.918 41.8109 175.841 42.8877C174.764 43.965 174.005 45.2403 173.804 46.3125C173.628 47.2526 173.618 48.7426 173.784 49.6241C173.949 50.5051 174.638 51.8834 175.313 52.6864C175.989 53.4894 177.176 54.4225 177.95 54.7596C178.725 55.0971 180.04 55.3811 180.874 55.3913C181.707 55.401 183.068 55.1258 183.897 54.7795ZM51.3911 28.9901C52.5885 28.6364 54.1517 27.5684 55.6164 26.1042C57.0807 24.6396 58.1488 23.0766 58.5026 21.8793C58.8115 20.8339 59.0641 19.2995 59.0641 18.4698C59.0641 17.64 58.8115 16.1056 58.5026 15.0602C58.1488 13.8629 57.0807 12.2999 55.6164 10.8353C54.1517 9.3711 52.5885 8.30308 51.3911 7.94939C50.3457 7.64048 48.7613 7.3879 47.8705 7.3879C46.9793 7.3879 45.3409 7.70836 44.2298 8.09945C43.1183 8.49101 41.333 9.67031 40.2626 10.7198C39.1437 11.8165 38.0147 13.5125 37.6074 14.7075C37.2176 15.8517 36.8986 17.5052 36.8986 18.383C36.8986 19.2607 37.1511 20.8339 37.4601 21.8793C37.8133 23.0747 38.8842 24.6442 40.3462 26.1093C41.6249 27.3902 43.3981 28.6678 44.2871 28.9481C45.176 29.2279 46.7105 29.4787 47.6969 29.5045C48.6832 29.5304 50.3457 29.299 51.3911 28.9901ZM70.1469 169.922V147.758H92.3124V169.922H70.1469ZM84.9239 162.534V155.146H77.5354V162.534H84.9239ZM99.7009 169.922V162.534H144.032V169.922H99.7009ZM99.7009 155.146V147.758H144.032V155.146H99.7009ZM70.1469 140.37V118.206H92.3124V140.37H70.1469ZM84.9239 132.982V125.594H77.5354V132.982H84.9239ZM99.7009 140.37V132.982H144.032V140.37H99.7009ZM99.7009 125.594V118.206H144.032V125.594H99.7009ZM70.1469 110.819V88.6549H92.3124V110.819H70.1469ZM84.9239 103.431V96.0428H77.5354V103.431H84.9239ZM99.7009 110.819V103.431H107.089V110.819H99.7009ZM114.478 110.819V103.431H144.032V110.819H114.478ZM99.7009 96.0428V88.6549H107.089V96.0428H99.7009ZM114.478 96.0428V88.6549H144.032V96.0428H114.478Z" fill="white"/>
</svg>
