<svg xmlns="http://www.w3.org/2000/svg" width="61.905" height="61.905" viewBox="0 0 61.905 61.905">
  <g id="Grupo_10" data-name="Grupo 10" transform="translate(-1661.485 -51.578)">
    <circle id="Elipse_9" data-name="Elipse 9" cx="29" cy="29" r="29" transform="matrix(0.998, -0.07, 0.07, 0.998, 1661.485, 55.624)" fill="#343438"/>
    <g id="Icon_ionic-ios-mail" data-name="Icon ionic-ios-mail" transform="translate(1675.625 65.125)">
      <path id="Trazado_6" data-name="Trazado 6" d="M29.586,10.353l-6.835,6.963a.123.123,0,0,0,0,.178l4.784,5.095a.824.824,0,0,1,0,1.169.828.828,0,0,1-1.169,0L21.6,18.681a.13.13,0,0,0-.184,0l-1.163,1.182A5.115,5.115,0,0,1,16.608,21.4a5.217,5.217,0,0,1-3.723-1.582l-1.118-1.137a.13.13,0,0,0-.184,0L6.818,23.757a.828.828,0,0,1-1.169,0,.824.824,0,0,1,0-1.169l4.784-5.095a.135.135,0,0,0,0-.178L3.591,10.353a.125.125,0,0,0-.216.089V24.373a2.039,2.039,0,0,0,2.033,2.033H27.769A2.039,2.039,0,0,0,29.8,24.373V10.442A.127.127,0,0,0,29.586,10.353Z" transform="translate(0 -0.235)" fill="#00f89c"/>
      <path id="Trazado_7" data-name="Trazado 7" d="M16.671,19.507a3.454,3.454,0,0,0,2.484-1.042L29.122,8.32a2,2,0,0,0-1.258-.445H5.484a1.983,1.983,0,0,0-1.258.445l9.967,10.145A3.454,3.454,0,0,0,16.671,19.507Z" transform="translate(-0.082)" fill="#00f89c"/>
    </g>
  </g>
</svg>
