<svg id="react_5" xmlns="http://www.w3.org/2000/svg" width="55.889" height="49.736" viewBox="0 0 55.889 49.736">
  <path id="Trazado_2" data-name="Trazado 2" d="M45.965,44.425c-.579-.2-1.179-.393-1.8-.568.1-.415.2-.83.273-1.223,1.365-6.616.469-11.944-2.566-13.691-2.915-1.681-7.686.076-12.5,4.269-.459.4-.928.83-1.387,1.277-.306-.295-.622-.579-.928-.852-5.044-4.487-10.11-6.376-13.145-4.607-2.915,1.66-3.778,6.671-2.555,12.938.12.6.262,1.223.415,1.856-.721.207-1.408.415-2.063.655C3.778,46.532,0,49.764,0,53.126c0,3.461,4.061,6.944,10.219,9.051.491.164.994.328,1.507.469-.164.677-.317,1.343-.437,2-1.168,6.158-.251,11.049,2.653,12.719,3,1.736,8.036-.044,12.938-4.334.382-.338.775-.7,1.168-1.07q.753.737,1.507,1.376C34.3,77.419,39,79.078,41.9,77.4c3-1.736,3.974-6.987,2.708-13.374-.1-.491-.207-.983-.338-1.5.349-.109.7-.207,1.037-.328,6.409-2.118,10.579-5.557,10.579-9.062C55.9,49.753,52,46.5,45.965,44.425Zm-1.4,15.493c-.306.1-.622.2-.939.295A56.9,56.9,0,0,0,40.8,53.126a56.072,56.072,0,0,0,2.719-6.977c.568.164,1.125.338,1.66.524,5.175,1.78,8.33,4.411,8.33,6.442C53.509,55.288,50.1,58.094,44.567,59.917ZM42.274,64.47a20.291,20.291,0,0,1,.273,7.381c-.328,1.791-1,2.992-1.834,3.472-1.758,1.015-5.524-.306-9.6-3.8q-.7-.606-1.408-1.277a56.81,56.81,0,0,0,4.684-5.95,55.619,55.619,0,0,0,7.566-1.168C42.089,63.575,42.187,64.033,42.274,64.47ZM19.063,75.148c-1.725.611-3.09.622-3.92.153-1.769-1.015-2.5-4.946-1.5-10.208.109-.6.251-1.223.4-1.856a56.727,56.727,0,0,0,7.533,1.092,57.8,57.8,0,0,0,4.8,5.928c-.36.349-.71.677-1.07.983A20.629,20.629,0,0,1,19.063,75.148ZM10.994,59.906a20.071,20.071,0,0,1-6.518-3.461c-1.387-1.19-2.085-2.369-2.085-3.319,0-2.031,3.035-4.629,8.1-6.4.611-.218,1.256-.415,1.922-.6a56.94,56.94,0,0,0,2.729,7.064,58.474,58.474,0,0,0-2.762,7.162C11.9,60.2,11.442,60.059,10.994,59.906ZM13.7,41.51c-1.048-5.372-.349-9.422,1.4-10.438,1.867-1.081,6,.459,10.361,4.334.284.251.557.5.841.775a56.8,56.8,0,0,0-4.76,5.9,57.7,57.7,0,0,0-7.457,1.157C13.931,42.645,13.811,42.077,13.7,41.51Zm24.107,5.95c-.557-.961-1.125-1.889-1.7-2.795,1.78.229,3.494.524,5.1.9a50.825,50.825,0,0,1-1.791,4.815Q38.66,48.934,37.809,47.46Zm-9.837-9.575a48.225,48.225,0,0,1,3.286,3.974c-1.092-.055-2.205-.076-3.319-.076s-2.205.022-3.286.076C25.744,40.429,26.858,39.1,27.972,37.885Zm-9.892,9.6C17.523,48.443,17,49.4,16.5,50.375c-.7-1.649-1.288-3.275-1.78-4.837,1.594-.36,3.3-.644,5.066-.873q-.868,1.376-1.7,2.817Zm1.769,14.27a50.912,50.912,0,0,1-5.153-.83c.491-1.594,1.1-3.254,1.812-4.935.5.972,1.026,1.932,1.583,2.893h0C18.659,59.863,19.248,60.813,19.849,61.752Zm8.188,6.78c-1.135-1.223-2.26-2.577-3.363-4.029q1.6.066,3.275.066c1.135,0,2.271-.022,3.374-.076A51.993,51.993,0,0,1,28.037,68.532ZM39.436,55.9c.742,1.7,1.376,3.352,1.878,4.913a49.412,49.412,0,0,1-5.219.884c.579-.917,1.157-1.867,1.714-2.85C38.387,57.876,38.933,56.893,39.436,55.9Zm-3.69,1.769q-1.31,2.276-2.686,4.323c-1.66.12-3.374.175-5.121.175s-3.428-.055-5.066-.164c-.95-1.387-1.867-2.839-2.729-4.334h0q-1.294-2.244-2.38-4.509,1.081-2.26,2.38-4.509h0q1.294-2.244,2.708-4.313c1.66-.131,3.363-.2,5.088-.2h0c1.736,0,3.439.066,5.1.2.928,1.365,1.823,2.806,2.7,4.3q1.31,2.276,2.413,4.487C37.427,54.644,36.619,56.162,35.745,57.668ZM40.68,31.007c1.867,1.081,2.6,5.437,1.419,11.147-.076.36-.164.732-.251,1.114a57.673,57.673,0,0,0-7.479-1.179,56.333,56.333,0,0,0-4.727-5.9c.426-.415.863-.808,1.288-1.179C35.057,31.411,38.922,29.991,40.68,31.007ZM27.95,48.126a4.989,4.989,0,1,1-4.989,4.99A4.988,4.988,0,0,1,27.95,48.126Z" transform="translate(0 -28.311)" fill="#00d8ff"/>
</svg>
