<svg xmlns="http://www.w3.org/2000/svg" width="20.239" height="19.702" viewBox="0 0 20.239 19.702">
  <g id="Grupo_4" data-name="Grupo 4" transform="translate(-31.367 -32.932)">
    <path id="Trazado_4" data-name="Trazado 4" d="M51.606,43.052a10.12,10.12,0,1,0-13.412,9.571.97.97,0,0,0,.521-.753c0-.557-.012-1.988-.012-1.988a7.018,7.018,0,0,1-1.066.075,2.291,2.291,0,0,1-2.317-1.563,2.74,2.74,0,0,0-1.137-1.348c-.262-.169-.322-.367-.019-.424,1.4-.262,1.756,1.577,2.689,1.87a2.626,2.626,0,0,0,1.95-.156,2.016,2.016,0,0,1,.8-1.3c-2.375-.227-3.783-1.047-4.513-2.366l-.078-.148L34.83,44.1l-.054-.15a7.1,7.1,0,0,1-.33-2.292,3.911,3.911,0,0,1,1.116-2.9,4.055,4.055,0,0,1,.175-2.917s1.028-.212,2.971,1.172a10.831,10.831,0,0,1,5.19-.1c.815-.536,2.307-1.3,2.908-1.084a3.767,3.767,0,0,1,.213,2.692,4.7,4.7,0,0,1,1.27,3.354,8.68,8.68,0,0,1-.26,2.082l-.088.3s-.05.14-.1.274l-.064.148c-.7,1.539-2.15,2.114-4.485,2.352.757.474.974,1.068.974,2.677s-.022,1.824-.017,2.194a1.021,1.021,0,0,0,.5.74A10.124,10.124,0,0,0,51.606,43.052Z" fill="#fdffff"/>
  </g>
</svg>
