<svg xmlns="http://www.w3.org/2000/svg" width="18.347" height="18.347" viewBox="0 0 18.347 18.347">
  <path id="Icon_awesome-linkedin" data-name="Icon awesome-linkedin" d="M17.036,2.25H1.306A1.316,1.316,0,0,0,0,3.573v15.7A1.316,1.316,0,0,0,1.306,20.6h15.73a1.32,1.32,0,0,0,1.31-1.323V3.573A1.32,1.32,0,0,0,17.036,2.25ZM5.545,17.976H2.826V9.22H5.549v8.756ZM4.185,8.024A1.577,1.577,0,1,1,5.762,6.448,1.577,1.577,0,0,1,4.185,8.024Zm11.553,9.952H13.019V13.717c0-1.016-.02-2.322-1.413-2.322-1.417,0-1.634,1.106-1.634,2.248v4.333H7.253V9.22H9.861v1.2H9.9A2.864,2.864,0,0,1,12.474,9c2.752,0,3.264,1.814,3.264,4.173Z" transform="translate(0 -2.25)" fill="#fdffff"/>
</svg>
