<svg width="321" height="571" viewBox="0 0 321 571" fill="none" xmlns="http://www.w3.org/2000/svg">
<path d="M54.5921 218.806C48.0478 217.147 42.5847 211.733 40.8908 205.23C40.2823 202.894 40.2977 198.367 40.9227 195.946C42.4963 189.846 47.2921 184.832 53.5846 182.707C56.2623 181.802 61.7999 181.882 64.8092 182.867C73.5312 185.725 78.9389 194.737 77.4013 203.853C76.878 206.956 74.7954 211.083 72.6003 213.368C70.4547 215.601 67.4998 217.506 64.8859 218.343C62.2861 219.175 56.9873 219.413 54.5921 218.806ZM115.241 218.777C111.926 217.938 109.383 216.453 106.652 213.76C102.813 209.977 101.063 205.84 101.084 200.602C101.106 195.359 102.82 191.249 106.544 187.517C110.279 183.773 114.684 181.953 119.982 181.965C127.838 181.982 135.218 187.551 137.625 195.276C138.572 198.316 138.574 202.877 137.628 205.928C135.854 211.654 131.277 216.387 125.642 218.32C123.037 219.214 117.866 219.441 115.241 218.777ZM176.898 218.744C170.645 217.23 165.435 212.258 163.472 205.928C162.525 202.878 162.527 198.318 163.475 195.276C165.882 187.551 173.262 181.983 181.117 181.965C184.252 181.957 186.628 182.504 189.556 183.903C194.405 186.221 198.39 191.165 199.605 196.372C200.122 198.584 200.121 202.626 199.603 204.831C198.794 208.28 197.192 211.055 194.448 213.76C191.652 216.516 189.119 217.97 185.716 218.772C183.283 219.346 179.335 219.333 176.898 218.744ZM53.9607 158.768C50.5468 157.873 48.1043 156.446 45.41 153.772C39.4941 147.901 38.2239 139.887 41.9962 132.234C44.079 128.008 47.8791 124.674 52.5089 123.01C55.0955 122.081 60.2183 121.859 62.9871 122.557C68.4819 123.942 72.9357 127.568 75.3411 132.614C76.7165 135.5 77.1816 137.642 77.1554 140.972C77.1157 146.012 75.3779 150.132 71.7498 153.788C66.9741 158.599 60.3723 160.448 53.9607 158.768ZM116.244 159.206C112.556 158.491 108.674 156.45 106.094 153.87C98.7495 146.525 98.7926 134.746 106.191 127.445C109.79 123.892 114.129 122.119 119.22 122.119C124.471 122.119 128.533 123.778 132.261 127.445C136.025 131.147 137.861 135.446 137.861 140.555C137.861 143.928 137.415 145.906 135.976 148.906C132.985 155.143 127.01 159.018 120.018 159.256C118.373 159.312 116.674 159.289 116.244 159.206ZM177.18 159.059C176.318 158.887 174.341 158.13 172.786 157.378C168.138 155.129 164.786 151.323 163.207 146.502C162.221 143.493 162.142 137.955 163.046 135.277C165.163 129.008 170.209 124.183 176.285 122.615C178.745 121.981 183.128 121.979 185.567 122.611C192.093 124.302 197.588 129.841 199.099 136.25C201.824 147.808 193.505 158.834 181.737 159.264C180.092 159.324 178.042 159.23 177.18 159.059ZM54.2472 98.6078C46.1676 96.4919 40.4257 89.0579 40.4257 80.7132C40.4257 75.4804 42.231 71.0956 45.8933 67.4334C49.5555 63.7711 53.9403 61.9658 59.1732 61.9658C71.2659 61.9658 80.1052 73.484 77.0824 85.3029C74.5386 95.249 64.2692 101.232 54.2472 98.6078ZM116.087 98.9472C109.132 97.4457 103.461 92.0526 101.662 85.2281C101.046 82.8892 101.055 78.2924 101.68 75.9185C103.407 69.3656 108.946 63.949 115.496 62.4096C118.284 61.7543 122.808 61.9581 125.665 62.8677C132.621 65.0822 137.865 71.8836 138.378 79.354C138.95 87.6949 133.656 95.5808 125.643 98.3239C123.392 99.0943 118.305 99.4261 116.087 98.9472ZM177.493 98.8838C173.319 98.0993 168.321 94.6107 165.744 90.683C161.87 84.7791 161.87 76.4352 165.744 70.5312C170.221 63.7073 178.331 60.5632 186.239 62.5857C198.121 65.6246 203.875 79.6907 197.476 90.0553C196.028 92.4003 195.187 93.3793 193.158 95.0768C189.034 98.5281 183.176 99.9519 177.493 98.8838Z" fill="#CCCCCC"/>
<path d="M234.987 218.15C228.443 216.491 222.98 211.078 221.286 204.574C220.678 202.238 220.693 197.711 221.318 195.29C222.892 189.19 227.687 184.176 233.98 182.051C236.657 181.146 242.195 181.226 245.204 182.212C253.926 185.069 259.334 194.081 257.797 203.197C257.273 206.3 255.191 210.427 252.995 212.712C250.85 214.945 247.895 216.851 245.281 217.687C242.681 218.519 237.383 218.758 234.987 218.15ZM295.636 218.121C292.321 217.282 289.778 215.797 287.047 213.105C283.209 209.321 281.458 205.184 281.48 199.946C281.503 194.703 283.216 190.594 286.939 186.861C290.674 183.118 295.08 181.298 300.378 181.31C308.233 181.326 315.613 186.895 318.02 194.62C318.967 197.66 318.969 202.222 318.024 205.272C316.249 210.999 311.672 215.731 306.037 217.665C303.433 218.558 298.261 218.785 295.636 218.121ZM234.356 158.112C230.942 157.218 228.5 155.791 225.805 153.117C219.889 147.245 218.619 139.232 222.391 131.578C224.474 127.352 228.274 124.018 232.904 122.354C235.491 121.425 240.614 121.203 243.382 121.901C248.877 123.286 253.331 126.912 255.736 131.959C257.112 134.844 257.577 136.986 257.551 140.316C257.509 145.356 255.773 149.477 252.145 153.132C247.369 157.944 240.768 159.792 234.356 158.112ZM296.639 158.55C292.951 157.835 289.07 155.794 286.489 153.214C279.145 145.87 279.188 134.09 286.586 126.789C290.185 123.237 294.524 121.463 299.615 121.463C304.866 121.463 308.928 123.122 312.656 126.789C316.42 130.491 318.256 134.79 318.256 139.899C318.256 143.273 317.81 145.25 316.371 148.25C313.38 154.488 307.405 158.362 300.413 158.6C298.768 158.656 297.07 158.633 296.639 158.55ZM234.642 97.9521C226.563 95.8361 220.821 88.4021 220.821 80.0575C220.821 74.8247 222.626 70.4398 226.288 66.7776C229.951 63.1153 234.336 61.3101 239.568 61.3101C251.661 61.3101 260.5 72.8283 257.478 84.6472C254.934 94.5933 244.664 100.577 234.642 97.9521ZM296.482 98.2914C289.527 96.7899 283.857 91.3968 282.058 84.5724C281.441 82.2335 281.45 77.6366 282.076 75.2628C283.803 68.7099 289.343 63.2932 295.892 61.7539C298.68 61.0985 303.204 61.3024 306.061 62.2119C313.017 64.4264 318.262 71.2279 318.774 78.6982C319.346 87.0392 314.052 94.9251 306.039 97.6682C303.788 98.4386 298.701 98.7703 296.482 98.2914Z" fill="#CCCCCC"/>
<path d="M56.0944 399.457C49.5501 397.798 44.087 392.385 42.3931 385.881C41.7846 383.545 41.8 379.018 42.425 376.597C43.9987 370.497 48.7945 365.483 55.0869 363.358C57.7646 362.454 63.3022 362.533 66.3116 363.519C75.0335 366.376 80.4412 375.388 78.9036 384.504C78.3803 387.607 76.2977 391.734 74.1026 394.019C71.957 396.252 69.0021 398.158 66.3882 398.994C63.7884 399.826 58.4896 400.065 56.0944 399.457ZM116.743 399.43C113.428 398.591 110.885 397.105 108.154 394.413C104.316 390.63 102.565 386.493 102.587 381.255C102.608 376.012 104.323 371.902 108.047 368.17C111.782 364.426 116.187 362.606 121.485 362.618C129.34 362.637 136.72 368.204 139.127 375.929C140.074 378.969 140.076 383.53 139.131 386.581C137.357 392.307 132.779 397.039 127.145 398.973C124.54 399.867 119.368 400.094 116.743 399.43ZM178.401 399.397C172.147 397.884 166.938 392.912 164.974 386.581C164.028 383.532 164.029 378.971 164.977 375.929C167.385 368.204 174.764 362.637 182.62 362.619C185.755 362.61 188.13 363.157 191.058 364.557C195.908 366.875 199.892 371.819 201.108 377.026C201.624 379.238 201.623 383.279 201.105 385.485C200.297 388.933 198.694 391.709 195.95 394.414C193.155 397.169 190.621 398.624 187.218 399.426C184.785 400 180.837 399.986 178.401 399.397ZM55.463 339.419C52.0491 338.525 49.6066 337.098 46.9124 334.424C40.9965 328.552 39.7262 320.539 43.4985 312.885C45.5813 308.66 49.3814 305.325 54.0112 303.662C56.5978 302.732 61.7206 302.51 64.4894 303.208C69.9842 304.594 74.438 308.219 76.8434 313.266C78.2188 316.151 78.6839 318.294 78.6578 321.623C78.618 326.663 76.8803 330.784 73.2521 334.439C68.4765 339.251 61.8747 341.099 55.463 339.419ZM117.746 339.857C114.058 339.142 110.177 337.102 107.596 334.521C100.252 327.177 100.295 315.397 107.693 308.096C111.292 304.544 115.631 302.77 120.722 302.77C125.973 302.77 130.035 304.429 133.763 308.096C137.527 311.798 139.364 316.097 139.364 321.206C139.364 324.58 138.917 326.557 137.478 329.557C134.487 335.795 128.512 339.67 121.52 339.907C119.875 339.963 118.177 339.94 117.746 339.857ZM178.682 339.711C177.821 339.538 175.843 338.782 174.288 338.029C169.64 335.78 166.289 331.974 164.709 327.153C163.724 324.144 163.644 318.606 164.549 315.929C166.666 309.66 171.711 304.834 177.788 303.267C180.247 302.632 184.63 302.63 187.069 303.263C193.595 304.954 199.091 310.492 200.601 316.901C203.326 328.459 195.008 339.485 183.239 339.915C181.595 339.975 179.544 339.881 178.682 339.711ZM55.7495 279.259C47.6699 277.143 41.928 269.709 41.928 261.365C41.928 256.132 43.7333 251.747 47.3956 248.085C51.0578 244.422 55.4426 242.617 60.6755 242.617C72.7683 242.617 81.6075 254.135 78.5847 265.954C76.0409 275.9 65.7715 281.884 55.7495 279.259ZM117.589 279.599C110.634 278.097 104.964 272.704 103.165 265.879C102.548 263.541 102.557 258.944 103.182 256.57C104.909 250.017 110.449 244.6 116.998 243.061C119.786 242.406 124.31 242.61 127.167 243.519C134.123 245.734 139.368 252.535 139.88 260.005C140.452 268.346 135.158 276.232 127.145 278.975C124.894 279.746 119.808 280.077 117.589 279.599ZM178.996 279.535C174.822 278.751 169.823 275.262 167.246 271.334C163.372 265.43 163.372 257.087 167.246 251.183C171.724 244.359 179.834 241.215 187.741 243.237C199.623 246.276 205.377 260.342 198.978 270.707C197.531 273.052 196.689 274.031 194.66 275.728C190.536 279.18 184.678 280.603 178.996 279.535Z" fill="#CCCCCC"/>
<path d="M236.489 400.858C229.945 399.199 224.482 393.786 222.788 387.282C222.18 384.946 222.195 380.419 222.82 377.998C224.394 371.898 229.19 366.884 235.482 364.759C238.16 363.854 243.697 363.934 246.707 364.92C255.429 367.777 260.836 376.789 259.299 385.905C258.775 389.008 256.693 393.135 254.498 395.42C252.352 397.653 249.397 399.559 246.783 400.395C244.184 401.227 238.885 401.466 236.489 400.858ZM297.138 400.83C293.824 399.992 291.28 398.506 288.549 395.814C284.711 392.031 282.96 387.894 282.982 382.656C283.005 377.413 284.718 373.303 288.442 369.571C292.177 365.827 296.582 364.007 301.88 364.019C309.735 364.038 317.115 369.604 319.522 377.33C320.47 380.37 320.471 384.931 319.526 387.982C317.752 393.708 313.174 398.44 307.54 400.374C304.935 401.268 299.764 401.495 297.138 400.83ZM235.858 340.82C232.444 339.926 230.002 338.499 227.307 335.825C221.392 329.953 220.121 321.94 223.894 314.286C225.976 310.06 229.776 306.726 234.406 305.062C236.993 304.133 242.116 303.911 244.884 304.609C250.379 305.994 254.833 309.62 257.239 314.667C258.614 317.552 259.079 319.694 259.053 323.024C259.011 328.064 257.275 332.185 253.647 335.84C248.872 340.652 242.27 342.5 235.858 340.82ZM298.141 341.258C294.453 340.543 290.572 338.502 287.991 335.922C280.647 328.578 280.69 316.798 288.088 309.497C291.687 305.945 296.026 304.171 301.117 304.171C306.368 304.171 310.43 305.83 314.158 309.497C317.922 313.199 319.758 317.498 319.758 322.607C319.758 325.981 319.312 327.958 317.873 330.958C314.882 337.196 308.907 341.071 301.915 341.308C300.27 341.364 298.572 341.341 298.141 341.258ZM236.145 280.66C228.065 278.544 222.323 271.11 222.323 262.765C222.323 257.533 224.128 253.148 227.791 249.486C231.453 245.823 235.838 244.018 241.071 244.018C253.163 244.018 262.003 255.536 258.98 267.355C256.436 277.301 246.167 283.285 236.145 280.66ZM297.984 280.999C291.029 279.498 285.359 274.105 283.56 267.28C282.943 264.941 282.952 260.345 283.578 257.971C285.305 251.418 290.845 246.001 297.394 244.462C300.182 243.807 304.706 244.01 307.563 244.92C314.519 247.134 319.764 253.936 320.276 261.406C320.848 269.747 315.554 277.633 307.541 280.376C305.29 281.147 300.203 281.478 297.984 280.999Z" fill="#CCCCCC"/>
<path d="M54.2978 570.271C47.7536 568.612 42.2904 563.199 40.5965 556.695C39.9881 554.359 40.0035 549.832 40.6284 547.411C42.2021 541.311 46.9979 536.297 53.2903 534.172C55.968 533.268 61.5056 533.347 64.515 534.333C73.237 537.19 78.6447 546.202 77.1071 555.318C76.5837 558.421 74.5012 562.548 72.306 564.833C70.1605 567.066 67.2055 568.972 64.5916 569.808C61.9919 570.64 56.6931 570.879 54.2978 570.271ZM114.947 570.244C111.632 569.405 109.089 567.919 106.358 565.227C102.519 561.444 100.769 557.307 100.79 552.069C100.811 546.826 102.526 542.716 106.25 538.984C109.985 535.24 114.39 533.42 119.688 533.432C127.544 533.451 134.923 539.017 137.331 546.743C138.278 549.783 138.28 554.344 137.334 557.395C135.56 563.121 130.983 567.853 125.348 569.787C122.743 570.681 117.572 570.908 114.947 570.244ZM176.604 570.211C170.35 568.698 165.141 563.726 163.177 557.395C162.231 554.346 162.233 549.785 163.181 546.743C165.588 539.018 172.968 533.45 180.823 533.433C183.958 533.424 186.334 533.971 189.261 535.371C194.111 537.689 198.096 542.633 199.311 547.84C199.827 550.052 199.826 554.093 199.309 556.299C198.5 559.747 196.898 562.523 194.153 565.228C191.358 567.983 188.824 569.438 185.421 570.24C182.988 570.814 179.041 570.8 176.604 570.211ZM53.6664 510.233C50.2525 509.339 47.81 507.912 45.1158 505.238C39.1999 499.366 37.9297 491.353 41.7019 483.699C43.7848 479.474 47.5848 476.139 52.2147 474.475C54.8013 473.546 59.9241 473.324 62.6928 474.022C68.1877 475.408 72.6414 479.033 75.0469 484.08C76.4222 486.965 76.8873 489.108 76.8612 492.437C76.8214 497.478 75.0837 501.598 71.4555 505.253C66.6799 510.065 60.0781 511.913 53.6664 510.233ZM115.949 510.671C112.262 509.956 108.38 507.916 105.8 505.335C98.4553 497.991 98.4984 486.211 105.897 478.91C109.496 475.358 113.835 473.584 118.926 473.584C124.177 473.584 128.238 475.243 131.967 478.91C135.731 482.612 137.567 486.911 137.567 492.02C137.567 495.394 137.121 497.371 135.682 500.371C132.69 506.609 126.716 510.484 119.723 510.721C118.078 510.777 116.38 510.753 115.949 510.671ZM176.886 510.525C176.024 510.353 174.047 509.596 172.492 508.843C167.844 506.594 164.492 502.789 162.913 497.967C161.927 494.958 161.848 489.42 162.752 486.743C164.869 480.474 169.914 475.649 175.991 474.081C178.451 473.446 182.833 473.444 185.272 474.077C191.799 475.768 197.294 481.306 198.805 487.716C201.529 499.273 193.211 510.299 181.443 510.73C179.798 510.79 177.747 510.696 176.886 510.525ZM53.9529 450.073C45.8733 447.957 40.1315 440.523 40.1315 432.179C40.1315 426.946 41.9368 422.561 45.599 418.899C49.2612 415.236 53.6461 413.431 58.8789 413.431C70.9717 413.431 79.8109 424.949 76.7882 436.768C74.2444 446.714 63.9749 452.698 53.9529 450.073ZM115.793 450.412C108.838 448.911 103.167 443.518 101.368 436.693C100.752 434.355 100.76 429.758 101.386 427.384C103.112 420.831 108.652 415.414 115.202 413.875C117.99 413.22 122.514 413.423 125.371 414.333C132.327 416.548 137.571 423.349 138.083 430.819C138.656 439.16 133.361 447.046 125.348 449.789C123.098 450.56 118.011 450.891 115.793 450.412ZM177.199 450.349C173.025 449.565 168.027 446.076 165.45 442.148C161.576 436.244 161.576 427.9 165.45 421.997C169.927 415.173 178.037 412.029 185.945 414.051C197.826 417.09 203.581 431.156 197.182 441.521C195.734 443.866 194.892 444.845 192.864 446.542C188.74 449.993 182.882 451.417 177.199 450.349Z" fill="#CCCCCC"/>
<path d="M235.721 570.644C229.177 568.984 223.714 563.571 222.02 557.068C221.412 554.732 221.427 550.205 222.052 547.784C223.626 541.684 228.421 536.67 234.714 534.544C237.392 533.64 242.929 533.719 245.939 534.705C254.661 537.562 260.068 546.575 258.531 555.691C258.007 558.794 255.925 562.921 253.73 565.205C251.584 567.438 248.629 569.344 246.015 570.181C243.415 571.013 238.117 571.251 235.721 570.644ZM296.37 570.616C293.055 569.777 290.512 568.292 287.781 565.6C283.943 561.816 282.192 557.679 282.214 552.441C282.237 547.198 283.95 543.089 287.674 539.356C291.409 535.613 295.814 533.793 301.112 533.805C308.967 533.823 316.347 539.39 318.754 547.115C319.701 550.155 319.703 554.717 318.758 557.767C316.984 563.494 312.406 568.226 306.771 570.16C304.167 571.054 298.995 571.281 296.37 570.616ZM235.09 510.606C231.676 509.711 229.234 508.284 226.539 505.61C220.623 499.739 219.353 491.725 223.125 484.072C225.208 479.846 229.008 476.512 233.638 474.848C236.225 473.918 241.348 473.697 244.116 474.395C249.611 475.78 254.065 479.406 256.47 484.452C257.846 487.338 258.311 489.48 258.285 492.81C258.243 497.85 256.507 501.971 252.879 505.626C248.103 510.437 241.502 512.285 235.09 510.606ZM297.373 511.043C293.685 510.329 289.804 508.288 287.223 505.708C279.879 498.363 279.922 486.584 287.32 479.282C290.919 475.73 295.258 473.957 300.349 473.957C305.6 473.957 309.662 475.616 313.39 479.283C317.154 482.985 318.99 487.283 318.99 492.393C318.99 495.766 318.544 497.744 317.105 500.744C314.114 506.981 308.139 510.856 301.147 511.094C299.502 511.15 297.804 511.126 297.373 511.043ZM235.376 450.446C227.297 448.33 221.555 440.896 221.555 432.551C221.555 427.318 223.36 422.934 227.023 419.271C230.685 415.609 235.07 413.804 240.302 413.804C252.395 413.804 261.234 425.322 258.212 437.141C255.668 447.087 245.398 453.07 235.376 450.446ZM297.216 450.785C290.261 449.283 284.591 443.89 282.792 437.066C282.175 434.727 282.184 430.13 282.81 427.756C284.537 421.203 290.077 415.787 296.626 414.247C299.414 413.592 303.938 413.796 306.795 414.706C313.751 416.92 318.996 423.722 319.508 431.192C320.08 439.533 314.786 447.419 306.773 450.162C304.522 450.932 299.435 451.264 297.216 450.785Z" fill="#CCCCCC"/>
<path d="M14.7336 157.496C8.18938 155.836 2.72625 150.423 1.03236 143.92C0.42388 141.584 0.439264 137.057 1.06426 134.635C2.63791 128.536 7.43369 123.521 13.7261 121.396C16.4038 120.492 21.9415 120.571 24.9508 121.557C33.6728 124.414 39.0805 133.427 37.5429 142.543C37.0195 145.646 34.937 149.773 32.7418 152.057C30.5963 154.29 27.6413 156.196 25.0274 157.033C22.4277 157.865 17.1289 158.103 14.7336 157.496ZM75.3826 157.467C72.0677 156.628 69.5244 155.142 66.7933 152.45C62.955 148.667 61.2046 144.53 61.2259 139.292C61.2472 134.049 62.962 129.939 66.6858 126.207C70.4208 122.463 74.8259 120.643 80.124 120.655C87.9794 120.672 95.3591 126.241 97.7663 133.966C98.7137 137.006 98.7154 141.567 97.7699 144.618C95.9958 150.344 91.4186 155.077 85.7838 157.01C83.179 157.904 78.0076 158.131 75.3826 157.467ZM137.04 157.433C130.786 155.92 125.577 150.948 123.613 144.618C122.667 141.568 122.668 137.007 123.617 133.966C126.024 126.24 133.404 120.673 141.259 120.655C144.394 120.647 146.77 121.194 149.697 122.593C154.547 124.911 158.532 129.855 159.747 135.062C160.263 137.274 160.262 141.315 159.745 143.521C158.936 146.97 157.334 149.745 154.589 152.45C151.794 155.206 149.26 156.66 145.857 157.462C143.424 158.036 139.477 158.023 137.04 157.433ZM14.1023 97.4576C10.6884 96.5632 8.24586 95.1363 5.5516 92.4623C-0.364284 86.5909 -1.6345 78.5771 2.13772 70.9238C4.22057 66.6981 8.02062 63.364 12.6505 61.7C15.2371 60.7704 20.3599 60.5489 23.1286 61.2468C28.6235 62.632 33.0773 66.2578 35.4827 71.3043C36.8581 74.1897 37.3231 76.3321 37.297 79.6616C37.2572 84.7019 35.5195 88.8223 31.8913 92.4777C27.1157 97.2892 20.5139 99.1373 14.1023 97.4576ZM76.3852 97.8954C72.6975 97.1806 68.8159 95.1401 66.2356 92.5598C58.8911 85.2152 58.9342 73.4356 66.3323 66.1345C69.9317 62.5823 74.2706 60.8088 79.3616 60.8088C84.6124 60.8088 88.6743 62.4677 92.4027 66.1349C96.1666 69.8369 98.0028 74.1355 98.0028 79.2448C98.0028 82.6183 97.5563 84.5959 96.1177 87.5957C93.1261 93.8333 87.1515 97.7081 80.1591 97.9456C78.5143 98.0015 76.816 97.9787 76.3852 97.8954ZM137.322 97.7491C136.46 97.5769 134.483 96.82 132.928 96.0675C128.28 93.8184 124.928 90.0129 123.349 85.1918C122.363 82.1824 122.283 76.6448 123.188 73.9671C125.305 67.6983 130.35 62.873 136.427 61.3052C138.886 60.6707 143.269 60.6684 145.708 61.301C152.235 62.9922 157.73 68.5306 159.241 74.9399C161.965 86.4977 153.647 97.5236 141.879 97.9538C140.234 98.0139 138.183 97.9197 137.322 97.7491ZM14.3887 37.2977C6.30917 35.1818 0.567282 27.7478 0.567282 19.4032C0.567282 14.1704 2.37258 9.78554 6.03483 6.12329C9.69706 2.46104 14.0819 0.655762 19.3147 0.655762C31.4075 0.655762 40.2467 12.1739 37.224 23.9929C34.6802 33.9389 24.4107 39.9224 14.3887 37.2977ZM76.2286 37.6371C69.2734 36.1355 63.603 30.7425 61.8039 23.9181C61.1874 21.5791 61.1961 16.9823 61.8215 14.6085C63.5482 8.05557 69.088 2.63889 75.6374 1.09958C78.4256 0.44425 82.9496 0.648083 85.8067 1.55765C92.7623 3.77209 98.007 10.5735 98.5193 18.0439C99.0913 26.3848 93.7972 34.2707 85.7841 37.0138C83.5335 37.7842 78.4469 38.116 76.2286 37.6371ZM137.635 37.5737C133.461 36.7892 128.463 33.3006 125.885 29.3729C122.012 23.469 122.012 15.1251 125.885 9.22114C130.363 2.39722 138.473 -0.746817 146.38 1.27562C158.262 4.31451 164.016 18.3806 157.618 28.7452C156.17 31.0903 155.328 32.0693 153.3 33.7667C149.176 37.218 143.317 38.6418 137.635 37.5737Z" fill="#2F2F2F"/>
<path d="M195.129 156.84C188.585 155.181 183.121 149.768 181.428 143.264C180.819 140.928 180.834 136.401 181.459 133.98C183.033 127.88 187.829 122.866 194.121 120.741C196.799 119.836 202.337 119.916 205.346 120.902C214.068 123.759 219.476 132.771 217.938 141.887C217.415 144.99 215.332 149.117 213.137 151.402C210.991 153.635 208.036 155.54 205.423 156.377C202.823 157.209 197.524 157.447 195.129 156.84ZM255.778 156.811C252.463 155.972 249.92 154.487 247.188 151.795C243.35 148.011 241.6 143.874 241.621 138.636C241.644 133.393 243.357 129.284 247.081 125.551C250.816 121.807 255.221 119.988 260.519 120C268.375 120.016 275.754 125.585 278.161 133.31C279.109 136.35 279.111 140.911 278.165 143.962C276.391 149.689 271.814 154.421 266.179 156.355C263.574 157.248 258.403 157.475 255.778 156.811ZM194.497 96.8019C191.083 95.9075 188.641 94.4806 185.947 91.8067C180.031 85.9353 178.761 77.9214 182.533 70.2681C184.616 66.0424 188.416 62.7082 193.046 61.0443C195.632 60.1147 200.755 59.8931 203.524 60.5911C209.019 61.9763 213.472 65.6021 215.878 70.6486C217.253 73.534 217.718 75.6764 217.692 79.0059C217.652 84.0462 215.915 88.1666 212.287 91.8221C207.511 96.6335 200.909 98.4817 194.497 96.8019ZM256.78 97.2397C253.093 96.525 249.211 94.4844 246.631 91.9041C239.286 84.5595 239.329 72.7799 246.727 65.4788C250.327 61.9266 254.666 60.1531 259.757 60.1531C265.007 60.1531 269.069 61.812 272.798 65.4792C276.562 69.1812 278.398 73.4798 278.398 78.5891C278.398 81.9626 277.951 83.9403 276.513 86.94C273.521 93.1776 267.547 97.0524 260.554 97.29C258.909 97.3458 257.211 97.323 256.78 97.2397ZM194.784 36.642C186.704 34.5261 180.962 27.0921 180.962 18.7474C180.962 13.5146 182.768 9.12978 186.43 5.46753C190.092 1.80527 194.477 0 199.71 0C211.803 0 220.642 11.5182 217.619 23.3371C215.075 33.2832 204.806 39.2667 194.784 36.642ZM256.624 36.9814C249.669 35.4798 243.998 30.0868 242.199 23.2623C241.583 20.9234 241.591 16.3265 242.218 13.9527C243.944 7.39981 249.484 1.98313 256.033 0.44382C258.822 -0.211512 263.346 -0.00767892 266.203 0.901889C273.158 3.11633 278.403 9.91779 278.915 17.3882C279.487 25.7291 274.193 33.615 266.18 36.3581C263.93 37.1285 258.842 37.4603 256.624 36.9814Z" fill="#2F2F2F"/>
<path d="M15.2075 339.175C8.66325 337.516 3.20013 332.103 1.50624 325.6C0.897758 323.263 0.913133 318.736 1.53813 316.315C3.11178 310.215 7.90756 305.201 14.2 303.076C16.8777 302.172 22.4153 302.251 25.4247 303.237C34.1466 306.094 39.5544 315.106 38.0167 324.223C37.4934 327.325 35.4109 331.452 33.2157 333.737C31.0701 335.97 28.1152 337.876 25.5013 338.712C22.9016 339.544 17.6027 339.783 15.2075 339.175ZM75.8564 339.148C72.5416 338.309 69.9983 336.823 67.2672 334.131C63.4288 330.348 61.6785 326.211 61.6998 320.973C61.7211 315.73 63.4359 311.62 67.1597 307.888C70.8947 304.144 75.2998 302.324 80.5979 302.336C88.4533 302.355 95.833 307.922 98.2402 315.647C99.1876 318.687 99.1893 323.248 98.2438 326.299C96.4696 332.025 91.8924 336.758 86.2576 338.691C83.6528 339.585 78.4815 339.812 75.8564 339.148ZM137.514 339.115C131.26 337.602 126.051 332.63 124.087 326.3C123.141 323.25 123.142 318.689 124.091 315.647C126.498 307.922 133.877 302.355 141.733 302.337C144.868 302.328 147.243 302.876 150.171 304.275C155.021 306.593 159.006 311.537 160.221 316.744C160.737 318.956 160.736 322.997 160.218 325.203C159.41 328.652 157.807 331.427 155.063 334.132C152.268 336.887 149.734 338.342 146.331 339.144C143.898 339.718 139.95 339.704 137.514 339.115ZM14.5761 279.137C11.1622 278.243 8.71973 276.816 6.02547 274.142C0.109585 268.271 -1.16063 260.257 2.61159 252.603C4.69444 248.378 8.4945 245.044 13.1244 243.38C15.7109 242.45 20.8338 242.228 23.6025 242.927C29.0973 244.312 33.5511 247.938 35.9565 252.984C37.3319 255.869 37.797 258.012 37.7709 261.341C37.7311 266.382 35.9934 270.502 32.3652 274.157C27.5896 278.969 20.9878 280.817 14.5761 279.137ZM76.8591 279.575C73.1714 278.86 69.2898 276.82 66.7095 274.239C59.365 266.895 59.4081 255.115 66.8062 247.814C70.4056 244.262 74.7445 242.488 79.8355 242.488C85.0862 242.488 89.1482 244.147 92.8765 247.814C96.6404 251.516 98.4766 255.815 98.4766 260.924C98.4766 264.298 98.0302 266.275 96.5915 269.275C93.5999 275.513 87.6253 279.388 80.633 279.625C78.9882 279.681 77.2899 279.657 76.8591 279.575ZM137.795 279.429C136.934 279.257 134.957 278.5 133.401 277.747C128.753 275.498 125.402 271.693 123.822 266.872C122.837 263.862 122.757 258.325 123.662 255.647C125.779 249.378 130.824 244.553 136.901 242.985C139.36 242.35 143.743 242.348 146.182 242.981C152.709 244.672 158.204 250.21 159.715 256.62C162.439 268.178 154.121 279.203 142.353 279.634C140.708 279.694 138.657 279.6 137.795 279.429ZM14.8626 218.977C6.78304 216.862 1.04115 209.428 1.04115 201.083C1.04115 195.85 2.84645 191.465 6.5087 187.803C10.1709 184.141 14.5558 182.335 19.7886 182.335C31.8814 182.335 40.7206 193.854 37.6978 205.673C35.1541 215.619 24.8846 221.602 14.8626 218.977ZM76.7025 219.317C69.7473 217.815 64.0769 212.422 62.2778 205.598C61.6612 203.259 61.6699 198.662 62.2954 196.288C64.0221 189.735 69.5619 184.319 76.1113 182.779C78.8995 182.124 83.4234 182.328 86.2805 183.237C93.2362 185.452 98.4808 192.253 98.9932 199.724C99.5652 208.065 94.2711 215.95 86.258 218.694C84.0074 219.464 78.9208 219.796 76.7025 219.317ZM138.109 219.253C133.935 218.469 128.936 214.98 126.359 211.053C122.485 205.149 122.485 196.805 126.359 190.901C130.837 184.077 138.947 180.933 146.854 182.955C158.736 185.994 164.49 200.06 158.092 210.425C156.644 212.77 155.802 213.749 153.774 215.446C149.65 218.898 143.791 220.321 138.109 219.253Z" fill="#2F2F2F"/>
<path d="M196.631 339.548C190.087 337.889 184.624 332.476 182.93 325.972C182.321 323.636 182.337 319.109 182.962 316.688C184.535 310.588 189.331 305.574 195.624 303.449C198.301 302.544 203.839 302.624 206.848 303.61C215.57 306.467 220.978 315.479 219.44 324.595C218.917 327.698 216.834 331.825 214.639 334.11C212.494 336.343 209.539 338.248 206.925 339.085C204.325 339.917 199.026 340.155 196.631 339.548ZM257.28 339.52C253.965 338.681 251.422 337.196 248.691 334.504C244.852 330.72 243.102 326.584 243.123 321.346C243.146 316.103 244.859 311.993 248.583 308.261C252.318 304.517 256.723 302.697 262.021 302.709C269.877 302.727 277.257 308.294 279.664 316.019C280.611 319.06 280.613 323.621 279.667 326.672C277.893 332.398 273.316 337.13 267.681 339.064C265.076 339.958 259.905 340.185 257.28 339.52ZM196 279.51C192.586 278.616 190.143 277.189 187.449 274.515C181.533 268.643 180.263 260.629 184.035 252.976C186.118 248.75 189.918 245.416 194.548 243.752C197.135 242.823 202.257 242.601 205.026 243.299C210.521 244.684 214.975 248.31 217.38 253.357C218.755 256.242 219.221 258.385 219.194 261.714C219.155 266.754 217.417 270.875 213.789 274.53C209.013 279.342 202.411 281.19 196 279.51ZM258.283 279.948C254.595 279.233 250.713 277.192 248.133 274.612C240.789 267.268 240.832 255.488 248.23 248.187C251.829 244.635 256.168 242.861 261.259 242.861C266.51 242.861 270.572 244.52 274.3 248.187C278.064 251.889 279.9 256.188 279.9 261.297C279.9 264.671 279.454 266.648 278.015 269.648C275.023 275.886 269.049 279.76 262.056 279.998C260.412 280.054 258.713 280.03 258.283 279.948ZM196.286 219.35C188.207 217.234 182.465 209.8 182.465 201.455C182.465 196.223 184.27 191.838 187.932 188.176C191.594 184.513 195.979 182.708 201.212 182.708C213.305 182.708 222.144 194.226 219.121 206.045C216.578 215.991 206.308 221.975 196.286 219.35ZM258.126 219.689C251.171 218.188 245.5 212.795 243.701 205.97C243.085 203.631 243.094 199.034 243.72 196.661C245.447 190.108 250.986 184.691 257.536 183.152C260.324 182.496 264.848 182.7 267.705 183.61C274.661 185.824 279.905 192.626 280.418 200.096C280.99 208.437 275.696 216.323 267.682 219.066C265.432 219.837 260.344 220.168 258.126 219.689Z" fill="#2F2F2F"/>
<path d="M16.4962 512.047C9.95193 510.387 4.48881 504.974 2.79492 498.471C2.18644 496.135 2.20182 491.608 2.82682 489.186C4.40047 483.087 9.19625 478.072 15.4887 475.947C18.1664 475.043 23.704 475.122 26.7134 476.108C35.4353 478.965 40.8431 487.978 39.3054 497.094C38.7821 500.197 36.6995 504.324 34.5044 506.608C32.3588 508.841 29.4039 510.747 26.79 511.584C24.1903 512.416 18.8914 512.654 16.4962 512.047ZM77.1451 512.019C73.8303 511.18 71.287 509.695 68.5559 507.003C64.7175 503.219 62.9672 499.082 62.9885 493.844C63.0097 488.601 64.7245 484.492 68.4483 480.759C72.1834 477.015 76.5885 475.196 81.8866 475.207C89.742 475.226 97.1217 480.793 99.5289 488.518C100.476 491.558 100.478 496.119 99.5324 499.17C97.7583 504.896 93.1811 509.629 87.5463 511.562C84.9415 512.456 79.7702 512.684 77.1451 512.019ZM138.802 511.987C132.549 510.473 127.339 505.501 125.376 499.171C124.43 496.121 124.431 491.561 125.379 488.519C127.786 480.794 135.166 475.226 143.022 475.208C146.156 475.199 148.532 475.747 151.46 477.146C156.309 479.464 160.294 484.408 161.51 489.615C162.026 491.827 162.025 495.869 161.507 498.074C160.699 501.523 159.096 504.298 156.352 507.003C153.556 509.759 151.023 511.213 147.62 512.015C145.187 512.589 141.239 512.575 138.802 511.987ZM15.8648 452.008C12.4509 451.114 10.0084 449.687 7.31416 447.013C1.39827 441.142 0.128056 433.128 3.90028 425.475C5.98313 421.249 9.78318 417.915 14.413 416.251C16.9996 415.321 22.1225 415.1 24.8912 415.798C30.386 417.183 34.8398 420.809 37.2452 425.855C38.6206 428.741 39.0857 430.883 39.0596 434.213C39.0198 439.253 37.2821 443.373 33.6539 447.029C28.8783 451.84 22.2765 453.688 15.8648 452.008ZM78.1478 452.446C74.4601 451.731 70.5785 449.691 67.9982 447.111C60.6536 439.766 60.6968 427.986 68.0949 420.685C71.6943 417.133 76.0332 415.36 81.1241 415.36C86.3749 415.36 90.4369 417.018 94.1652 420.686C97.9291 424.388 99.7653 428.686 99.7653 433.796C99.7653 437.169 99.3189 439.147 97.8802 442.146C94.8886 448.384 88.914 452.259 81.9217 452.496C80.2768 452.552 78.5786 452.528 78.1478 452.446ZM139.084 452.3C138.223 452.128 136.245 451.371 134.69 450.619C130.042 448.369 126.69 444.564 125.111 439.743C124.125 436.733 124.046 431.196 124.95 428.518C127.067 422.249 132.113 417.424 138.189 415.856C140.649 415.222 145.032 415.219 147.471 415.852C153.997 417.543 159.492 423.082 161.003 429.491C163.728 441.049 155.41 452.075 143.641 452.505C141.996 452.565 139.946 452.472 139.084 452.3ZM16.1513 391.849C8.07172 389.733 2.32984 382.299 2.32984 373.954C2.32984 368.721 4.13514 364.336 7.79738 360.674C11.4596 357.012 15.8444 355.207 21.0773 355.207C33.1701 355.207 42.0093 366.725 38.9865 378.544C36.4427 388.49 26.1733 394.473 16.1513 391.849ZM77.9911 392.188C71.036 390.686 65.3655 385.293 63.5665 378.469C62.9499 376.13 62.9586 371.533 63.5841 369.159C65.3108 362.606 70.8506 357.19 77.4 355.65C80.1882 354.995 84.7121 355.199 87.5692 356.108C94.5249 358.323 99.7695 365.124 100.282 372.595C100.854 380.936 95.5598 388.822 87.5466 391.565C85.2961 392.335 80.2095 392.667 77.9911 392.188ZM139.397 392.125C135.223 391.34 130.225 387.851 127.648 383.924C123.774 378.02 123.774 369.676 127.648 363.772C132.126 356.948 140.235 353.804 148.143 355.826C160.025 358.865 165.779 372.931 159.38 383.296C157.932 385.641 157.091 386.62 155.062 388.318C150.938 391.769 145.08 393.193 139.397 392.125Z" fill="#2F2F2F"/>
<path d="M196.891 510.363C190.347 508.703 184.884 503.29 183.19 496.787C182.582 494.451 182.597 489.924 183.222 487.502C184.796 481.403 189.591 476.388 195.884 474.263C198.562 473.359 204.099 473.438 207.109 474.424C215.831 477.281 221.238 486.294 219.701 495.41C219.177 498.512 217.095 502.639 214.9 504.924C212.754 507.157 209.799 509.063 207.185 509.9C204.585 510.732 199.287 510.97 196.891 510.363ZM257.54 510.335C254.225 509.496 251.682 508.011 248.951 505.318C245.113 501.535 243.362 497.398 243.384 492.16C243.407 486.917 245.12 482.807 248.844 479.075C252.579 475.331 256.984 473.511 262.282 473.523C270.137 473.542 277.517 479.109 279.924 486.834C280.872 489.874 280.873 494.435 279.928 497.486C278.154 503.212 273.576 507.945 267.942 509.878C265.337 510.772 260.165 510.999 257.54 510.335ZM196.26 450.324C192.846 449.43 190.404 448.003 187.709 445.329C181.793 439.458 180.523 431.444 184.295 423.791C186.378 419.565 190.178 416.231 194.808 414.567C197.395 413.637 202.518 413.416 205.286 414.114C210.781 415.499 215.235 419.125 217.64 424.171C219.016 427.057 219.481 429.199 219.455 432.528C219.415 437.569 217.677 441.689 214.049 445.345C209.273 450.156 202.672 452.004 196.26 450.324ZM258.543 450.762C254.855 450.047 250.974 448.007 248.393 445.426C241.049 438.082 241.092 426.302 248.49 419.001C252.089 415.449 256.428 413.675 261.519 413.675C266.77 413.675 270.832 415.334 274.56 419.002C278.324 422.704 280.16 427.002 280.16 432.112C280.16 435.485 279.714 437.463 278.275 440.462C275.284 446.7 269.309 450.575 262.317 450.812C260.672 450.868 258.974 450.844 258.543 450.762ZM196.546 390.164C188.467 388.048 182.725 380.614 182.725 372.27C182.725 367.037 184.53 362.652 188.193 358.99C191.855 355.328 196.24 353.522 201.472 353.522C213.565 353.522 222.405 365.041 219.382 376.86C216.838 386.806 206.568 392.789 196.546 390.164ZM258.386 390.504C251.431 389.002 245.761 383.609 243.962 376.785C243.345 374.446 243.354 369.849 243.98 367.475C245.707 360.922 251.247 355.506 257.796 353.966C260.584 353.311 265.108 353.515 267.965 354.424C274.921 356.639 280.166 363.44 280.678 370.911C281.25 379.252 275.956 387.137 267.943 389.88C265.692 390.651 260.605 390.983 258.386 390.504Z" fill="#2F2F2F"/>
</svg>
