<svg id="Grupo_2" data-name="Grupo 2" xmlns="http://www.w3.org/2000/svg" width="96.496" height="95.577" viewBox="0 0 96.496 95.577">
  <path id="Trazado_87" data-name="Trazado 87" d="M48.248,0C74.894,0,96.5,21.4,96.5,47.788s-21.6,47.788-48.248,47.788S0,74.181,0,47.788,21.6,0,48.248,0Z" fill="#25262b"/>
  <path id="Icon_simple-adobecreativecloud" data-name="Icon simple-adobecreativecloud" d="M50.254,22.505v1.681c-.017.092-.036.182-.046.272-.084.733-.14,1.468-.26,2.194a18.139,18.139,0,0,1-2.462,6.583,18.527,18.527,0,0,1-7.632,7.035,17.635,17.635,0,0,1-5.888,1.765c-.454.054-.911.1-1.365.153H14.946c-.09-.017-.178-.042-.268-.05a14.85,14.85,0,0,1-5.126-1.252,15.753,15.753,0,0,1-7.938-7.672A15.281,15.281,0,0,1,.149,28.253L0,26.993V25.359a2.388,2.388,0,0,0,.048-.272,15.256,15.256,0,0,1,.965-4.554,15.819,15.819,0,0,1,7.827-8.75,15.133,15.133,0,0,1,6.131-1.612,16.747,16.747,0,0,1,3.147.149.394.394,0,0,0,.3-.1,18.632,18.632,0,0,1,5.147-3.79,17.784,17.784,0,0,1,5.915-1.776c.49-.057.978-.1,1.466-.155h1.508c.1.015.2.034.293.044.748.09,1.5.147,2.236.272A17.526,17.526,0,0,1,41.415,7.3a18.615,18.615,0,0,1,6.95,7.775A18.343,18.343,0,0,1,50.1,21.067c.054.479.1.959.151,1.439m-28.1-10.888c.031.042.04.061.052.067A20.168,20.168,0,0,1,25.158,13.5a.311.311,0,0,0,.276-.021,11.471,11.471,0,0,1,15.426,2.7,11.291,11.291,0,0,1,2.274,9.088,11.757,11.757,0,0,1-2.785,5.991,11.131,11.131,0,0,1-10.3,3.838,10.814,10.814,0,0,1-6.462-3.275c-2.3-2.362-4.615-4.707-6.92-7.063a1.866,1.866,0,0,0-1.091-.622,1.73,1.73,0,0,0-1.809,1.005,1.643,1.643,0,0,0,.387,1.985c2.569,2.567,5.117,5.155,7.685,7.726a12.616,12.616,0,0,0,1.411,1.219,13.367,13.367,0,0,0,6.282,2.458A14.906,14.906,0,0,0,43.26,33.088a15.1,15.1,0,0,0,3.3-7.685,15.313,15.313,0,0,0-.136-4.942,14.8,14.8,0,0,0-3.392-7.071A14.636,14.636,0,0,0,30.313,8.183a13.954,13.954,0,0,0-5.53,1.654,14.578,14.578,0,0,0-2.628,1.78M20.914,38.61l-.209-.2C19.655,37.4,18.6,36.4,17.559,35.379a.844.844,0,0,0-.67-.287,12.55,12.55,0,0,1-3.141-.209A9,9,0,0,1,7.5,22.989a8.858,8.858,0,0,1,9.735-5.62A8.474,8.474,0,0,1,22,19.875c1.612,1.692,3.271,3.333,4.9,5.007a1.45,1.45,0,0,0,1.309.482,1.649,1.649,0,0,0,1.43-1.08,1.617,1.617,0,0,0-.362-1.767c-1.709-1.759-3.377-3.564-5.155-5.249a11.533,11.533,0,0,0-12.011-2.852,12.423,12.423,0,0,0,3.71,24.21h4.814c.08,0,.159-.008.281-.015" transform="translate(22.975 23.989)" fill="#fd5658"/>
</svg>
