<svg id="Grupo_18" data-name="Grupo 18" xmlns="http://www.w3.org/2000/svg" width="96.496" height="95.577" viewBox="0 0 96.496 95.577">
  <path id="Trazado_87" data-name="Trazado 87" d="M48.248,0C74.894,0,96.5,21.4,96.5,47.788s-21.6,47.788-48.248,47.788S0,74.181,0,47.788,21.6,0,48.248,0Z" fill="#25262b"/>
  <path id="Icon_simple-visualstudiocode" data-name="Icon simple-visualstudiocode" d="M43.132,4.8,33.928.369a2.784,2.784,0,0,0-3.177.54L13.126,16.988,5.45,11.16a1.861,1.861,0,0,0-2.377.106L.609,13.506a1.863,1.863,0,0,0,0,2.756l6.657,6.074L.608,28.409a1.863,1.863,0,0,0,0,2.756L3.074,33.4a1.861,1.861,0,0,0,2.377.106l7.676-5.828L30.753,43.76a2.78,2.78,0,0,0,3.175.54l9.208-4.429a2.8,2.8,0,0,0,1.58-2.519V7.316A2.8,2.8,0,0,0,43.132,4.8ZM33.544,32.486,20.171,22.335l13.374-10.15v20.3Z" transform="translate(21.138 25.639)" fill="#00d8ff"/>
</svg>
