<svg width="70" height="70" viewBox="0 0 70 70" fill="none" xmlns="http://www.w3.org/2000/svg">
<path d="M0 0V70H70V0H0ZM37.0272 59.647C36.4842 60.6693 35.7327 61.5663 34.8214 62.2801C33.9101 62.9939 32.8592 63.5086 31.7366 63.791C28.5812 64.6216 25.2274 64.2086 22.3678 62.6374C20.6865 61.5588 19.3464 60.0245 18.5038 58.2134L23.835 54.9486C23.9802 55.1347 24.1055 55.3355 24.2088 55.5478C24.729 56.62 25.5761 57.4994 26.628 58.0594C27.7606 58.4458 30.2456 58.6922 31.206 56.7C31.7926 55.6864 31.6064 52.4286 31.6064 48.8236C31.6064 43.1592 31.6316 37.5186 31.6316 31.9186H38.1892C38.1892 38.0786 38.2228 43.9124 38.1892 49.924C38.2032 53.6088 38.5224 56.8932 37.03 59.6456L37.0272 59.647ZM64.2292 57.7948C61.95 65.5914 49.2492 65.8448 44.1644 60.6928C43.1918 59.7547 42.3869 58.6571 41.7844 57.4476C44.4836 55.895 44.4836 55.895 47.1044 54.376C47.616 55.3628 48.3402 56.2238 49.2248 56.8969C50.1095 57.5699 51.1324 58.0382 52.22 58.268C55.44 58.6614 58.6768 57.5554 57.9516 54.1366C57.2054 51.345 51.3604 50.6646 47.383 47.6798C46.4001 46.9427 45.5752 46.0158 44.9573 44.954C44.3393 43.8922 43.9408 42.7171 43.7854 41.4985C43.6301 40.2798 43.721 39.0423 44.0528 37.8594C44.3846 36.6765 44.9505 35.5723 45.717 34.6122C47.0243 33.1361 48.764 32.1102 50.6884 31.6806L52.7534 31.4132C56.7182 31.3334 59.1934 32.3806 61.0134 34.412C61.6589 35.1045 62.2274 35.8649 62.7088 36.68C60.5962 38.0268 60.6088 38.0128 57.5778 39.9728C57.3092 39.3598 56.9174 38.8086 56.4269 38.3535C55.9363 37.8983 55.3573 37.5488 54.726 37.3268C52.9662 36.7934 50.7472 37.373 50.288 39.2322C50.1311 39.9143 50.1754 40.6272 50.4154 41.2846C51.128 42.91 53.5206 43.617 55.6668 44.6026C61.8436 47.1086 63.9268 49.7938 64.4434 52.9914C64.7806 54.5852 64.7074 56.2385 64.2306 57.7962L64.2292 57.7948Z" fill="#373737"/>
</svg>
