<svg width="70" height="70" viewBox="0 0 70 70" fill="none" xmlns="http://www.w3.org/2000/svg">
<path d="M35 0C28.0777 0 21.3108 2.05271 15.5551 5.89856C9.79934 9.74441 5.3133 15.2107 2.66423 21.6061C0.0151649 28.0015 -0.677952 35.0388 0.672531 41.8282C2.02301 48.6175 5.35644 54.8539 10.2513 59.7487C15.1461 64.6436 21.3825 67.977 28.1718 69.3275C34.9612 70.678 41.9985 69.9848 48.3939 67.3358C54.7893 64.6867 60.2556 60.2007 64.1014 54.4449C67.9473 48.6892 70 41.9223 70 35C69.9915 25.72 66.3013 16.8226 59.7393 10.2607C53.1774 3.69875 44.28 0.0085258 35 0ZM52.8822 62.5632L26.4684 22.8592H22.75V50.26H26.4684V30.24L50.6408 63.875C43.129 67.8804 34.3461 68.7807 26.1779 66.3827C18.0097 63.9847 11.1074 58.4795 6.95284 51.0491C2.79833 43.6188 1.72288 34.8556 3.95739 26.6412C6.19191 18.4267 11.5582 11.4159 18.9042 7.11389C26.2502 2.8119 34.9901 1.56177 43.2475 3.63189C51.5049 5.70201 58.6215 10.9273 63.0692 18.186C67.517 25.4446 68.9413 34.1579 67.0364 42.455C65.1315 50.752 60.0506 57.9715 52.8822 62.5632Z" fill="#373737"/>
<path d="M42.9545 40.0456L46.9318 46.1364V23.0682H42.9545V40.0456Z" fill="#373737"/>
</svg>
