<svg width="63" height="70" viewBox="0 0 63 70" fill="none" xmlns="http://www.w3.org/2000/svg">
<path d="M31.0556 70C30.1106 69.9944 29.182 69.7513 28.3555 69.293L19.8042 64.2124C18.5178 63.5055 19.1617 63.2479 19.5466 63.1191C20.9055 62.7185 22.2034 62.1345 23.4044 61.3831C23.5062 61.3305 23.6212 61.3085 23.7352 61.32C23.8493 61.3314 23.9575 61.3757 24.0469 61.4475L30.6049 65.3674C30.7235 65.4309 30.856 65.4641 30.9905 65.4641C31.1251 65.4641 31.2576 65.4309 31.3762 65.3674L57.0329 50.515C57.1587 50.4471 57.2622 50.3442 57.3308 50.2187C57.3994 50.0932 57.4301 49.9506 57.4192 49.808V20.1604C57.4301 20.0178 57.3994 19.8751 57.3308 19.7496C57.2622 19.6241 57.1587 19.5212 57.0329 19.4534L31.3776 4.66252C31.259 4.59904 31.1265 4.56583 30.9919 4.56583C30.8574 4.56583 30.7249 4.59904 30.6063 4.66252L4.95104 19.4604C4.83032 19.534 4.73107 19.6381 4.66326 19.7622C4.59545 19.8863 4.56146 20.026 4.5647 20.1674V49.8066C4.56146 49.9479 4.59545 50.0877 4.66326 50.2118C4.73107 50.3359 4.83032 50.4399 4.95104 50.5136L11.9598 54.5651C15.7532 56.4943 18.1328 54.2431 18.1328 51.9933V22.7336C18.1357 22.5299 18.2179 22.3354 18.3619 22.1913C18.5059 22.0473 18.7004 21.9651 18.9041 21.9622H22.1838C22.3875 21.9651 22.582 22.0473 22.726 22.1913C22.87 22.3354 22.9522 22.5299 22.9551 22.7336V51.9933C22.9551 57.0739 20.1905 60.0321 15.3682 60.0321C13.2842 60.0661 11.2331 59.5088 9.45275 58.4249L2.70019 54.5665C1.87839 54.0889 1.19644 53.4038 0.722568 52.5797C0.248697 51.7557 -0.000470531 50.8216 6.67069e-07 49.871V20.2248C-0.000225368 19.2744 0.249058 18.3406 0.722917 17.5168C1.19678 16.6931 1.8786 16.0082 2.70019 15.5306L28.3555 0.675355C29.1867 0.231942 30.1143 0 31.0563 0C31.9984 0 32.926 0.231942 33.7572 0.675355L59.4125 15.5306C60.2341 16.0082 60.9159 16.6931 61.3898 17.5168C61.8636 18.3406 62.1129 19.2744 62.1127 20.2248V49.871C62.1129 50.8213 61.8636 51.7551 61.3898 52.5789C60.9159 53.4027 60.2341 54.0876 59.4125 54.5651L33.7572 69.4218C32.9078 69.8036 31.9869 70.0007 31.0556 70ZM38.9644 49.6148C27.7116 49.6148 25.3977 44.4698 25.3977 40.0948C25.4006 39.8912 25.4828 39.6966 25.6268 39.5526C25.7708 39.4085 25.9653 39.3263 26.169 39.3234H29.5131C29.6021 39.3172 29.6915 39.329 29.7759 39.3583C29.8602 39.3875 29.9378 39.4336 30.0039 39.4936C30.0699 39.5537 30.1231 39.6265 30.1603 39.7077C30.1974 39.7889 30.2177 39.8768 30.22 39.966C30.7337 43.375 32.2133 45.0466 39.0288 45.0466C44.4306 45.0466 46.7444 43.8244 46.7444 40.9306C46.7444 39.259 46.1019 38.0369 37.678 37.2011C30.6693 36.4941 26.2978 34.9499 26.2978 29.3611C26.2978 24.1518 30.6707 21.0648 38 21.0648C46.2307 21.0648 50.2817 23.8942 50.7954 30.0681C50.7904 30.2758 50.7231 30.4773 50.6022 30.6463C50.4692 30.7933 50.2859 30.8852 50.0885 30.9039H46.7458C46.5809 30.8983 46.4225 30.8387 46.2948 30.7342C46.1671 30.6297 46.0772 30.4862 46.0389 30.3257C45.2677 26.7893 43.2744 25.6316 38.0014 25.6316C32.0859 25.6316 31.379 27.6895 31.379 29.2323C31.379 31.0971 32.2189 31.6767 40.1878 32.7043C48.0966 33.7333 51.8256 35.2117 51.8256 40.743C51.7613 46.4018 47.1322 49.6176 38.9658 49.6176L38.9644 49.6148Z" fill="#373737"/>
</svg>
