<svg width="70" height="70" viewBox="0 0 70 70" fill="none" xmlns="http://www.w3.org/2000/svg">
<path d="M67.6831 25.8188H12.2305V66.8052H67.6831V25.8188Z" fill="white"/>
<path d="M0 35V70H70V0H0V35ZM56.4116 32.2112C58.0877 32.6004 59.6111 33.4772 60.7894 34.7312C61.4381 35.407 62.0023 36.1592 62.4694 36.9712C62.4918 37.0608 59.4468 39.1048 57.603 40.25C57.5358 40.2948 57.2698 40.005 56.9702 39.5612C56.634 38.9804 56.156 38.4944 55.5809 38.1487C55.0057 37.8029 54.3522 37.6088 53.6816 37.5844C51.5592 37.4444 50.1928 38.5504 50.204 40.4068C50.1855 40.8629 50.2889 41.3157 50.5036 41.7186C50.9698 42.6846 51.8364 43.2586 54.5636 44.4402C59.5742 46.5962 61.719 48.0186 63.0518 50.0402C63.8019 51.3183 64.2632 52.745 64.4035 54.2203C64.5438 55.6956 64.3596 57.1837 63.8638 58.5802C62.7522 61.4908 59.997 63.469 56.119 64.1242C54.3461 64.3274 52.5547 64.3086 50.7864 64.0682C48.0767 63.6232 45.5805 62.3226 43.6632 60.3568C42.9403 59.5412 42.3283 58.6336 41.8432 57.6576C42.0477 57.505 42.2629 57.3675 42.4872 57.246C42.798 57.0682 43.9768 56.3906 45.087 55.7452L47.0974 54.579L47.5174 55.2006C48.2276 56.216 49.1316 57.081 50.1774 57.7458C51.2332 58.3247 52.4291 58.5991 53.6317 58.5383C54.8343 58.4775 55.9964 58.0839 56.9884 57.4014C57.497 56.9028 57.8144 56.2416 57.8856 55.5329C57.9567 54.8243 57.7769 54.1131 57.3776 53.5234C56.833 52.745 55.7228 52.0898 52.5672 50.7234C48.9566 49.168 47.4012 48.2034 45.9788 46.6634C45.0903 45.651 44.4342 44.4564 44.0566 43.1634C43.7775 41.6908 43.7364 40.183 43.9348 38.6974C44.3038 36.9885 45.1891 35.4342 46.4707 34.245C47.7522 33.0558 49.3683 32.2892 51.1 32.0488C52.8686 31.8356 54.6593 31.8904 56.4116 32.2112ZM39.9784 35.1288L40.0008 37.996H30.8896V63.889H24.4496V38.0002H15.3328V35.189C15.3081 34.2251 15.3343 33.2606 15.4112 32.2994C15.4448 32.2546 20.9888 32.2322 27.7116 32.2434L39.9448 32.277L39.9784 35.1288Z" fill="#373737"/>
</svg>
