<svg xmlns="http://www.w3.org/2000/svg" width="50" height="50" viewBox="0 0 50 50">
  <path id="bootstrap-plain" d="M30.88,27.441a15.022,15.022,0,0,0-4.032-.241H19.8v9.2h7.538a13.4,13.4,0,0,0,2.481-.214,5.951,5.951,0,0,0,2.106-.793,4.061,4.061,0,0,0,1.391-1.552,4.839,4.839,0,0,0,.545-2.332,4.256,4.256,0,0,0-.79-2.574,4,4,0,0,0-2.19-1.493Zm-.968-4.206a3.9,3.9,0,0,0,2.1-1.395,3.985,3.985,0,0,0,.705-2.418A4.453,4.453,0,0,0,32.055,17a3.031,3.031,0,0,0-1.88-1.222,18.442,18.442,0,0,0-4.192-.178H19.8v8h6.635a12.839,12.839,0,0,0,3.478-.365ZM51,8.65A6.65,6.65,0,0,0,44.35,2H7.65A6.65,6.65,0,0,0,1,8.65v36.7A6.65,6.65,0,0,0,7.65,52h36.7A6.65,6.65,0,0,0,51,45.35ZM36.821,35.1A6.966,6.966,0,0,1,34.8,37.664a8.491,8.491,0,0,1-3.018,1.419,18.055,18.055,0,0,1-4.445.517H16.2V12H27.168a12.866,12.866,0,0,1,5.066.8,6.483,6.483,0,0,1,2.99,2.558A6.761,6.761,0,0,1,36.3,18.987a6.238,6.238,0,0,1-.959,3.323,6.84,6.84,0,0,1-2.895,2.517,7.2,7.2,0,0,1,3.844,2.5A6.7,6.7,0,0,1,37.639,31.5a8.044,8.044,0,0,1-.818,3.6Z" transform="translate(-1 -2)" fill="#5b4282"/>
</svg>
