<svg xmlns="http://www.w3.org/2000/svg" width="40.69" height="50" viewBox="0 0 40.69 50">
  <g id="layer101" transform="translate(-12.062 -0.178)">
    <path id="Trazado_52" data-name="Trazado 52" d="M34.282,50a11.4,11.4,0,0,0-1.745-.989,1.493,1.493,0,0,0-.406-.12c-.117-.014-.735-.134-1.378-.269-1.4-.3-3.571-.734-5-1a25.6,25.6,0,0,0-5.58-.371c-2.677-.032-2.981-.042-3.062-.113a.127.127,0,0,1,.032-.219c.071-.014,1.529-.173,2.871-.311.283-.032,1.017-.046,2.208-.042a18.853,18.853,0,0,1,2.843.116c.583.064,1.275.134,1.536.159a5.057,5.057,0,0,1,.537.074c.056.022.06.011.042-.092a.493.493,0,0,0-.1-.2,2.822,2.822,0,0,0-1.014-.449c-.244-.067-.855-.24-1.36-.389-1.822-.526-4.062-1.1-4.8-1.219-.441-.074-1.3-.18-1.483-.18-.056,0-.1.014-.089.032s.417.349.912.742.908.728.911.749c.025.063-.166.032-.41-.074-.134-.056-.456-.226-.717-.374A16.519,16.519,0,0,0,17.1,44.5c-.357-.131-.438-.2-.4-.367l.028-.1.7,0c.389,0,.954.021,1.254.039.7.046,1.816.138,1.978.163s1.78.325,1.978.364a.578.578,0,0,0,.184.018.7.7,0,0,0,0-.4,2.868,2.868,0,0,0-.374-.325c-.329-.254-.339-.265-.325-.385a1.94,1.94,0,0,1,.141-.406c.113-.247.124-.289.081-.353-.025-.039-.9-.7-1.932-1.459s-2.338-1.727-2.892-2.14-1.092-.809-1.194-.883c-.23-.166-.251-.208-.275-.5a.9.9,0,0,0-.237-.608,3.9,3.9,0,0,0-.738-.307,3.042,3.042,0,0,1-.706-.3,3.367,3.367,0,0,1-.032-1.3c.014-.254.007-.9-.022-1.519-.049-1.229-.1-2.889-.152-5.27a7.377,7.377,0,0,1,.018-1.78.506.506,0,0,0,.014-.41c-.021-.039-.156-.23-.3-.427a2.962,2.962,0,0,1-.286-.441,7.874,7.874,0,0,1,.131-.929,4.381,4.381,0,0,0,.12-.879,11.314,11.314,0,0,0-1.328-.23.3.3,0,0,1-.2-.081,1.006,1.006,0,0,1,0-.307c.018-.134.11-1.144.208-2.243.212-2.349.2-2.285.268-2.306.039-.018,2,.456,2.179.523.081.032.109-.042.2-.512a8.435,8.435,0,0,1,.318-1.159c.085-.226.081-.244-.166-.8-.106-.237-.3-.689-.441-1.01s-.261-.6-.275-.615-.081,0-.148.042c-.349.222-.385.222-.473-.021-.032-.092-.106-.268-.159-.392-.163-.356-.145-.406.208-.582.1-.05.184-.113.184-.138s-.152-.5-.336-1.049a57.029,57.029,0,0,1-1.745-6.177,2.33,2.33,0,0,1-.039-1.2A1.133,1.133,0,0,1,12.239,5a.819.819,0,0,1,.582.063c.322.159.459.36,1.526,2.232.438.763.809,1.381.83,1.374a12.484,12.484,0,0,0,.961-1.434A15.567,15.567,0,0,1,17.276,5.6c.4-.523.452-.572.735-.667l.222-.074.268.165a2.3,2.3,0,0,1,.357.27l.184.17.328-.089c.548-.152,1.851-.593,2.48-.841a22.251,22.251,0,0,0,2.07-.95,5.513,5.513,0,0,1,.713-.325c.279-.053.473.17.434.495a1.5,1.5,0,0,1-.251.622c-.1.145-1.148,1.134-1.713,1.617a2.919,2.919,0,0,0-.4.378,11.065,11.065,0,0,0,.59,1.932c.056.131.127.237.155.237s1.328-.8,2.9-1.776c4.578-2.854,5.146-3.2,5.224-3.2a.836.836,0,0,1,.364.4c0,.046-.565.417-4.133,2.727-.593.382-1.1.717-1.13.745s-.032.049.088.049a.749.749,0,0,1,.639.3,1.014,1.014,0,0,1,.378.759c-.007.322-.081.452-.452.781-.184.163-.6.583-.929.932a6.85,6.85,0,0,0-.915,1.13,19.584,19.584,0,0,0-1.176,2.1,10.373,10.373,0,0,1-1.222,2.19,5.235,5.235,0,0,1-1.378.883,2.643,2.643,0,0,0-.48.293.446.446,0,0,0-.063.272.865.865,0,0,1-.29.636c-.2.208-.272.385-.526,1.413-.219.876-.237.992-.163,1.053.025.021.653.19,1.4.378s1.384.353,1.42.374a.115.115,0,0,1,.067.092c0,.032-.089.367-.194.749-.272.975-.382,1.413-.53,2.123-.074.339-.148.646-.166.685-.032.06-.067.064-.409.039-.208-.011-.406-.032-.438-.039-.088-.025-.085.046.043.848.13.83.141.869.176.869a2.387,2.387,0,0,0,.226-.41,12.284,12.284,0,0,1,1.942-2.963c.5-.558,1.78-1.84,2.07-2.077a13.373,13.373,0,0,1,2.154-1.317c.088-.036.275-.134.417-.212a4.7,4.7,0,0,1,1.349-.452,9.062,9.062,0,0,1,3.062-.042,6.508,6.508,0,0,1,2.818,1.31,2.554,2.554,0,0,1,.812.837,2.451,2.451,0,0,0,.307.392c.039.028.148.014.382-.042a4.811,4.811,0,0,1,2.2,0,3.162,3.162,0,0,1,1.364.579A5.035,5.035,0,0,1,42.3,23.352,8.232,8.232,0,0,1,44,26.061c.063.191.123.314.134.282a7.643,7.643,0,0,0,.233-.734A6,6,0,0,0,44,24.952c-.2-.332-.374-.636-.389-.678s.049-.184.247-.495c.148-.23.318-.48.378-.554.106-.134.106-.138.049-.258-.032-.067-.074-.12-.1-.12a1.533,1.533,0,0,0-.247.106c-.251.127-.385.134-.484.028-.039-.046-.586-1.01-1.215-2.144a13.265,13.265,0,0,1-1.1-2.119,12.672,12.672,0,0,1,2.006-.66,5.451,5.451,0,0,0,.837-.289c.06-.06.053-.1-.169-.855-.35-1.2-.283-1.074-.664-1.25s-.515-.318-.6-.622a.668.668,0,0,0-.1-.237,4.992,4.992,0,0,0-.834-.293c-.2-.06-.508-.173-.689-.251a10.278,10.278,0,0,1-2.275-1.438,2.253,2.253,0,0,0-.865-.533,20.577,20.577,0,0,0-2.656-.922,4.646,4.646,0,0,1-.519-.163c-.222-.113-.254-.293-.127-.721a.811.811,0,0,1,.222-.41c.18-.18.3-.219,1.218-.424a10.553,10.553,0,0,1,1.935-.321c.5-.025.491-.021.322-.325A5.855,5.855,0,0,0,37,7.695a17.346,17.346,0,0,0-2.486-2.1c-.4-.282-.558-.452-.625-.682a.722.722,0,0,1,.392-.853,1.171,1.171,0,0,1,.639-.156c.463.009.64.107,1.992,1A11.475,11.475,0,0,0,38.5,5.922c.011-.007-.654-.671-1.476-1.476C35.14,2.595,35.274,2.736,35.14,2.471a1.107,1.107,0,0,1-.124-.593L35,1.51l.173-.173c.134-.134.2-.177.282-.177.177,0,.261-.1.289-.335A.631.631,0,0,1,36.218.2a5.492,5.492,0,0,1,1.423.134c.194.06,1.325.65,2.049,1.063A21.342,21.342,0,0,1,43.228,3.93c.226.212.3.265.275.2-.056-.191-.639-1.607-.911-2.207-.378-.844-.4-1.091-.127-1.487a.555.555,0,0,1,.59-.251,1.461,1.461,0,0,1,.925.477,20.935,20.935,0,0,1,1.978,3.214,15.3,15.3,0,0,1,1.787,6.241,4.361,4.361,0,0,1-.018,1.639.886.886,0,0,0-.06.417c.035.265.936,2.762,1.3,3.592.17.389.226.481.307.481.035,0,.738-.208,1.561-.463,1.988-.615,1.868-.579,1.914-.533s-.269,4.263-.329,4.4c-.046.1-.085.113-.823.381-.212.074-.4.145-.413.156a1.3,1.3,0,0,0,.258.343,14.291,14.291,0,0,1,.968,1.194c.067.131.042.212-.116.389-.141.156-.141.177.011.6a1.325,1.325,0,0,1,.071.706c-.011.244-.032.548-.042.678a2.227,2.227,0,0,0,.187.975,1.73,1.73,0,0,1-.039,1.145,11.651,11.651,0,0,1-.738,1.957c-.364.816-.47,1.07-.879,2.116a10.537,10.537,0,0,0-.805,2.794c-.078.445-.215,1.1-.3,1.462a11.323,11.323,0,0,0-.248,1.4,7.763,7.763,0,0,1-.261,1.508c-.035.1-.237.575-.441,1.049a6.91,6.91,0,0,0-.41,1.06c-.018.109-.049.5-.074.879a2.191,2.191,0,0,0,0,.724,3.226,3.226,0,0,0,.968-.145c.509-.1.936-.187.954-.183.085,0-.011.113-.247.289a8.735,8.735,0,0,0-1.215,1.105c-.827.893-1.056,1.109-1.056.975a7.964,7.964,0,0,1,.586-1.081c.113-.173.222-.339.24-.367.046-.074.018-.06-2.363.957-2.187.936-3.429,1.515-4.916,2.3-.632.332-.752.406-.752.473,0,.134.106,1.085.124,1.1s.512-.233,1.12-.534c1.374-.685,3.536-1.667,4.461-2.031.717-.279,3.3-1.138,3.624-1.208a3.214,3.214,0,0,1,.774-.1,5.365,5.365,0,0,1-.947.6c-.085.025-.134.053-.109.067s-.127.148-.371.332a5.368,5.368,0,0,0-.427.343.105.105,0,0,1-.078.032c-.046,0-.046-.011-.011-.053a.155.155,0,0,1,.092-.053c.028,0,.049-.014.049-.032a1,1,0,0,1,.187-.219c.106-.109.138-.156.078-.113a2.27,2.27,0,0,0-.233.208,1.821,1.821,0,0,1-.226.2c-.06.042-.081.074-.056.088s.018.049-.032.092c-.063.06-.081.06-.11.018s-.035-.046-.021,0-.053.123-.145.222-.145.166-.12.166.24-.039.477-.085.653-.113.926-.145c1.013-.113,1.183-.12,1.183-.06a4.214,4.214,0,0,1-.611.18,69.023,69.023,0,0,0-9.441,3.023,12.482,12.482,0,0,0-2.564,1.339c.007.032,0,.056-.025.056a3.556,3.556,0,0,0-.586.441,3,3,0,0,1-.371.268c-.127.078-.325.2-.441.279a1.174,1.174,0,0,1-.258.138.924.924,0,0,0-.177.071,1.147,1.147,0,0,1-.565.067c-.314,0-.424-.011-.406-.042a4.926,4.926,0,0,1,.6-.7,1.513,1.513,0,0,1,.523-.346,4.79,4.79,0,0,0,.473-.222c.212-.12,2.063-1.243,2.161-1.314.053-.035-.028-.078-.572-.3s-.646-.251-.7-.212a18.218,18.218,0,0,0-1.536,1.381c-.35.346-.788.759-.978.915-.346.282-.389.343-.389.551a.616.616,0,0,1-.035.2c-.028.081-.049.089-.2.085s-.194-.032-.349-.173Zm.8-1.6c.353-.321,1.01-.865,1.635-1.353a1.429,1.429,0,0,0,.35-.322,5.526,5.526,0,0,0-.558-.24c-.289-.116-.7-.286-.915-.374l-.385-.162-.2.074a1.127,1.127,0,0,1-.586.053c-.212-.011-.445-.032-.526-.042-.12-.018-.215.011-.6.173-.251.1-.865.339-1.363.519s-.912.339-.912.35a2.467,2.467,0,0,0,.463.156,17.1,17.1,0,0,1,2.946,1.342,1.2,1.2,0,0,0,.269.131,1.745,1.745,0,0,0,.388-.3ZM31.9,48.2c0-.028-.014-.053-.035-.053s-.035.025-.035.053.018.053.035.053S31.9,48.228,31.9,48.2Zm-.671-.318c-.244-.124-.533-.258-.646-.3-.194-.074-.208-.074-.356-.018-.325.124-.3.138.551.35.434.106.812.194.841.194A2.015,2.015,0,0,0,31.23,47.882Zm-2.19-.265a1.029,1.029,0,0,1,.272-.283,8.4,8.4,0,0,1,1.247-.777c.145-.064.48-.222.742-.353a6.547,6.547,0,0,1,1.448-.569c.184-.042.36-.085.389-.1.106-.035-.2-.081-.706-.1a5.106,5.106,0,0,0-1.112.06,5.067,5.067,0,0,1-1,.06c-.417-.021-.541-.056-.526-.156.007-.049.1-.085.413-.159a9.843,9.843,0,0,1,1.759-.314c.272-.014.3-.17.028-.173a5.572,5.572,0,0,1-1.169-.59,3.678,3.678,0,0,1-1.045-1.1,5.141,5.141,0,0,0-.689-.932c-.035-.018-.063.028-.106.177-.032.113-.131.4-.219.629a1.613,1.613,0,0,0-.166.689.929.929,0,0,0,.078.438c.141.314.127.353-.332.876l-.413.466.021.255a.7.7,0,0,0,.18.5c.049.039.056.148.056.689,0,.735.007.763.275.848.4.127.456.117.572-.085Zm10.617-.809a.9.9,0,0,0,.438-.5.689.689,0,0,0-.078-.558.843.843,0,0,1-.067-.625,1.675,1.675,0,0,1,.166-.367.989.989,0,0,0,.12-.237c0-.063-.774-1.964-.816-2.006s-.134.06-.413.452a6.774,6.774,0,0,1-.975,1.06,6.377,6.377,0,0,1-.675.385,3.6,3.6,0,0,0-.784.438,1.931,1.931,0,0,0,.346.035,6.645,6.645,0,0,1,2,.406c.328.137.427.215.473.378.049.191.046.431-.011.431-.025,0-.311-.089-.632-.194s-1.038-.3-1.586-.438c-1.254-.307-1.243-.307-1.3-.237a.229.229,0,0,0,.018.293c.039.028.562.208,1.162.406a9.231,9.231,0,0,1,2.045.834,1.211,1.211,0,0,0,.318.148.774.774,0,0,0,.254-.1ZM27.232,45.494c.11-.389.11-.385.311-.516.434-.282.494-.356.53-.625a3.894,3.894,0,0,0-.166-1.07c-.113-.378-.067-.572.247-1.1.286-.48.342-.657.254-.819a5.48,5.48,0,0,0-.526-.579,2.681,2.681,0,0,0-.9-.7c-.615-.325-.622-.328-.65-.254a3.533,3.533,0,0,1-.226.343,1.136,1.136,0,0,0-.187.311c.011.014-.018.042-.056.063s-.063.053-.053.074.007.032-.014.032-.043.028-.057.063a.2.2,0,0,1-.1.106.357.357,0,0,0-.138.155,6.273,6.273,0,0,1-.908,1c-.067,0-.06-.156.018-.6.032-.173.071-.41.092-.523s.05-.5.067-.869a6.376,6.376,0,0,0-.148-1.946l-.081-.261-.53-.261c-.293-.145-.537-.272-.548-.286a2.441,2.441,0,0,0-.2-.156,5.138,5.138,0,0,1-.505-.466c-.212-.226-.321-.318-.321-.272a.18.18,0,0,0,.046.11c.021.028.025.039,0,.028-.053-.032,0,.378.081.593a.565.565,0,0,0,.212.282c.17.124.187.18.067.237-.272.12-1.063-.515-1.565-1.261a2.013,2.013,0,0,1-.434-1.165c-.092-.572-.1-.608-.124-.83-.011-.106-.028-.219-.035-.247a6.5,6.5,0,0,1,0-1.854l.025-.141-.134.124a5.891,5.891,0,0,0-.707,1.024c-.1.166-.215.364-.268.445a6.047,6.047,0,0,0-.374.65,9.586,9.586,0,0,1-.575,1.13c-.043,0-.043.011,0-.763a3.243,3.243,0,0,1,.208-1.4c.078-.2.159-.441.18-.534a1.285,1.285,0,0,1,.092-.272,1.262,1.262,0,0,0,.085-.254,7.448,7.448,0,0,1,.452-1.19c.152-.321.371-.8.523-1.148a5.817,5.817,0,0,1,.834-1.473c.074-.1.074-.113.035-.389a7.916,7.916,0,0,0-.18-1.053.426.426,0,0,1-.028-.159c0-.078-.049-.364-.1-.636s-.134-.749-.184-1.06a3.315,3.315,0,0,0-.138-.611.711.711,0,0,0-.286-.078c-.134-.018-.29-.039-.35-.049s-.184-.028-.282-.042a1.2,1.2,0,0,1-.2-.035,6.688,6.688,0,0,0-.752-.106,2.584,2.584,0,0,1-.406-.06c-.049-.011-.152-.028-.23-.039-.466-.057-1.045-.134-1.165-.163-.078-.018-.251-.039-.389-.053s-.286-.032-.336-.039-.159-.021-.247-.035-.2-.025-.247-.035c-.124-.021-.53-.063-.636-.063-.078,0-.1.021-.145.191-.032.106-.1.4-.156.643-.106.5-.1.6.06.837.332.494.374.7.374,1.8,0,.477.025,1.374.057,2s.063,1.353.074,1.624.028.558.035.636.021.42.032.76c.028.71.05,1.063.078,1.3a.979.979,0,0,1-.018.307,2.982,2.982,0,0,0-.057.328c-.014.106-.028.215-.035.247a3.5,3.5,0,0,1-.127.611,1.614,1.614,0,0,0-.032.721l.046.162.4.191c.222.106.41.191.42.191a4.236,4.236,0,0,0,.554-.47c.212-.215.332-.279.42-.233s.081.134-.074.463a5.249,5.249,0,0,0-.233.611l-.1.318.222.329a1.992,1.992,0,0,0,.265.35c.025.007.053.053.063.1a1.981,1.981,0,0,0,.671.622c.17.116.318.212.325.212s.123.081.261.177a1.335,1.335,0,0,0,.293.177.4.4,0,0,1,.152.109,2,2,0,0,0,.332.251c.127.078.293.187.371.244s.2.145.265.191a2.786,2.786,0,0,1,.353.265c.032.028.219.173.42.318s.438.322.526.392l.392.282a3.56,3.56,0,0,1,.336.258,3.55,3.55,0,0,0,.357.261,2.6,2.6,0,0,1,.282.2,1.843,1.843,0,0,0,.23.173,3.006,3.006,0,0,1,.608.487.778.778,0,0,1,.067.59,3.88,3.88,0,0,0-.053.431.5.5,0,0,0,.156.477.724.724,0,0,1,.212.554c0,.4,0,.4.565.523.417.092.586.134.9.219.137.039.349.092.477.124a2.389,2.389,0,0,1,.3.081c.039.018.262.1.495.177s.494.173.582.208a.648.648,0,0,0,.194.06.9.9,0,0,0,.117-.307Zm8.025-.078c.2-.1.081-.449-.134-.4-.053.011-.353.032-.668.043-.607.021-.675.042-.629.187.032.1.134.148.406.2a2.972,2.972,0,0,0,1.024-.035Zm-1.324-.925c.039-.011.268-.049.512-.088a9.144,9.144,0,0,0,1.483-.336,5.321,5.321,0,0,0,3.161-2.193,13.194,13.194,0,0,0,.915-1.7,2.724,2.724,0,0,0,.23-.929,3.256,3.256,0,0,0-.357.127,2.6,2.6,0,0,1-.508.145c-.166.018-.194.011-.279-.074-.159-.159-.113-.226.23-.342a4.2,4.2,0,0,0,2.532-2.169,3.516,3.516,0,0,1,.251-.449.575.575,0,0,1,.307-.081,1.231,1.231,0,0,0,1.127-.593,3.923,3.923,0,0,0,.548-1.038c.215-.512.24-.731.088-.787A.737.737,0,0,0,43.68,34c-.053.039-.071.1-.078.268a1.205,1.205,0,0,1-.081.378.409.409,0,0,0-.053.18c.007.011-.011.039-.046.067s-.042.042-.007.028.046-.018,0,.025a.237.237,0,0,0-.063.1.332.332,0,0,1-.089.12.221.221,0,0,0-.074.089c.011.046-.081.145-.11.116s-.018-.007-.007.014-.039.1-.113.17l-.138.134-.025-.113a.968.968,0,0,1,.184-.692,1.157,1.157,0,0,0,.156-.364,1.065,1.065,0,0,0-.523-.615,1.352,1.352,0,0,0-.382-.071,5.316,5.316,0,0,1-1.49-.452,5.054,5.054,0,0,1-1.105-.608l-.583-.4a14.894,14.894,0,0,1-1.748-1.324,5.693,5.693,0,0,1-.975-1.328c-.064-.166-.1-.191-.138-.081-.014.039-.039.063-.056.053s-.021.007-.007.039.011.053-.018.036-.036,0-.018.035.011.053-.018.035-.035,0-.018.035.011.053-.018.035-.035,0-.018.035.011.053-.018.035-.035,0-.018.036.011.053-.025.032-.039-.014-.021.011c.032.053-.063.194-.1.156-.018-.014-.018,0,0,.021.032.053-.166.335-.208.3-.018-.014-.021-.007-.007.011.043.081-.431.565-.872.89a3.975,3.975,0,0,1-2.123.675l-.2-.011.258-.219c.141-.12.3-.254.346-.3s.2-.173.336-.282a3.159,3.159,0,0,0,.685-.7c-.007-.021-.1.014-.226.092-.325.194-1.3.692-1.678.851A8.6,8.6,0,0,1,30.613,32a37.328,37.328,0,0,1-3.832.353,3.422,3.422,0,0,0-1.219.162,7.4,7.4,0,0,0-2.66,1.307.6.6,0,0,0-.244.586,8.369,8.369,0,0,0,1.268,2.458.5.5,0,0,0,.385.254.022.022,0,0,1,.021.032c-.011.014.018.028.056.032a3.143,3.143,0,0,1,.795.12,2.058,2.058,0,0,1,.374.745c-.014.021-.007.028.014.014s.071.032.109.1a3,3,0,0,0,.194.272.493.493,0,0,1,.11.18c-.011.011.025.06.071.1s.089.071.089.056a6.381,6.381,0,0,1,.614.477c.022.021.23.156.463.3a6.053,6.053,0,0,1,1.077.837.717.717,0,0,0,.194.163,4.189,4.189,0,0,1,.593.636,4.152,4.152,0,0,0,.346.445c.194.23.438.544.54.693a1.131,1.131,0,0,0,.2.258c.018-.018.11.159.251.48a1.585,1.585,0,0,0,.586.66c.131.092.255.184.279.208a5.46,5.46,0,0,0,.512.276,2.51,2.51,0,0,0,1.067.314,8.422,8.422,0,0,0,1.06-.032Zm7.315-.2c.2-.085.41-.18.794-.36.145-.071.367-.166.495-.212.237-.092.611-.247.879-.367.088-.042.279-.123.424-.187s.378-.166.515-.233a1.711,1.711,0,0,1,.286-.12,3.28,3.28,0,0,0,.385-.163c.194-.088.431-.2.53-.247s.258-.11.353-.141a1.449,1.449,0,0,0,.261-.116,3.842,3.842,0,0,1,.671-.283,5.046,5.046,0,0,0,.731-.293c.032-.025.046-.163.046-.466,0-.233.018-.579.035-.763s.046-.519.056-.742a1.3,1.3,0,0,1,.12-.6c.053-.106.134-.282.176-.389s.212-.473.374-.812a3.839,3.839,0,0,0,.456-1.5c.011-.116.029-.244.036-.282s.025-.166.035-.283.025-.251.035-.3.032-.208.053-.353.042-.307.049-.356.025-.166.039-.265c.032-.237.212-1.138.318-1.572.021-.1.163-.752.212-.989.028-.127.088-.364.138-.526a1.587,1.587,0,0,0,.078-.318,7.1,7.1,0,0,1,.632-1.78,11.074,11.074,0,0,0,.456-1.067,2.087,2.087,0,0,1,.134-.265,4.827,4.827,0,0,0,.237-.516,3.941,3.941,0,0,1,.244-.519,3.445,3.445,0,0,0,.346-1.226c.007-.049.039-.17.067-.272a.649.649,0,0,0,.011-.48,8.614,8.614,0,0,0-1.667-.893c-.254-.081-.367-.166-.311-.237a.664.664,0,0,1,.689-.113c.067.028.131.042.141.032a2.117,2.117,0,0,1,.413.106c.219.071.41.127.427.127s.032-.032.032-.067a1.779,1.779,0,0,1,.056-.29.7.7,0,0,0-.152-.682.763.763,0,0,1-.162-.434c0-.025,0-.074.007-.113a.8.8,0,0,1,.127-.247,1.238,1.238,0,0,0,.124-.2A14.567,14.567,0,0,0,50.36,20.6a.528.528,0,0,0-.442.035c-.166.089-1.049.445-1.363.548-.265.085-.565.2-.749.282a.692.692,0,0,1-.134.053c-.028,0-1.332.48-1.907.7-.194.074-.413.156-.484.177-.191.063-.223.113-.173.3.081.332.063.406-.233.841-.148.219-.3.438-.336.484a.362.362,0,0,0-.063.187,3.154,3.154,0,0,0,.491.957,1.245,1.245,0,0,1,.208.389c.1.293.113.382.074.356s-.046.067-.042.191c0,.025,0,.039-.014.028-.046-.042-.148.163-.268.526-.265.819-.336,1.279-.222,1.494a8.636,8.636,0,0,1,.371,1.144,4.131,4.131,0,0,1,.215,1.138q0,.339.18.339a1.337,1.337,0,0,1,.286.085l.54.2a3.27,3.27,0,0,1,.505.233,1.78,1.78,0,0,0,.247.141,1.606,1.606,0,0,1,.251.184c.106.089.237.194.289.233a7.533,7.533,0,0,1,.819.957c.219.3.187.35-.141.2a4.785,4.785,0,0,0-1.565-.445c-.145-.007-.653-.025-1.13-.035-.795-.025-.858-.022-.795.032a11.417,11.417,0,0,1,1.572,1.413c.088.113.183.23.212.262a5.452,5.452,0,0,1,.431.657,10.408,10.408,0,0,1,.342,1.024,7.65,7.65,0,0,1,.2,1.194c.021.251.018.275-.035.265-.081-.014-.187-.222-.406-.78a2.114,2.114,0,0,0-.17-.336,3.108,3.108,0,0,1-.18-.311,4.03,4.03,0,0,0-.96-1.056c-.085-.053-.272-.177-.417-.272a1.036,1.036,0,0,0-.3-.159c-.046.014-.1.286-.081.42.007.053,0,.088-.011.081s-.035.089-.049.219-.053.385-.092.572a12.476,12.476,0,0,0-.106,2.447c.021.413.046.791.053.841s.039.29.067.541a4.1,4.1,0,0,0,.074.484,1.257,1.257,0,0,1,.032.261,1.073,1.073,0,0,0,.042.276c.014.025-.007.018-.042-.018a.218.218,0,0,1-.067-.124.058.058,0,0,0-.053-.06c-.028,0-.056-.014-.06-.028a1.728,1.728,0,0,0-.173-.212,1.93,1.93,0,0,1-.456-.767c-.046-.145-.106-.321-.134-.389a2.178,2.178,0,0,1-.092-.413c-.025-.159-.049-.325-.06-.371s-.028-.325-.039-.618a3.493,3.493,0,0,0-.043-.54.838.838,0,0,0-.071.275c-.025.148-.078.406-.116.572s-.074.339-.081.389-.025.145-.035.212a11.9,11.9,0,0,0,.007,1.907,9.478,9.478,0,0,0,.315,1.536c.042.067.049.1.021.131-.057.056-.2-.106-.431-.488-.1-.173-.248-.4-.318-.508a3.44,3.44,0,0,1-.272-.6c-.081-.222-.177-.484-.215-.583a1.978,1.978,0,0,1-.148-.632.7.7,0,0,0-.032-.2,1.872,1.872,0,0,1-.053-.311,2.294,2.294,0,0,0-.046-.318,4.98,4.98,0,0,1-.025-.572,2.534,2.534,0,0,0-.032-.509c-.014-.014-.063.011-.113.057-.1.1-.12.176-.025.1q.079-.069.011.011c-.025.035-.06.053-.078.046s-.13.148-.145.219c0,.018-.032.05-.067.074a.144.144,0,0,0-.067.1,2.649,2.649,0,0,1-.572.6.637.637,0,0,0-.18.23c-.039.17-.382,1.148-.456,1.3-.039.089-.134.311-.2.495s-.19.456-.261.6c-.141.293-.141.336,0,.689a6.932,6.932,0,0,1,.3,1.02.284.284,0,0,0,.049.145,4.163,4.163,0,0,1,.184.491,2.354,2.354,0,0,0,.212.512.586.586,0,0,1,.1.18c.025.081.078.137.127.141a1.224,1.224,0,0,0,.194-.074ZM25.519,40.1a3.576,3.576,0,0,0,.272-.632,1.265,1.265,0,0,0-.41-.445c-.067-.039-.187.032-.2.127-.011.042-.036.339-.057.66s-.049.643-.067.717c-.032.131-.032.131.081.131s.117-.018.385-.558Zm17.473-1.395a11.074,11.074,0,0,0,.2-1.176,1.355,1.355,0,0,1,.049-.314c.109-.29-.035-.374-.346-.208s-.335.212-.307.65c.021.353.141,1.3.184,1.48.018.074.028.063.106-.1a1.956,1.956,0,0,0,.117-.328ZM22.083,33.694a2.017,2.017,0,0,1,.858-1.021,4.256,4.256,0,0,1,1.967-.473c.283-.028.647-.067.812-.089s.791-.074,1.4-.123a25.52,25.52,0,0,0,3.143-.374,8.2,8.2,0,0,0,3.62-1.632,6.054,6.054,0,0,0,1.427-1.264,3.9,3.9,0,0,0,.953-1.854,1.464,1.464,0,0,0-.007-.812,4.5,4.5,0,0,0-1.441-1.621,4.993,4.993,0,0,0-2.539-.862,19.171,19.171,0,0,0-2.684.085A10.954,10.954,0,0,0,24.7,25.892a17.964,17.964,0,0,0-1.967,1.791A7.576,7.576,0,0,0,21.3,29.6c-.123.2-.318.509-.431.689a2.815,2.815,0,0,0-.427.862c-.032.12-.056.226-.056.24a3.887,3.887,0,0,0,.569-.427,5.072,5.072,0,0,1,1.321-.738,11.053,11.053,0,0,1,3.461-.777,19.084,19.084,0,0,0,2.9-.445,8.16,8.16,0,0,0,4.355-1.918c.233-.194.339-.269.367-.241a1.008,1.008,0,0,1,.021.385,1.093,1.093,0,0,1-.113.541,2.238,2.238,0,0,1-.53.664,11.392,11.392,0,0,1-2.37,1.243c-.279.113-1.367.477-1.678.565l-.318.089c-.089.028-.357.088-.6.141s-.734.155-1.095.233c-.993.219-1.243.275-1.8.392a5.131,5.131,0,0,0-2.43,1.042,2.4,2.4,0,0,0-.7,1.229,1.481,1.481,0,0,0,.127.689,1.9,1.9,0,0,0,.208-.36Zm21.566-.523c.215-.021.512-.056.653-.081l.261-.046-.4-.2a2.32,2.32,0,0,0-1.812-.268,2.743,2.743,0,0,1-1.031.032,3.472,3.472,0,0,0-.534-.025l-.318.011.48.244a1.618,1.618,0,0,0,.83.272c.191.018.463.046.6.063a6.594,6.594,0,0,0,1.275,0Zm-1.5-1.253a16.626,16.626,0,0,1,3.673-.018c.282.036.516.06.519.057a2.851,2.851,0,0,0-.7-.456,4.153,4.153,0,0,0-1.162-.219c-1.063-.141-2.169-.311-2.3-.357a1.964,1.964,0,0,0-.23-.053,3.842,3.842,0,0,1-1.628-.685c-.021-.018-.116-.1-.212-.176-.537-.438-1.988-1.72-2.48-2.19a3.9,3.9,0,0,1-.692-.872c-.081-.156-.2-.215-.279-.138a4.1,4.1,0,0,0-.258.816,2.805,2.805,0,0,0,.067,1.3,2.514,2.514,0,0,0,.819,1.084A6.734,6.734,0,0,0,39.106,31.2c.145.06.329.138.406.173a12.113,12.113,0,0,0,1.66.547,2.5,2.5,0,0,0,.971,0Zm-20.259-.241a5.893,5.893,0,0,1,2.335-1.06c.307-.06.473-.088,1.819-.328a20.46,20.46,0,0,0,2.734-.611c.021-.014.2-.1.41-.177.42-.173.459-.194.282-.166-.067.011-.473.078-.9.145s-.872.141-.989.159-.76.1-1.431.18-1.247.159-1.279.177a.453.453,0,0,1-.17.032,5.447,5.447,0,0,0-1.734.452c-.964.441-1.261.6-1.342.734a.936.936,0,0,0-.088.565c.032.081.173.039.353-.1Zm22.749-.893a.33.33,0,0,0,.141-.282c-.007-.035-.021-.11-.032-.159a1.285,1.285,0,0,0-.2-.318,3.906,3.906,0,0,1-.353-.583,4.1,4.1,0,0,0-.841-1.208A15.947,15.947,0,0,0,41,26.372c-.18-.078-.5-.183-1.229-.41a2.42,2.42,0,0,1-.367-.127,3.714,3.714,0,0,1,.568.13c.06.014.194.053.3.081a12.131,12.131,0,0,1,2.854,1.264.39.39,0,0,0,.357.035c.06-.039.071-.025-.392-.622l-.332-.424-.735-.449a7.446,7.446,0,0,1-1.293-.872,1.513,1.513,0,0,0-.742-.36,5.055,5.055,0,0,0-1.681-.173,5.111,5.111,0,0,0-.943.039.325.325,0,0,0-.166.261c0,.029-.018.053-.035.053s-.035.141-.032.4c0,.4-.021.59-.078.59a1.2,1.2,0,0,0,0,.548.408.408,0,0,1,.078.148c.046.148.138.261.138.18,0-.025.046.049.1.166a10.647,10.647,0,0,0,2.564,2.236c.138.1.364.265.509.371a4.887,4.887,0,0,0,.975.53c.078.032.4.152.707.272a6.518,6.518,0,0,0,2.507.544Zm-22.29-3.811c-.025.1-.021.1.043.049.035-.032.113-.1.169-.141.187-.152.488-.431,1.12-1.028a9.777,9.777,0,0,1,.83-.721c.311-.194.682-.434.879-.561a11.4,11.4,0,0,1,1.678-.823,6.555,6.555,0,0,1,1.978-.515c.282-.05.7-.124.918-.166a7.484,7.484,0,0,1,2.614.039A4.99,4.99,0,0,1,35.928,25.1c.3.36.364.406.445.357a3.5,3.5,0,0,0,.23-1.942,4.362,4.362,0,0,0-1.268-2.532,5.982,5.982,0,0,0-1.473-1.017,4.872,4.872,0,0,0-4.256-.311,7.191,7.191,0,0,0-1.749.629,15.093,15.093,0,0,0-1.677,1.2c-.011.011-.223.2-.477.424s-.512.466-.582.544c-.134.148-.735.918-.9,1.155-.056.085-.325.431-.6.77a7.464,7.464,0,0,0-1.59,2.741c-.025.1-.021.1.156-.071s.18-.173.156-.071Zm20.528-1.579c-.13-.141-.5-.6-.816-1.021a6.707,6.707,0,0,0-1.215-1.385c-.148-.12-.3-.244-.336-.279a4.421,4.421,0,0,0-.968-.4,3.389,3.389,0,0,1-.565-.233,2.7,2.7,0,0,0-.441-.191,2.444,2.444,0,0,0-.986.007l-.325.067a.379.379,0,0,0-.134.078c-.074.067-.074.13.007.558.018.1.046.452.056.788.021.508.035.625.089.689s.074.078,1.2.078a4.663,4.663,0,0,1,2.925.6c.322.162.7.371.83.459a4.286,4.286,0,0,0,.858.434c.028,0-.056-.113-.184-.251ZM21.722,23.872c.022-.025.141-.392.269-.819s.275-.929.332-1.113a1.757,1.757,0,0,0,.089-.378c-.021-.057-.18-.1-2.077-.593-.872-.226-2.751-.721-4.175-1.1s-2.617-.685-2.656-.685a.122.122,0,0,0-.092.036c-.011.021-.074.547-.141,1.176s-.145,1.388-.18,1.7c-.053.487-.057.565-.011.608s.975.18,3.3.5c1.787.244,3.67.505,4.185.579,1.077.156,1.109.156,1.158.1ZM45.241,21.76c.618-.215,2.31-.8,3.762-1.3s2.67-.929,2.709-.95c.145-.078.152-.124.286-1.911.039-.515.081-1,.092-1.067.018-.124.014-.134-.064-.134-.042,0-2.243.632-4.885,1.406-3.864,1.13-4.8,1.416-4.814,1.466a1.241,1.241,0,0,0,.159.371c.367.653,1.332,2.359,1.378,2.437a.166.166,0,0,0,.148.078c.056,0,.611-.176,1.229-.392ZM19.5,20.025a.156.156,0,0,0,.042-.1c0-.028.148-.551.332-1.155l.332-1.1.177-.177a1.156,1.156,0,0,0,.329-.763,1.79,1.79,0,0,1,.134-.632,1.74,1.74,0,0,1,.315-.187,5.3,5.3,0,0,0,1.49-1.1,5.031,5.031,0,0,0,.537-.6,19.8,19.8,0,0,1,1.6-2.808,11.78,11.78,0,0,1,1.533-1.939,5.148,5.148,0,0,0,.512-.586c.2-.4.166-.714-.1-.88-.215-.134-.325-.106-.805.219a12.394,12.394,0,0,1-1.971,1.031c-1.024.456-1.247.59-1.4.855a.688.688,0,0,1-.237.237,3.416,3.416,0,0,1-.946.321.808.808,0,0,0-.215.039c-.021.014-.526.325-1.12.7-1.512.943-2.317,1.445-3.214,2-.727.449-.834.515-1.006.625-.1.06-.262.163-.36.226-.131.081-.187.141-.187.191a18.018,18.018,0,0,0,1.024,2.144,1.518,1.518,0,0,1,.177.389.411.411,0,0,1-.089.191,4.07,4.07,0,0,0-.515,1.233c-.056.237-.12.491-.145.565-.028.092-.028.145,0,.17a1.708,1.708,0,0,0,.385.117c.675.159,3.069.766,3.14.8a.243.243,0,0,0,.258-.007Zm26.288-2.7c.417-.127,1.162-.35,1.653-.495s.929-.282.964-.3a.131.131,0,0,0,.064-.106c0-.138-.862-2.317-1.374-3.469a3.2,3.2,0,0,1-.215-.6,1.558,1.558,0,0,1,.1-.385,3.614,3.614,0,0,0,.2-1.759,6.679,6.679,0,0,0-.127-1.466c-.056-.289-.159-.734-.226-.985s-.163-.618-.212-.812a10.471,10.471,0,0,0-.893-2.25,19.778,19.778,0,0,0-1.441-2.575c-.159-.261-.322-.54-.36-.618a1.36,1.36,0,0,0-.827-.689c-.113,0-.24.18-.24.346a5.474,5.474,0,0,0,.3.809c.693,1.586.77,1.773.88,2.112a8.622,8.622,0,0,1,.318,1.378c.021.184.014.226-.049.3l-.071.089-.191-.212a.835.835,0,0,0-1.007-.332.385.385,0,0,1-.3,0c-.219-.078-.219-.173.011-.318.247-.159.279-.251.152-.438a3.774,3.774,0,0,0-1.123-1.1,23.881,23.881,0,0,0-3.8-2.26c-.71-.357-.83-.406-.986-.406-.226,0-.318.081-.318.279,0,.116.028.17.173.328a2.413,2.413,0,0,0,.717.484c.3.163.611.342.7.4.424.286,2.324,1.8,2.84,2.264a5.542,5.542,0,0,1,.939,1.045c0,.1-.152.191-.272.159a2.15,2.15,0,0,1-.452-.367c-.244-.24-.89-.749-2.112-1.667-.968-.727-1.89-1.413-2.049-1.526a4.13,4.13,0,0,0-1.014-.554c-.1,0-.272.183-.289.318-.039.251.219.6.812,1.105.459.392,3.807,4.1,3.945,4.369a.5.5,0,0,1,.046.24c-.018.23-.152.191-1.021-.311-.417-.237-.865-.5-1-.576-.42-.24-1.137-.692-1.657-1.042l-.78-.53a7.583,7.583,0,0,0-1.247-.643c-.106,0-.219.145-.219.279,0,.177.056.254.318.463.127.1.516.431.865.734s.89.777,1.2,1.049a11.763,11.763,0,0,1,1.928,2.02c.141.18.191.219.332.254.215.053.3.035.7-.17a2.082,2.082,0,0,1,1.151-.279c.3.011.336.018.336.078s-.092.124-.289.247c-.322.2-.738.47-1.141.731-.247.159-.279.173-.441.159a3.117,3.117,0,0,1-.371-.071,13.562,13.562,0,0,0-3.744.283.9.9,0,0,0-.42.2.457.457,0,0,0-.064.187c-.028.215.071.307.385.36.141.025.625.124,1.07.222s.926.194,1.06.219c.219.039.315.089.83.42.322.2.855.565,1.183.8a4.109,4.109,0,0,0,1.448.774c.975.23,1.222.286,1.395.325.417.089.526.191.791.738.194.4.265.466.463.456s.222-.007.282.113c.081.156.474,1.271.653,1.851.081.272.156.505.166.523.035.06.251.014.968-.208Zm-28.358-5.3c1.367-.77,2.571-1.445,2.677-1.5.374-.194.4-.145-.322-.618-.353-.233-.78-.53-.946-.66a1.091,1.091,0,0,0-.329-.212,1.911,1.911,0,0,0-.081.307c-.063.314-.113.392-.226.353a.7.7,0,0,1-.311-.424c.011-.039.1-.307.208-.6.159-.449.2-.53.265-.541s.17.074.424.318a6.8,6.8,0,0,0,1.759,1.271c.48.23.72.215,1.06-.057l.106-.085L21.645,9.4c-.056-.163-.194-.311-1.24-1.353a9.991,9.991,0,0,1-1.413-1.544c-.434-.671-.569-.794-.862-.78a.491.491,0,0,0-.442.314c-.046.092-.289.477-.537.858s-.558.865-.685,1.07-.322.523-.431.7a2.3,2.3,0,0,0-.427.872,2.32,2.32,0,0,0,.2.583c.237.551.311.819.233.869a.206.206,0,0,1-.092.032A12.976,12.976,0,0,1,14.535,8.6a19.637,19.637,0,0,0-1.257-2.221c-.272-.424-.311-.459-.427-.413s-.131.138-.021.784a41.281,41.281,0,0,0,1.543,5.375c.427,1.314.424,1.307.508,1.307.035,0,1.18-.629,2.547-1.4ZM22.34,9.271a5.377,5.377,0,0,0,.562-.357c.071-.056.056-.117-.244-.961-.332-.932-.4-1.088-.473-1.112-.1-.032-.385.124-.689.371a5.5,5.5,0,0,1-.452.336.645.645,0,0,0-.2.173,9.266,9.266,0,0,0,.6.728c.332.378.639.731.678.787C22.214,9.348,22.2,9.345,22.34,9.271ZM20.889,7.042a5.854,5.854,0,0,0,1.564-1.1c.449-.378.463-.389.795-.678.911-.795.953-.844.953-1.1,0-.159-.063-.275-.145-.275a1.287,1.287,0,0,0-.272.138c-.349.2-1.5.823-1.826.986-.262.13-2.063.862-2.356.957-.1.032-.124.056-.11.1a10.236,10.236,0,0,0,.929,1.172c.018,0,.226-.092.467-.2Z" transform="translate(0 0)" fill="#c6c6c6"/>
    <path id="Trazado_53" data-name="Trazado 53" d="M39.5,93.765l-.1-.115.115.1c.1.1.129.126.1.126a1.237,1.237,0,0,1-.115-.112Z" transform="translate(-16.63 -56.856)" fill="#c6c6c6"/>
    <path id="Trazado_54" data-name="Trazado 54" d="M61.26,105.549a1.01,1.01,0,0,1-.224-.521,3.478,3.478,0,0,1,.175-1.037,1.1,1.1,0,0,1,.454-.472,7.26,7.26,0,0,1,1.115-.377,4.463,4.463,0,0,1,1.39-.108,1.516,1.516,0,0,1,1.052.664c.063.108.063.108-.024.15s-.126.024-.325-.07a2.673,2.673,0,0,0-.982-.217l-.388-.039-.51.192a4.655,4.655,0,0,0-1.01.468,1.653,1.653,0,0,0-.37.7c-.171.646-.224.747-.353.671Z" transform="translate(-29.764 -62.449)" fill="#c6c6c6"/>
    <path id="Trazado_55" data-name="Trazado 55" d="M61.029,99.981a1.271,1.271,0,0,1-.283-.133.953.953,0,0,0-.622-.224,1.092,1.092,0,0,0-.587.147,2.306,2.306,0,0,1-.608.21,1.122,1.122,0,0,1-.776-.164c-.056-.052-.091-.108-.08-.122a2.149,2.149,0,0,1,.234-.2l.217-.168h.315a.967.967,0,0,0,.639-.175.889.889,0,0,1,.576-.171,1.625,1.625,0,0,1,.881.3c.381.245.573.248.866.021a.566.566,0,0,1,.262-.119,5.19,5.19,0,0,0,1.621-.3.745.745,0,0,1,.164-.067c.07,0,.283.363.283.479,0,.1-.021.126-.147.189a.5.5,0,0,1-.513.017c-.07-.063-.095-.066-.322-.028a8.269,8.269,0,0,0-1.279.405,1.065,1.065,0,0,1-.842.095Z" transform="translate(-27.952 -59.995)" fill="#c6c6c6"/>
    <path id="Trazado_56" data-name="Trazado 56" d="M55.192,89.239a1.852,1.852,0,0,1-.762-.559c-.363-.367-.479-.437-.783-.479-.1-.014-.178-.042-.178-.066a1.365,1.365,0,0,1,.377-.5,1.091,1.091,0,0,0,.251-.308c.081-.153.088-.206.084-.587a3.191,3.191,0,0,0-.3-1.412.8.8,0,0,0-.664-.545c-.1-.01-.632-.091-1.181-.175s-1.16-.171-1.363-.2a8.5,8.5,0,0,0-1.956.074c-.2.038-.381.07-.395.07-.115,0,.447-.591.856-.9l.2-.15.57.038c.926.063,1.778.154,2.854.3a6.093,6.093,0,0,0,.845.073c.339-.042.563-.227.895-.748.314-.489.367-.527.5-.391.063.063.07.1.056.255a2.358,2.358,0,0,1-.22.782,1.627,1.627,0,0,1-.43.566l-.314.308.1.133a2.576,2.576,0,0,1,.384.7,3.2,3.2,0,0,1,.14,1.844c-.164.455-.182.381.167.723.217.217.336.307.395.307.122,0,.266-.119.559-.472.461-.559.765-.783,1.055-.786a.3.3,0,0,1,.251.119c.147.147.129.2-.08.283-.227.088-.37.244-.723.8-.171.269-.356.549-.412.618a.847.847,0,0,1-.786.276Z" transform="translate(-22.004 -50.149)" fill="#c6c6c6"/>
    <path id="Trazado_57" data-name="Trazado 57" d="M41.794,89.2a1.142,1.142,0,0,1-.119-.21,1.084,1.084,0,0,0-.461-.482,1.272,1.272,0,0,1-.535-.527.774.774,0,0,1-.1-.447c0-.273.049-.384.21-.472.091-.049.1-.045.2.07a1.1,1.1,0,0,1,.258.524,1.227,1.227,0,0,0,.384.678.748.748,0,0,1,.262.657c0,.2-.024.255-.091.21Z" transform="translate(-17.34 -52.818)" fill="#c6c6c6"/>
    <path id="Trazado_58" data-name="Trazado 58" d="M72.53,86.095a1.733,1.733,0,0,1-.839-.262,1.266,1.266,0,0,0-.419-.1,1.407,1.407,0,0,1-.587-.182c-.322-.164-.423-.279-.423-.482a1.253,1.253,0,0,0-.035-.248c-.038-.139-.073-.157-.437-.258a1.957,1.957,0,0,1-.828-.479,1.756,1.756,0,0,1-.482-1.4c0-.36.042-.409.213-.248a.948.948,0,0,1,.272.556c.178.643.315.73,1.488.9.192.028.444.059.559.073s.258.028.315.035a14.971,14.971,0,0,0,1.918.021c.3-.025.58-.049.611-.056s.16-.021.286-.035c.213-.024.238-.017.307.056l.077.084-.185.084a15.872,15.872,0,0,1-1.74.559,2.972,2.972,0,0,1-1.363.038c-.538-.1-.577-.084-.451.147a1.371,1.371,0,0,0,.66.482,1.511,1.511,0,0,0,.671.066,5.219,5.219,0,0,0,1.531-.217c.087-.045.356-.185.6-.314a2.3,2.3,0,0,1,.541-.234c.094,0,.08.021-.248.342a11.134,11.134,0,0,1-1.2,1.024c-.175.115-.2.115-.811.049Z" transform="translate(-34.274 -49.951)" fill="#c6c6c6"/>
    <path id="Trazado_59" data-name="Trazado 59" d="M51.381,90.1a1.2,1.2,0,0,1-.311-.147,1.165,1.165,0,0,0-1.261-.276c-.074.021-.119,0-.224-.1-.133-.122-.136-.122-.07-.2a1.191,1.191,0,0,1,.35-.167,2.4,2.4,0,0,1,1.226-.031,5.576,5.576,0,0,0,1.74-.011c.269-.042.535-.073.591-.073a1.423,1.423,0,0,1,.7.213c.15.14.108.192-.189.22-.14.01-.29.028-.339.038s-.224.032-.388.049a1.193,1.193,0,0,0-.629.227,1.449,1.449,0,0,1-1.192.251Z" transform="translate(-22.736 -54.08)" fill="#c6c6c6"/>
    <path id="Trazado_60" data-name="Trazado 60" d="M17.426,53.573a.984.984,0,0,1-.164-1.52.816.816,0,0,1,.926,0,1.254,1.254,0,0,1,.255.594.963.963,0,0,1-.37.887.717.717,0,0,1-.646.038Z" transform="translate(-3.019 -31.46)" fill="#c6c6c6"/>
    <path id="Trazado_61" data-name="Trazado 61" d="M110.573,44.857a.616.616,0,0,1,.367-1.115.591.591,0,0,1,.405.171.831.831,0,0,1,.077.545.766.766,0,0,1-.339.423.594.594,0,0,1-.51-.024Z" transform="translate(-59.744 -26.495)" fill="#c6c6c6"/>
  </g>
</svg>
