<svg xmlns="http://www.w3.org/2000/svg" width="33.333" height="50" viewBox="0 0 33.333 50">
  <g id="figma-original" transform="translate(-24)">
    <path id="Trazado_79" data-name="Trazado 79" d="M32.333,102.667a8.321,8.321,0,0,0,8.333-8.333V86H32.333a8.333,8.333,0,0,0,0,16.667Zm0,0" transform="translate(0 -52.667)" fill="#0acf83"/>
    <path id="Trazado_80" data-name="Trazado 80" d="M24,51.333A8.321,8.321,0,0,1,32.333,43h8.333V59.667H32.333A8.321,8.321,0,0,1,24,51.333Zm0,0" transform="translate(0 -26.333)" fill="#a259ff"/>
    <path id="Trazado_81" data-name="Trazado 81" d="M24,8.333A8.321,8.321,0,0,1,32.333,0h8.333V16.667H32.333A8.321,8.321,0,0,1,24,8.333Zm0,0" fill="#f24e1e"/>
    <path id="Trazado_82" data-name="Trazado 82" d="M67,0h8.333a8.333,8.333,0,1,1,0,16.667H67Zm0,0" transform="translate(-26.333)" fill="#ff7262"/>
    <path id="Trazado_83" data-name="Trazado 83" d="M83.667,51.333A8.333,8.333,0,1,1,75.333,43,8.321,8.321,0,0,1,83.667,51.333Zm0,0" transform="translate(-26.333 -26.333)" fill="#1abcfe"/>
  </g>
</svg>
