<svg xmlns="http://www.w3.org/2000/svg" width="46.001" height="50" viewBox="0 0 46.001 50">
  <g id="graphql-plain" transform="translate(-8.236 -5.434)">
    <path id="Trazado_64" data-name="Trazado 64" d="M15.687,43.141l-1.9-1.1L34.929,5.434l1.9,1.1Zm0,0" transform="translate(-3.263)" fill="#e434aa"/>
    <path id="Trazado_65" data-name="Trazado 65" d="M12.734,87.105H55.01V89.3H12.734Zm0,0" transform="translate(-2.642 -47.984)" fill="#e434aa"/>
    <path id="Trazado_66" data-name="Trazado 66" d="M35.911,54.27,14.766,42.061l1.1-1.9,21.146,12.21Zm0,0M54.28,22.45,33.135,10.24l1.1-1.9L55.376,20.552Zm0,0" transform="translate(-3.836 -1.71)" fill="#e434aa"/>
    <path id="Trazado_67" data-name="Trazado 67" d="M15.873,22.43l-1.1-1.9L35.924,8.324l1.1,1.9Zm0,0" transform="translate(-3.843 -1.698)" fill="#e434aa"/>
    <path id="Trazado_68" data-name="Trazado 68" d="M55.086,43.141,33.948,6.53l1.9-1.1L56.984,42.045Zm0,0M16.8,17.381h2.191V41.8H16.8Zm0,0" transform="translate(-5.031)" fill="#e434aa"/>
    <path id="Trazado_69" data-name="Trazado 69" d="M105.887,34.4h2.191v24.42h-2.191Zm0,0" transform="translate(-57.373 -17.017)" fill="#e434aa"/>
    <path id="Trazado_70" data-name="Trazado 70" d="M63.766,99.953l-.957-1.658L81.2,87.676l.957,1.658Zm0,0" transform="translate(-32.063 -48.32)" fill="#e434aa"/>
    <path id="Trazado_71" data-name="Trazado 71" d="M53.608,55.232a4.609,4.609,0,1,1-1.688-6.3,4.613,4.613,0,0,1,1.688,6.3M16.838,34a4.61,4.61,0,1,1-1.69-6.3,4.615,4.615,0,0,1,1.69,6.3M8.866,55.232a4.609,4.609,0,1,1,6.295,1.69,4.617,4.617,0,0,1-6.295-1.69M45.636,34a4.61,4.61,0,1,1,6.3,1.69,4.619,4.619,0,0,1-6.3-1.69m-14.4,34.159" transform="translate(0 -12.72)" fill="#e434aa"/>
  </g>
</svg>
