<svg xmlns="http://www.w3.org/2000/svg" width="21.978" height="50" viewBox="0 0 21.978 50">
  <g id="plain" transform="translate(-36.943 -2.445)">
    <path id="Trazado_76" data-name="Trazado 76" d="M36.965,35.459c.356,3.749.71,7.478,1.071,11.29a22.167,22.167,0,0,1,1.659-2.781,8.053,8.053,0,0,1,2.176-1.9A1.981,1.981,0,0,1,44.7,43.129c.093.294-.13.689-.208,1.038-.262-.138-.6-.215-.772-.427-.728-.9-1.167-1.007-1.973-.229a9.184,9.184,0,0,0-2.67,5.317,3.591,3.591,0,0,0,.29,1.261,4.464,4.464,0,0,0,1.219-.44,5.807,5.807,0,0,0,2.116-3.2c.08-.283.514-.465.785-.694.13.267.426.582.364.793-.571,1.966-1.192,3.919-1.842,5.86-.066.2-.427.294-.651.438-.09-.258-.281-.529-.251-.772a13.912,13.912,0,0,1,.37-1.595l-2.94,1.354c.164,1.877.335,3.983.537,6.086.155,1.605.418,2.022,2,2.326a48.5,48.5,0,0,0,5.6.72,24.52,24.52,0,0,0,8.217-.773,1.879,1.879,0,0,0,1.476-1.916c.066-.908.213-1.81.315-2.715.2-1.783.394-3.567.6-5.425a9.312,9.312,0,0,1-1.832,1.112,4.1,4.1,0,0,1-1.545-.123,4.924,4.924,0,0,1,.323-1.417,17.16,17.16,0,0,1,1.366-1.833l-.2-.24a3.7,3.7,0,0,0-.98.6,8.968,8.968,0,0,0-1.271,1.836c-.538,1.111-.948,2.283-1.429,3.422-.209.494-.389,1.249-1.09.961-.749-.309-.222-.969-.047-1.439.28-.749.649-1.465.9-2.015-.709.084-1.428.186-2.15.249-.305.026-.668-.141-.918-.028-.831.375-1.357.225-1.53-.7a4.1,4.1,0,0,1-1.094.679,2.049,2.049,0,0,1-1.439-.049,1.518,1.518,0,0,1-.28-1.3,14.4,14.4,0,0,1,.862-2.38c.2-.481.409-1.25,1.1-.915s.063.887-.094,1.335c-.243.691-.491,1.381-.736,2.072l.39.236a5.623,5.623,0,0,0,1.094-.981c.426-.647.683-1.4,1.086-2.066.167-.275.526-.433.8-.643a3.912,3.912,0,0,1,.144,1.047,5.64,5.64,0,0,1-.4.992c-.173.506-.312,1.023-.488,1.612a1.268,1.268,0,0,0,1.419-.934c.742-1.947,1.491-3.891,2.306-5.808.139-.328.613-.513.932-.765.037.4.214.844.088,1.177-.668,1.766-1.418,3.5-2.123,5.253a6.688,6.688,0,0,0-.232.936,4.077,4.077,0,0,0,2.658-2.5c.093-.321.472-.559.719-.836l.575.609a5.259,5.259,0,0,1,.524-.437c.6-.385,1.24-.724,1.869-.128.651.616.158,1.216-.182,1.749-.37.581-.824,1.109-1.242,1.659.939-.605,2.221-.876,2.392-2.184.416-3.194.781-6.4,1.152-9.595.11-.947.169-1.9.255-2.888A45.1,45.1,0,0,1,36.965,35.459Z" transform="translate(-0.013 -19.606)" fill="#eb4a4b" fill-rule="evenodd"/>
    <path id="Trazado_77" data-name="Trazado 77" d="M44.781,96.828a14.255,14.255,0,0,1,1.039,2.847c.3,2.09.375,4.212.587,6.317a1.237,1.237,0,0,0,.477.862c3.647,1.982,7.33,2.326,11.051.158a1.515,1.515,0,0,0,.73-1.35c.348-2.916-.427-6.01,1.438-8.756A29.376,29.376,0,0,1,44.781,96.828Z" transform="translate(-4.655 -56.051)" fill="#eb4a4b" fill-rule="evenodd"/>
    <path id="Trazado_78" data-name="Trazado 78" d="M52.713,16.377c1.772-.171,3.521-.587,5.274-.93a3.764,3.764,0,0,0,.934-.481,2.065,2.065,0,0,0-1.132-.576c-1.84-.218-3.687-.385-5.525-.613a1.425,1.425,0,0,1-.753-.439c.537-1.616.51-3.446,1.727-4.809,1.539-1.722,3.094-3.429,4.636-5.137-1.148-1.234-1.163-1.236-2.2-.155-.588.611-1.126,1.279-1.763,1.832a11.5,11.5,0,0,0-4.343,7.665c-.074.733-.476,1-1.246,1.009-2.541.037-5.084.107-7.62.274a36.746,36.746,0,0,0-3.745.619q-.006.233-.012.467a22.527,22.527,0,0,0,2.345.71A47.028,47.028,0,0,0,52.713,16.377Zm-1.42-1.116c-1.006.812-1.837.812-2.64,0Z" transform="translate(0 0)" fill="#eb4a4b" fill-rule="evenodd"/>
  </g>
</svg>
