<svg xmlns="http://www.w3.org/2000/svg" width="50" height="50" viewBox="0 0 50 50">
  <path id="javascript-plain" d="M2,1V51H52V1ZM28.448,43.605a5.912,5.912,0,0,1-3.779,2.96,9.091,9.091,0,0,1-6.692-.824,7.526,7.526,0,0,1-2.76-3.16l3.808-2.332a2.41,2.41,0,0,1,.267.428,4.021,4.021,0,0,0,1.728,1.794c.809.276,2.584.452,3.27-.971.419-.724.286-3.051.286-5.626,0-4.046.018-8.075.018-12.075h4.684c0,4.4.024,8.567,0,12.861.01,2.632.238,4.978-.828,6.944Zm19.43-1.323c-1.628,5.569-10.7,5.75-14.332,2.07a8.463,8.463,0,0,1-1.7-2.318c1.928-1.109,1.928-1.109,3.8-2.194A5.365,5.365,0,0,0,39.3,42.62c2.3.281,4.612-.509,4.094-2.951-.533-1.994-4.708-2.48-7.549-4.612a6.555,6.555,0,0,1-1.19-9.334,6.691,6.691,0,0,1,3.551-2.094l1.475-.191c2.832-.057,4.6.691,5.9,2.142A9.348,9.348,0,0,1,46.792,27.2c-1.509.962-1.5.952-3.665,2.352a3.487,3.487,0,0,0-2.037-1.89c-1.257-.381-2.842.033-3.17,1.361a2.585,2.585,0,0,0,.091,1.466c.509,1.161,2.218,1.666,3.751,2.37,4.412,1.79,5.9,3.708,6.269,5.992a6.869,6.869,0,0,1-.152,3.432Z" transform="translate(-2 -1)" fill="#f0db4f"/>
</svg>
