<svg xmlns="http://www.w3.org/2000/svg" width="50.097" height="50" viewBox="0 0 50.097 50">
  <path id="Trazado_41" data-name="Trazado 41" d="M48.588,24.776a6.64,6.64,0,0,0-5.344-6.267L50.1.153H16.112l6.875,18.414a6.616,6.616,0,0,0-5.153,6.225,6.354,6.354,0,0,0,3.015,5.283,17.857,17.857,0,0,1-2.488,2.592A19.007,19.007,0,0,1,12.507,36.1,4.164,4.164,0,0,1,10.513,31a6.6,6.6,0,0,0,5.041-6.2c0-3.575-3.206-6.471-7.131-6.471-3.94,0-7.145,2.909-7.145,6.486a6.145,6.145,0,0,0,2.073,4.544c-.112.2-.224.405-.335.622a23.6,23.6,0,0,0-2.745,6.79c-.925,5.065.59,9.134,4.243,11.435a12.531,12.531,0,0,0,6.764,1.94c4.194,0,8.454-1.911,12.569-3.765A48.719,48.719,0,0,1,32.8,43.031c1.1-.246,2.249-.391,3.462-.55a21.046,21.046,0,0,0,7.273-1.853,9.418,9.418,0,0,0,5.009-6.442,8.785,8.785,0,0,0-1.022-5.979A6.008,6.008,0,0,0,48.588,24.776Zm-3.11,0a4.039,4.039,0,0,1-8.04,0,3.41,3.41,0,0,1,.526-1.809,4.146,4.146,0,0,1,.447-.579,3.323,3.323,0,0,1,.558-.477l.017-.015c.127-.087.27-.174.414-.26a.015.015,0,0,0,.015-.015c.064-.029.128-.072.193-.1.015,0,.031-.015.048-.015.064-.027.144-.056.223-.086s.159-.058.223-.087c.015,0,.032-.015.047-.015.064-.014.128-.043.191-.057.016,0,.049-.015.064-.015.079-.014.144-.029.223-.043h.017l.238-.045a.11.11,0,0,0,.064-.014c.064,0,.127-.015.191-.015h.079c.079,0,.16-.014.255-.014h.208a.753.753,0,0,1,.175.014h.032a3.605,3.605,0,0,1,.384.058A3.786,3.786,0,0,1,45.479,24.776ZM20.562,3.048H45.653L39.895,18.465a6.818,6.818,0,0,0-.717.188L33.116,7.434,27.039,18.58a6.338,6.338,0,0,0-.749-.159Zm11.4,20.469a6.3,6.3,0,0,0-2.153-3.474l3.3-6.05,3.333,6.18a6.39,6.39,0,0,0-1.994,3.344ZM23.976,21.23l.223-.044h.047c.064-.014.128-.014.191-.029H24.5c.064,0,.112-.014.176-.014H25.3c.063,0,.112.014.159.014a.145.145,0,0,1,.079.016c.064.014.112.014.176.029a.14.14,0,0,1,.064.014c.08.015.159.029.224.044h.015a.859.859,0,0,1,.191.057c.017,0,.032.015.064.015a.667.667,0,0,1,.159.058c.017,0,.032.014.049.014.063.029.127.045.191.074h.015a.807.807,0,0,1,.208.1h.015c.064.029.128.072.193.1.015,0,.015.016.031.016.064.027.112.072.176.1l.017.014c.191.13.367.275.541.42l.017.014a3.7,3.7,0,0,1,.447.521,3.407,3.407,0,0,1,.654,2,3.85,3.85,0,0,1-4.02,3.647,3.85,3.85,0,0,1-4.02-3.647A3.713,3.713,0,0,1,23.976,21.23Zm-15.7-.1a3.851,3.851,0,0,1,4.02,3.648,3.851,3.851,0,0,1-4.02,3.648,3.851,3.851,0,0,1-4.02-3.648A3.851,3.851,0,0,1,8.279,21.128Zm37.1,12.552a6.447,6.447,0,0,1-3.461,4.443A18.329,18.329,0,0,1,35.8,39.614c-1.228.159-2.52.333-3.764.608a51.071,51.071,0,0,0-9.6,3.575c-3.956,1.781-7.69,3.46-11.15,3.46a8.961,8.961,0,0,1-4.944-1.433C2.826,43.624,3,39.5,3.416,37.24a20.908,20.908,0,0,1,2.472-5.993c.063-.116.112-.217.174-.333a6.7,6.7,0,0,0,1.1.261c-.606,3.069,1.116,6.239,4.466,7.8l.607.289.653-.217a22.2,22.2,0,0,0,7.657-4.313,20.069,20.069,0,0,0,3.318-3.576,6.981,6.981,0,0,0,1.1.074,7.066,7.066,0,0,0,6.907-4.85h2.679a7.051,7.051,0,0,0,6.908,4.85,7.608,7.608,0,0,0,3.6-.9A5.989,5.989,0,0,1,45.382,33.68Z" transform="translate(-0.007 -0.153)" fill="#99425b"/>
</svg>
