<svg xmlns="http://www.w3.org/2000/svg" width="51.901" height="50" viewBox="0 0 51.901 50">
  <g id="Grupo_12" data-name="Grupo 12" transform="translate(-21.258 -1.311)">
    <path id="Trazado_14" data-name="Trazado 14" d="M37.364,51.04l.117.054c.069.031.138.062.207.1.265.12.532.239.8.354l.169.072q.464.194.935.371c.075.029.151.057.228.085.291.108.586.213.882.312l.111.036c.325.109.654.209.984.308.079.022.159.046.238.067a9.773,9.773,0,0,0,1.016.274C65.1,56.9,71.5,40.433,71.5,40.433c-5.378,6.683-14.926,8.446-23.972,6.483-.343-.074-.676-.176-1.01-.27l-.252-.072q-.489-.143-.972-.3l-.134-.046c-.288-.1-.573-.2-.857-.3l-.24-.09c-.311-.117-.621-.239-.926-.366-.063-.025-.123-.052-.185-.078-.262-.113-.522-.228-.78-.346l-.226-.1c-.2-.095-.4-.2-.6-.293-.134-.067-.27-.131-.4-.2-.244-.125-.484-.254-.723-.387-.081-.043-.163-.085-.245-.129-.318-.179-.631-.364-.943-.551-.086-.052-.169-.108-.254-.161-.226-.139-.45-.28-.671-.426-.073-.047-.144-.1-.216-.145q-.32-.216-.634-.437c-.1-.067-.189-.136-.281-.2-.192-.14-.383-.281-.572-.426l-.255-.2c-.241-.189-.478-.378-.713-.572-.024-.021-.051-.041-.078-.063-.254-.212-.5-.43-.749-.649-.071-.065-.141-.128-.211-.193q-.273-.248-.538-.5c-.071-.068-.142-.134-.211-.2q-.337-.329-.66-.666c-.011-.012-.022-.021-.032-.033-.229-.238-.452-.481-.671-.727l-.175-.2c-.163-.187-.324-.377-.483-.568-.059-.068-.118-.139-.176-.21-.191-.235-.376-.469-.557-.707-5.022-6.534-6.826-15.546-2.812-22.946l-3.558,4.3c-4.559,6.249-3.991,14.379-.509,21.02.083.159.17.316.255.473.055.1.106.2.163.3.031.059.068.116.1.172.059.106.12.207.182.31.108.182.219.362.332.544.063.1.125.2.19.3.125.193.254.384.385.575.055.082.109.163.165.243.182.258.367.515.559.769l.016.02c.031.041.064.081.095.121.166.218.337.433.509.646l.192.232q.232.278.471.552c.059.068.119.138.179.2.214.241.433.48.656.714l.013.013c.01.01.017.016.026.026.217.227.44.448.666.67.071.068.142.138.214.206.174.168.352.333.532.5.073.066.145.133.218.2.239.215.481.426.729.633l.011.009c.042.036.086.07.127.1.218.179.44.358.663.533.09.071.183.14.274.209.182.139.367.277.552.412l.295.214q.308.216.619.424c.077.052.15.1.226.153l.062.042c.2.129.4.254.6.379.087.055.173.112.261.166.309.187.624.372.942.55.086.048.173.093.26.14.234.128.469.255.707.377.129.067.262.129.391.193C37.026,50.873,37.193,50.958,37.364,51.04Z" transform="translate(0 -2.337)" fill="#0868ac"/>
    <path id="Trazado_15" data-name="Trazado 15" d="M50.545,34.907a15.379,15.379,0,0,0,2.258,2.82c.316.347.646.687.984,1.022.085.087.173.17.26.256.327.318.66.63,1,.934.014.01.027.025.042.035s.007,0,.009.01c.381.334.774.656,1.174.971.09.067.177.139.267.209.4.307.81.609,1.229.9.013.008.023.018.036.026.184.128.372.246.559.369.09.059.176.122.266.177.3.191.6.379.911.557.043.028.086.051.128.075q.4.231.8.45c.094.053.19.1.286.149.187.1.373.2.563.291.028.014.058.026.085.039.387.191.777.373,1.175.547.085.038.173.071.259.107.318.135.64.267.962.391.137.052.276.1.412.152.293.108.587.208.884.307.134.043.266.087.4.129a9.782,9.782,0,0,0,1.278.369c22.648,3.753,27.878-13.686,27.878-13.686-4.714,6.788-13.842,10.027-23.582,7.5q-.649-.171-1.282-.371c-.13-.039-.258-.082-.386-.125-.3-.1-.6-.2-.9-.308-.136-.05-.272-.1-.405-.151q-.488-.188-.966-.389c-.087-.037-.174-.071-.259-.111q-.6-.261-1.182-.55c-.2-.1-.4-.2-.592-.3q-.171-.089-.343-.176c-.252-.136-.5-.279-.75-.424-.059-.033-.12-.066-.179-.1-.307-.178-.609-.364-.908-.553-.092-.059-.181-.122-.273-.183-.2-.128-.395-.258-.588-.389-.417-.288-.824-.589-1.224-.895-.092-.074-.185-.144-.276-.218a27.3,27.3,0,0,1-9.25-13.183,20.459,20.459,0,0,1,1.6-16.411L49.33,10.229c-4.387,6.312-4.148,14.763-.726,21.439A28.034,28.034,0,0,0,50.545,34.907Z" transform="translate(-21.502 -0.762)" fill="#0868ac"/>
    <path id="Trazado_16" data-name="Trazado 16" d="M78.583,26.336c.186.069.373.131.563.2.083.025.164.053.247.078a7.109,7.109,0,0,0,.807.233c12.506,2.416,15.9-6.418,16.8-7.718-2.972,4.278-7.966,5.305-14.093,3.818a15.353,15.353,0,0,1-1.482-.457A17.881,17.881,0,0,1,76.58,19.87c-5.483-4.161-8.889-12.1-5.311-18.559L69.333,3.979a13.2,13.2,0,0,0-1.046,12.735A17.935,17.935,0,0,0,78.583,26.336Z" transform="translate(-25.668)" fill="#0868ac"/>
  </g>
</svg>
