<svg xmlns="http://www.w3.org/2000/svg" width="50.309" height="50" viewBox="0 0 50.309 50">
  <g id="plain" transform="translate(-1 -1.719)">
    <path id="Trazado_45" data-name="Trazado 45" d="M7.845,1.719a6.98,6.98,0,0,0-1.327.149A6.44,6.44,0,0,0,1.809,6.894c.069.12.141.246.218.374C2.513,8.081,3,8.888,3.488,9.7q.64,1.066,1.282,2.131.592.985,1.182,1.97L7.79,16.87l1.254,2.092q.914,1.523,1.829,3.046,1.12,1.869,2.238,3.739.968,1.615,1.938,3.229c.028.046.062.09.087.125a.418.418,0,0,0,.245-.014l2.555-.611,4.144-.989,2.164-.518,4.19-1,4.235-1.015,2.141-.512,4.144-.987,4.513-1.075c.075-.018.15-.04.244-.065a1.152,1.152,0,0,0-.067-.132q-.615-.871-1.232-1.74T41.2,18.722l-1.3-1.837-1.244-1.761q-.615-.87-1.232-1.74-.636-.9-1.272-1.8L34.9,9.828q-.329-.464-.658-.928a1.7,1.7,0,0,1-.234-.462.745.745,0,0,1,.254-.87,1.422,1.422,0,0,1,.518-.279c.265-.078.532-.152.8-.2.542-.1,1.088-.19,1.633-.28.615-.1,1.23-.2,1.845-.3.389-.064.778-.131,1.167-.2l1.586-.268,1.541-.256,1.681-.275c.39-.064.778-.131,1.167-.2l1.331-.221c.553-.09,1.106-.181,1.659-.268a2.035,2.035,0,0,1,1.663.357l.287.2c.029-.066-.013-.1-.032-.14a6.639,6.639,0,0,0-3.95-3.4,6.512,6.512,0,0,0-1.508-.122" transform="translate(-0.486)" fill="#fd4f31" fill-rule="evenodd"/>
    <path id="Trazado_46" data-name="Trazado 46" d="M22.821,99.915c-.024,0-.046-.18-.074-.227-.6-1.021-1.2-2.118-1.795-3.143q-1.117-1.938-2.217-3.886-1.176-2.082-2.339-4.17-1.11-1.984-2.214-3.969-.667-1.2-1.331-2.4c-.034-.06-.075-.117-.118-.183-.079.016-.149.026-.216.043q-.641.166-1.282.334c-.595.156-1.189.316-1.784.471l-4.006,1.04c-1.359.352-2.773.706-4.132,1.057-.083.021.087.028-.312.042v8.437c.164.262.149.138.159.225.032.25.083.5.127.749a6.368,6.368,0,0,0,1.069,2.534,6.586,6.586,0,0,0,3.108,2.427,6,6,0,0,0,1.421.359c.164.021.331.11.5.131" transform="translate(0 -48.196)" fill="#fd4f31" fill-rule="evenodd"/>
    <path id="Trazado_47" data-name="Trazado 47" d="M2.586,49.779,7.3,48.659l2.071-.489c.345-.082.691-.161,1.034-.253.3-.082.342-.183.186-.458-.227-.4-.457-.792-.687-1.188L7.885,42.791l-2.02-3.48-2.056-3.54-1.76-3.028c-.254-.437-.562-.874-.817-1.31-.047-.08.168-.175-.231-.217V50.127c0-.013.181-.024.242-.038C1.671,49.986,2.157,49.882,2.586,49.779Z" transform="translate(0 -17.722)" fill="#fd4f31" fill-rule="evenodd"/>
    <path id="Trazado_48" data-name="Trazado 48" d="M101.11,111.525q-.924.329-1.848.66l-4.207,1.509c-.779.279-1.557.562-2.337.841l-4.768,1.7c-.921.328-1.842.733-2.763,1.063-.252.091-.5.366-.751.366h10.57c.075,0,.151-.128.227-.13a5.917,5.917,0,0,0,.8-.14,6.524,6.524,0,0,0,2.917-1.353,6.628,6.628,0,0,0,1.62-1.906,6.777,6.777,0,0,0,.814-2.434.272.272,0,0,0-.028-.235A.6.6,0,0,0,101.11,111.525Z" transform="translate(-50.132 -65.942)" fill="#fd4f31" fill-rule="evenodd"/>
    <path id="Trazado_49" data-name="Trazado 49" d="M73.8,67.393q-.7-.956-1.4-1.912-.963-1.321-1.924-2.643c-.261-.358-.525-.712-.779-1.074a.234.234,0,0,0-.283-.106c-.023.006-.045.014-.068.02l-3.542.859-2.116.514-4.138,1-4.093.994q-2.126.517-4.254,1.03L47.018,67.1l-4.047.983q-1.07.26-2.138.52a.765.765,0,0,0-.33.117c.038.071.065.127.1.182q.9,1.548,1.793,3.094,1.017,1.751,2.036,3.5,1.122,1.923,2.246,3.845c.431.736.859,1.473,1.292,2.207q.724,1.223,1.458,2.44c.147.243.314.474.483.7a1.447,1.447,0,0,0,.417.382.719.719,0,0,0,.546.091,2.74,2.74,0,0,0,.294-.089c.119-.041.235-.091.355-.132q1.937-.663,3.875-1.323,1.512-.515,3.026-1.026l3-1.015,2.982-1.007,3.049-1.031q1.872-.635,3.742-1.271l3.611-1.217a.371.371,0,0,0,.216-.116c0-.05.008-.113.008-.176q0-3.744,0-7.488a.553.553,0,0,0-.115-.348C74.542,68.414,74.171,67.9,73.8,67.393Z" transform="translate(-23.729 -36.003)" fill="#fd4f31" fill-rule="evenodd"/>
    <path id="Trazado_50" data-name="Trazado 50" d="M105.235,16.515a.955.955,0,0,0-1.075-.353c-.19.05-.386.081-.579.117q-.955.175-1.909.346-1.4.254-2.794.508-1.106.2-2.213.392l-2.96.518a2.768,2.768,0,0,0-.369.081c-.174.056-.225.165-.145.329a2.537,2.537,0,0,0,.234.383q.918,1.265,1.842,2.526,1.271,1.741,2.543,3.481l2.154,2.945,1.693,2.312c.032.044.069.084.112.135l4.9-1.21c0-.1.012-.176.012-.253q0-5.094,0-10.189a.582.582,0,0,0-.13-.389c-.412-.52-.816-1.046-1.223-1.569C105.3,16.587,105.264,16.552,105.235,16.515Z" transform="translate(-55.372 -8.654)" fill="#fd4f31" fill-rule="evenodd"/>
    <path id="Trazado_51" data-name="Trazado 51" d="M123.354,58.348c-.741.178-1.483.347-2.242.548.08.142,2.16,2.951,2.281,3.084a.364.364,0,0,0,.076.042c0-.066.009-.119.009-.172q0-.591,0-1.182c0-.686,0-1.372,0-2.058a.413.413,0,0,0-.034-.258A.319.319,0,0,0,123.354,58.348Z" transform="translate(-72.174 -34.026)" fill="#fd4f31" fill-rule="evenodd"/>
  </g>
</svg>
