<svg xmlns="http://www.w3.org/2000/svg" width="22.471" height="50" viewBox="0 0 22.471 50">
  <g id="Grupo_13" data-name="Grupo 13" transform="translate(-43.063 -3.142)">
    <path id="Trazado_21" data-name="Trazado 21" d="M74.191,33.544a23.339,23.339,0,0,1,1.284,5.842,25.7,25.7,0,0,1-.42,7.415,1.882,1.882,0,0,1-.067.2,3.3,3.3,0,0,0-.494,0c-1.361.214-2.72.435-4.079.655-1.405.228-2.813.447-4.215.69-.5.086-1.112-.017-1.313.67-.005.019-.063.022-.1.033l.067-4.108-.069-9.912c.218-.038.436-.077.655-.112,1.071-.175,2.141-.353,3.213-.524q1.918-.3,3.838-.6C73.06,33.709,73.626,33.629,74.191,33.544Z" transform="translate(-10.035 -14.066)" fill="#439934" fill-rule="evenodd"/>
    <path id="Trazado_22" data-name="Trazado 22" d="M53.336,60.405c-.691-.594-1.405-1.162-2.068-1.786a25.584,25.584,0,0,1-7.452-12.084,19.524,19.524,0,0,1-.664-4,22.559,22.559,0,0,1-.063-2.851,33.487,33.487,0,0,1,1.278-7.416.23.23,0,0,1,.04-.057,1.183,1.183,0,0,1,.211.288q1.079,3.175,2.143,6.355,3.346,9.992,6.692,19.985a1.573,1.573,0,0,0,.238.354Z" transform="translate(0 -13.366)" fill="#45a538" fill-rule="evenodd"/>
    <path id="Trazado_23" data-name="Trazado 23" d="M73.824,19.871c-.565.085-1.131.165-1.7.252q-1.92.3-3.838.6c-1.072.171-2.143.349-3.213.524-.219.035-.437.074-.655.112q0-.213-.005-.427c-.021-.351-.058-.7-.063-1.053-.028-2.238-.046-4.478-.074-6.716q-.026-2.1-.071-4.2c-.018-.87-.036-1.741-.075-2.611-.021-.467-.1-.932-.127-1.4-.018-.269.006-.539.012-.809.334.647.661,1.3,1,1.94a12.376,12.376,0,0,0,2.184,2.579A28.778,28.778,0,0,1,73.824,19.871Z" transform="translate(-9.668 -0.464)" fill="#46a037" fill-rule="evenodd"/>
    <path id="Trazado_24" data-name="Trazado 24" d="M64.536,60.736c.033-.011.09-.013.1-.033.2-.687.816-.585,1.313-.67,1.4-.243,2.81-.462,4.215-.69,1.359-.22,2.718-.441,4.079-.655a3.3,3.3,0,0,1,.494,0c-.254.907-.454,1.835-.777,2.717a30.6,30.6,0,0,1-1.279,2.935,20.113,20.113,0,0,1-2.6,3.99A36.8,36.8,0,0,1,67.546,71c-.485.476-1.055.864-1.587,1.292l-.138-.094-.5-.424-.513-1.126a16.9,16.9,0,0,1-.57-4.021l.009-.229.071-.992c.023-.339.054-.676.068-1.015C64.442,63.174,64.488,61.955,64.536,60.736Z" transform="translate(-9.78 -25.673)" fill="#409433" fill-rule="evenodd"/>
    <path id="Trazado_25" data-name="Trazado 25" d="M57.019,42.093c-.049,1.219-.095,2.437-.146,3.657-.014.339-.045.677-.068,1.015l-.313.118c-.694-2.044-1.389-4.067-2.069-6.095-1.124-3.355-2.234-6.714-3.356-10.071q-1.359-4.062-2.739-8.119a1.371,1.371,0,0,0-.252-.338l2-3.679a2.1,2.1,0,0,1,.2.359q1.388,4.109,2.765,8.222,1.788,5.353,3.567,10.707a4.509,4.509,0,0,0,.2.434l.274-.319Z" transform="translate(-2.331 -7.122)" fill="#4faa41" fill-rule="evenodd"/>
    <path id="Trazado_26" data-name="Trazado 26" d="M46.914,25.458a1.371,1.371,0,0,1,.252.338q1.379,4.057,2.739,8.119c1.122,3.357,2.233,6.716,3.356,10.071.679,2.028,1.374,4.051,2.069,6.095l.313-.118-.071.992-.063.228c-.109,1.086-.2,2.173-.333,3.256-.066.543-.208,1.076-.316,1.613a1.573,1.573,0,0,1-.238-.354q-3.352-9.99-6.692-19.985-1.065-3.18-2.143-6.355a1.182,1.182,0,0,0-.211-.288Z" transform="translate(-1.168 -10.227)" fill="#4aa73c" fill-rule="evenodd"/>
    <path id="Trazado_27" data-name="Trazado 27" d="M58.826,35.156l-.274.319a4.509,4.509,0,0,1-.2-.434q-1.786-5.354-3.567-10.707-1.374-4.114-2.765-8.222a2.1,2.1,0,0,0-.2-.359L54.29,12.5a1.338,1.338,0,0,1,.23.313q1.03,3.017,2.044,6.04c.632,1.882,1.256,3.766,1.895,5.645.043.126.192.215.292.322q0,.213.005.427Z" transform="translate(-4.049 -4.35)" fill="#57ae47" fill-rule="evenodd"/>
    <path id="Trazado_28" data-name="Trazado 28" d="M60.9,20.467c-.1-.106-.249-.2-.292-.322-.639-1.878-1.263-3.763-1.895-5.645q-1.015-3.022-2.044-6.04a1.338,1.338,0,0,0-.23-.313c.8-.788,1.585-1.605,2.422-2.357a3.353,3.353,0,0,0,1.37-2.439,1.219,1.219,0,0,1,.059-.21l.212.534c-.006.27-.029.54-.012.809.03.467.105.932.127,1.4.039.869.058,1.74.075,2.611q.043,2.1.071,4.2c.028,2.238.045,4.478.074,6.716C60.844,19.765,60.88,20.116,60.9,20.467Z" transform="translate(-6.194 0)" fill="#60b24f" fill-rule="evenodd"/>
    <path id="Trazado_29" data-name="Trazado 29" d="M62.62,78.406c.108-.537.249-1.07.316-1.613.133-1.083.224-2.171.333-3.256l.027,0,.027,0a16.9,16.9,0,0,0,.57,4.021,1.23,1.23,0,0,0-.212.286c-.3.838-.577,1.683-.876,2.52a1.244,1.244,0,0,1-.235.3q-.152-.525-.3-1.049Z" transform="translate(-8.895 -32.581)" fill="#a9aa88" fill-rule="evenodd"/>
    <path id="Trazado_30" data-name="Trazado 30" d="M62.835,84.168a1.244,1.244,0,0,0,.235-.3c.3-.837.579-1.682.876-2.52a1.23,1.23,0,0,1,.212-.286l.513,1.126a1.957,1.957,0,0,0-.3.433c-.336.959-.647,1.926-.982,2.885-.041.116-.179.2-.271.3Q62.977,84.982,62.835,84.168Z" transform="translate(-9.159 -36.08)" fill="#b6b598" fill-rule="evenodd"/>
    <path id="Trazado_31" data-name="Trazado 31" d="M63.367,86.775c.093-.1.23-.179.271-.3.335-.959.646-1.926.982-2.885a1.957,1.957,0,0,1,.3-.433l.5.423a.873.873,0,0,0-.293.857l-.151.494a1.016,1.016,0,0,0-.2.255c-.342.982-.67,1.969-1.015,2.951a1.394,1.394,0,0,1-.25.332Q63.435,87.624,63.367,86.775Z" transform="translate(-9.405 -37.059)" fill="#c2c1a7" fill-rule="evenodd"/>
    <path id="Trazado_32" data-name="Trazado 32" d="M63.615,90.016a1.394,1.394,0,0,0,.25-.332c.346-.982.673-1.969,1.015-2.951a1.016,1.016,0,0,1,.2-.255q-.1,1.133-.208,2.266c-.056.064-.136.12-.163.2-.235.66-.456,1.324-.692,1.984a2.628,2.628,0,0,1-.214.383c-.065-.085-.18-.166-.186-.254C63.6,90.707,63.614,90.361,63.615,90.016Z" transform="translate(-9.518 -38.6)" fill="#cecdb7" fill-rule="evenodd"/>
    <path id="Trazado_33" data-name="Trazado 33" d="M63.977,93.275a2.628,2.628,0,0,0,.214-.383c.236-.66.457-1.324.692-1.984.027-.075.108-.131.163-.2l0,1.488-.5,1.277Z" transform="translate(-9.689 -40.57)" fill="#dbdac7" fill-rule="evenodd"/>
    <path id="Trazado_34" data-name="Trazado 34" d="M65.055,94.771l.5-1.277.1,1.511Z" transform="translate(-10.19 -41.863)" fill="#ebe9dc" fill-rule="evenodd"/>
    <path id="Trazado_35" data-name="Trazado 35" d="M66.626,84.81a.873.873,0,0,1,.293-.857l.138.094Z" transform="translate(-10.907 -37.426)" fill="#cecdb7" fill-rule="evenodd"/>
    <path id="Trazado_36" data-name="Trazado 36" d="M64.2,73.343l-.027,0-.027,0,.063-.228Z" transform="translate(-9.767 -32.423)" fill="#4faa41" fill-rule="evenodd"/>
  </g>
</svg>
