<svg xmlns="http://www.w3.org/2000/svg" width="51.092" height="50" viewBox="0 0 51.092 50">
  <g id="plain" transform="translate(-0.886 -2.29)">
    <path id="Trazado_62" data-name="Trazado 62" d="M51.36,51.1c-.343-.342-.717-.685-1.06-1.027A16.938,16.938,0,0,0,46.648,46.6c-1.081-.776-3.509-1.825-3.96-3.083-.026-.026-.056-.053-.083-.079a17.391,17.391,0,0,0,2.37-.554c1.189-.318,2.17-.236,3.4-.553.553-.158,1.174-.316,1.58-.474v-.316a9.374,9.374,0,0,0-1.66-2.055,50.345,50.345,0,0,0-5.651-4.269c-1.1-.7-2.447-1.149-3.617-1.739-.393-.2-1.074-.3-1.334-.633a16.7,16.7,0,0,1-1.417-2.687c-.992-1.911-1.964-4-2.844-6.008A32.313,32.313,0,0,0,31.691,20.2,34.909,34.909,0,0,0,18.255,7.232a16.112,16.112,0,0,0-4.428-1.423L11.219,5.65A13.708,13.708,0,0,1,9.638,4.465C7.655,3.212,2.57.488,1.1,4.07.174,6.331,2.487,8.537,3.314,9.683a16.866,16.866,0,0,1,1.739,2.608c.273.594.32,1.19.554,1.819a41.623,41.623,0,0,0,1.818,4.664A16.465,16.465,0,0,0,8.69,20.907c.291.4.79.572.869,1.186a9.671,9.671,0,0,0-.79,2.609C7.533,28.6,8,33.439,9.8,36.322c.551.886,1.85,2.784,3.636,2.056,1.562-.636,1.307-2.608,1.754-4.348.1-.394-.075-.684.33-.949v.079c.405.948.855,1.9,1.33,2.846A18.825,18.825,0,0,0,21.22,40.67c.821.62,1.588,1.693,2.4,2.056v-.041h.09c-.205-.405-.527-.473-.79-.731A18.1,18.1,0,0,1,21.1,39.889a48.12,48.12,0,0,1-3.873-6.329c-.554-1.064-1.036-2.24-1.5-3.322-.179-.417-.177-1.05-.553-1.266a15.776,15.776,0,0,0-1.661,2.371,20.356,20.356,0,0,0-.948,5.217c-.139.049-.077.015-.158.079-1.1-.265-1.488-1.4-1.9-2.371a14.942,14.942,0,0,1-.316-9.248c.236-.733,1.3-3.039.869-3.716-.205-.675-.884-1.065-1.264-1.581a12.442,12.442,0,0,1-1.265-2.214C7.684,15.591,7.289,13.439,6.4,11.5A17.564,17.564,0,0,0,4.658,8.813a15.755,15.755,0,0,1-1.9-2.688C2.58,5.734,2.335,5.105,2.6,4.7a.626.626,0,0,1,.474-.474c.459-.354,1.736.117,2.213.316a19.264,19.264,0,0,1,3.4,1.724c.515.342,1.036.766,1.66,1.171h.711a12.177,12.177,0,0,1,3.4.41,20.587,20.587,0,0,1,4.98,2.379A30.846,30.846,0,0,1,30.27,22.089c.41.787.588,1.539.948,2.373.728,1.682,1.647,3.415,2.371,5.06a23.63,23.63,0,0,0,2.451,4.665c.538.718,2.613,1.1,3.557,1.5a20.934,20.934,0,0,1,2.372.948c1.2.722,2.356,1.582,3.478,2.372.561.395,2.285,1.262,2.371,1.976a15.9,15.9,0,0,0-6.719.948c-.516.218-1.339.224-1.423.87.284.3.328.741.553,1.107a8.72,8.72,0,0,0,1.819,2.134c.713.539,1.449,1.114,2.214,1.581,1.361.83,2.879,1.3,4.189,2.134.773.49,1.6,1.107,2.356,1.66.373.273.361.7,1.171.869v-.079C51.572,51.887,51.594,51.442,51.36,51.1Z" fill="#00618a"/>
    <path id="Trazado_63" data-name="Trazado 63" d="M27.428,23.463A5.537,5.537,0,0,0,26,23.621v.059h.08c.277.406.767.947,1.11,1.438.265.555.529,1.114.793,1.669.026-.026.053-.05.079-.076a1.933,1.933,0,0,0,.713-1.743c-.2-.207-.226-.465-.4-.712C28.153,23.927,27.713,23.74,27.428,23.463Z" transform="translate(-14.942 -12.597)" fill="#00618a"/>
  </g>
</svg>
