<svg xmlns="http://www.w3.org/2000/svg" width="44.373" height="50" viewBox="0 0 44.373 50">
  <path id="Trazado_3" data-name="Trazado 3" d="M22.186,50a4.028,4.028,0,0,1-1.929-.505l-6.109-3.629c-.919-.505-.459-.689-.184-.781a11.129,11.129,0,0,0,2.756-1.24.423.423,0,0,1,.459.046l4.685,2.8a.584.584,0,0,0,.551,0L40.744,36.082a.528.528,0,0,0,.276-.505V14.4a.528.528,0,0,0-.276-.505L22.416,3.33a.584.584,0,0,0-.551,0L3.537,13.9a.576.576,0,0,0-.276.505V35.576a.576.576,0,0,0,.276.505l5.007,2.894c2.71,1.378,4.41-.23,4.41-1.837v-20.9a.559.559,0,0,1,.551-.551h2.343a.559.559,0,0,1,.551.551v20.9c0,3.629-1.975,5.742-5.42,5.742a7.88,7.88,0,0,1-4.226-1.148L1.929,38.976A3.877,3.877,0,0,1,0,35.622V14.446a3.877,3.877,0,0,1,1.929-3.353L20.257.482a4.1,4.1,0,0,1,3.859,0L42.444,11.093a3.877,3.877,0,0,1,1.929,3.353V35.622a3.877,3.877,0,0,1-1.929,3.353L24.116,49.587A4.7,4.7,0,0,1,22.186,50Zm5.65-14.561c-8.039,0-9.692-3.675-9.692-6.8a.559.559,0,0,1,.551-.551h2.389a.472.472,0,0,1,.505.459c.367,2.435,1.424,3.629,6.293,3.629,3.859,0,5.512-.873,5.512-2.94,0-1.194-.459-2.067-6.477-2.664-5.007-.505-8.13-1.608-8.13-5.6,0-3.721,3.124-5.926,8.36-5.926,5.88,0,8.774,2.021,9.141,6.431a.741.741,0,0,1-.138.413.567.567,0,0,1-.367.184H33.395a.538.538,0,0,1-.505-.413c-.551-2.526-1.975-3.353-5.742-3.353-4.226,0-4.731,1.47-4.731,2.572,0,1.332.6,1.746,6.293,2.48,5.65.735,8.314,1.791,8.314,5.742-.046,4.042-3.353,6.339-9.187,6.339Z" fill="#00f89c"/>
</svg>
