<svg xmlns="http://www.w3.org/2000/svg" width="98.663" height="50" viewBox="0 0 98.663 50">
  <g id="plain" transform="translate(-2.906 -33.039)">
    <path id="Trazado_42" data-name="Trazado 42" d="M52.237,33.039c-27.244,0-49.331,11.193-49.331,25s22.087,25,49.331,25,49.331-11.193,49.331-25S79.481,33.039,52.237,33.039ZM39.4,62.91a9.656,9.656,0,0,1-3.924,2.025,19.349,19.349,0,0,1-5.5.371H24.928l-1.4,8.075h-5.9l5.261-27.454H34.23c3.41,0,5.9.981,7.462,2.771s2.034,4.331,1.411,7.54a11.868,11.868,0,0,1-3.7,6.671Zm17.209,2.4,2.326-11.644c.265-1.363.168-2.376-.291-2.871a4.063,4.063,0,0,0-2.935-.827H51.033L48.021,65.306H42.172l5.26-26.646h5.849l-1.4,7.267h5.211c3.278,0,5.539.658,6.784,1.8S65.5,50.438,65,53L62.55,65.306ZM89.117,56.28a11.75,11.75,0,0,1-3.7,6.629,9.656,9.656,0,0,1-3.924,2.025,19.356,19.356,0,0,1-5.5.371H70.942l-1.4,8.075h-5.9l5.259-27.454H80.244c3.411,0,5.9.981,7.462,2.771S89.74,53.073,89.117,56.28Z" transform="translate(0)" fill="#6181b6"/>
    <path id="Trazado_43" data-name="Trazado 43" d="M94.485,54H90.412L88.191,65.4h3.618c2.4,0,4.183-.236,5.355-1.14a6.891,6.891,0,0,0,2.377-4.415c.394-2.029.215-3.611-.537-4.445S96.744,54,94.485,54Z" transform="translate(-16.498 -4.078)" fill="#6181b6"/>
    <path id="Trazado_44" data-name="Trazado 44" d="M37.5,54H33.426L31.2,65.4h3.617c2.4,0,4.183-.236,5.357-1.14a6.894,6.894,0,0,0,2.376-4.415c.394-2.029.215-3.611-.538-4.445S39.759,54,37.5,54Z" transform="translate(-5.474 -4.078)" fill="#6181b6"/>
  </g>
</svg>
