<svg xmlns="http://www.w3.org/2000/svg" width="55.993" height="50" viewBox="0 0 55.993 50">
  <g id="react-original" transform="translate(-1.4 -8.1)">
    <circle id="Elipse_11" data-name="Elipse 11" cx="11.4" cy="11.4" r="11.4" transform="translate(17.996 21.7)" fill="#61dafb"/>
    <path id="Trazado_17" data-name="Trazado 17" d="M48.761,24.692c-.984-.358-2.013-.716-3.086-1.029.268-1.073.492-2.147.671-3.175.939-5.9-.089-10.063-2.952-11.673A5.556,5.556,0,0,0,40.532,8.1c-3.131,0-7.111,2.326-11.136,6.216C25.371,10.426,21.391,8.1,18.26,8.1a5.556,5.556,0,0,0-2.862.716c-2.862,1.655-3.891,5.814-2.952,11.673.179,1.029.4,2.1.671,3.175a31.189,31.189,0,0,0-3.086,1.029C4.441,26.839,1.4,29.791,1.4,33.1s3.086,6.261,8.631,8.408c.984.358,2.013.716,3.086,1.029-.268,1.073-.492,2.147-.671,3.175-.939,5.9.089,10.063,2.952,11.673a5.556,5.556,0,0,0,2.862.716c3.175,0,7.156-2.326,11.136-6.216C33.421,55.774,37.4,58.1,40.532,58.1a5.556,5.556,0,0,0,2.862-.716c2.862-1.655,3.891-5.814,2.952-11.673-.179-1.029-.4-2.1-.671-3.175a31.187,31.187,0,0,0,3.086-1.029c5.59-2.147,8.631-5.1,8.631-8.408S54.352,26.839,48.761,24.692Zm-6.619-13.64c1.834,1.073,2.46,4.383,1.7,9.079a26.932,26.932,0,0,1-.626,2.952,53.133,53.133,0,0,0-7.379-1.118,64.529,64.529,0,0,0-4.651-5.814c3.309-3.265,6.664-5.5,9.392-5.5A3.021,3.021,0,0,1,42.142,11.052ZM37.133,37.572c-.805,1.431-1.744,2.862-2.728,4.293-1.655.134-3.309.179-5.009.179-1.744,0-3.4-.045-5.009-.179q-1.476-2.147-2.683-4.293c-.85-1.476-1.655-3-2.37-4.472.716-1.476,1.521-3,2.37-4.472.805-1.431,1.744-2.862,2.728-4.293,1.655-.134,3.309-.179,5.009-.179,1.744,0,3.4.045,5.009.179q1.476,2.147,2.683,4.293c.85,1.476,1.655,3,2.37,4.472C38.743,34.576,37.983,36.052,37.133,37.572ZM40.845,36.1c.671,1.565,1.208,3.086,1.7,4.606-1.521.358-3.131.626-4.83.85.537-.85,1.118-1.744,1.61-2.683.537-.939,1.029-1.878,1.521-2.773ZM29.4,48.216c-1.073-1.163-2.1-2.415-3.086-3.712,1.029.045,2.057.089,3.086.089s2.057-.045,3.086-.089C31.5,45.8,30.47,47.053,29.4,48.216Zm-8.318-6.708c-1.7-.224-3.309-.492-4.83-.85.492-1.476,1.029-3.041,1.7-4.606.492.894.984,1.834,1.521,2.728.537.984,1.073,1.834,1.61,2.728ZM17.947,30.1c-.671-1.565-1.208-3.086-1.7-4.606,1.521-.358,3.131-.626,4.83-.85-.537.85-1.118,1.744-1.61,2.683C18.931,28.27,18.439,29.209,17.947,30.1ZM29.4,17.984c1.073,1.163,2.1,2.415,3.086,3.712-1.029-.045-2.057-.089-3.086-.089s-2.057.045-3.086.089C27.294,20.4,28.323,19.147,29.4,17.984Zm9.928,9.392-1.61-2.683c1.7.224,3.309.492,4.83.85-.492,1.476-1.029,3.041-1.7,4.606C40.353,29.209,39.862,28.27,39.325,27.375ZM14.951,20.13c-.76-4.7-.134-8.005,1.7-9.079a3.021,3.021,0,0,1,1.565-.4c2.683,0,6.038,2.191,9.392,5.5a58.789,58.789,0,0,0-4.651,5.814,60.8,60.8,0,0,0-7.379,1.118c-.268-1.029-.447-2.013-.626-2.952ZM3.9,33.1c0-2.1,2.549-4.338,7.021-5.993a26.815,26.815,0,0,1,2.862-.939,65.187,65.187,0,0,0,2.683,6.977,56.356,56.356,0,0,0-2.683,6.932C7.616,38.288,3.9,35.6,3.9,33.1ZM16.65,55.148c-1.834-1.073-2.46-4.383-1.7-9.079a26.93,26.93,0,0,1,.626-2.952,53.133,53.133,0,0,0,7.379,1.118,64.528,64.528,0,0,0,4.651,5.814c-3.309,3.265-6.664,5.5-9.392,5.5A3.021,3.021,0,0,1,16.65,55.148ZM43.842,46.07c.76,4.7.134,8.005-1.7,9.079a3.021,3.021,0,0,1-1.565.4c-2.683,0-6.038-2.191-9.392-5.5a58.789,58.789,0,0,0,4.651-5.814,60.8,60.8,0,0,0,7.379-1.118C43.484,44.147,43.663,45.13,43.842,46.07Zm4.025-6.977A26.814,26.814,0,0,1,45,40.032a65.188,65.188,0,0,0-2.683-6.977A56.357,56.357,0,0,0,45,26.123c6.172,1.789,9.884,4.472,9.884,6.977C54.888,35.2,52.294,37.438,47.867,39.093Z" fill="#61dafb"/>
  </g>
</svg>
