<svg xmlns="http://www.w3.org/2000/svg" width="52.665" height="50" viewBox="0 0 52.665 50">
  <path id="Trazado_18" data-name="Trazado 18" d="M36.494,38.16A25.751,25.751,0,0,1,17.727,52.5a16.356,16.356,0,0,1-4.02.469c-4.937,0-9.463-2.057-11.661-5.427C-.9,43.052-1.908,33.535,7.819,26.5c.2,1.074.6,2.547.868,3.419a15.736,15.736,0,0,0-4.571,5.361,9.846,9.846,0,0,0,.535,10.389,9.381,9.381,0,0,0,6.842,3.971,18.1,18.1,0,0,0,10.924-2.057c5.23-2.749,8.715-6.032,10.994-10.521a3.833,3.833,0,0,1-1.074-2.469,3.752,3.752,0,0,1,3.613-3.88h.14a3.765,3.765,0,0,1,.411,7.509Zm11.8-8.311c5.024,5.695,5.16,12.4,3.218,16.285-1.81,3.551-6.583,7.106-13,7.106a20.772,20.772,0,0,1-8.641-2.078c.942-.671,2.279-1.745,3.016-2.415a17.1,17.1,0,0,0,6.583,1.407,9.835,9.835,0,0,0,9.18-5.493,9.29,9.29,0,0,0,.136-7.908,17.944,17.944,0,0,0-7.106-8.579A25.508,25.508,0,0,0,27.38,23.817H26.174A3.789,3.789,0,0,1,22.883,26.1h-.128a3.757,3.757,0,0,1-.123-7.509h.136A3.7,3.7,0,0,1,26.059,20.6h1.074C35.691,20.6,43.2,23.883,48.29,29.849ZM14.242,39.312a3.008,3.008,0,0,1,.469-1.946c-3.752-6.5-5.76-14.742-2.679-23.321,2.21-6.447,7.772-10.8,13.8-10.8,6.435,0,13.138,5.633,13.94,16.487-1-.333-2.469-.823-3.349-1C36.21,15.172,33.21,6.326,26.1,6.458c-2.547.07-6.3,1.276-8.229,3.752A17.978,17.978,0,0,0,13.909,20.6a24.527,24.527,0,0,0,3.485,14.878,1.13,1.13,0,0,1,.469-.066h.132a3.753,3.753,0,0,1,.136,7.5h-.136A3.769,3.769,0,0,1,14.242,39.3Z" transform="translate(-0.003 -3.24)" fill="#764abc"/>
</svg>
