<svg xmlns="http://www.w3.org/2000/svg" width="50" height="50" viewBox="0 0 50 50">
  <path id="trello-plain" d="M51,7.009A6.009,6.009,0,0,0,44.991,1H7.009A6.009,6.009,0,0,0,1,7.009V44.991A6.009,6.009,0,0,0,7.009,51H44.991A6.009,6.009,0,0,0,51,44.991ZM23.619,40.1A2.663,2.663,0,0,1,20.8,42.667H9.954a2.484,2.484,0,0,1-2.6-2.563V9.821a2.744,2.744,0,0,1,2.6-2.869H20.8a2.921,2.921,0,0,1,2.815,2.869V40.1ZM45.444,13.732V26.385a2.732,2.732,0,0,1-2.676,2.79H31.923a2.793,2.793,0,0,1-2.748-2.79V9.677a2.737,2.737,0,0,1,2.748-2.725H42.768a2.676,2.676,0,0,1,2.676,2.725v4.055Z" transform="translate(-1 -1)" fill="#23719f"/>
</svg>
