<svg xmlns="http://www.w3.org/2000/svg" width="45.071" height="50" viewBox="0 0 45.071 50">
  <g id="webpack-original" transform="translate(-7.21 -1)">
    <path id="Trazado_72" data-name="Trazado 72" d="M50.893,39.532,30.635,51V42.067l12.6-6.94Zm1.389-1.254V14.313L44.869,18.6V34l7.409,4.274ZM8.6,39.532l20.238,11.46V42.067L16.23,35.127ZM7.21,38.278V14.313L14.623,18.6V34Zm.869-25.516L28.857,1V9.635L15.543,16.956l-.107.06Zm43.325,0L30.635,1V9.635l13.313,7.317.107.06,7.357-4.25Z" fill="#8ed6fb"/>
    <path id="Trazado_73" data-name="Trazado 73" d="M42.826,55.513,30.37,48.66V35.1l12.456,7.175Zm1.778,0L57.06,48.668V35.1L44.6,42.271ZM31.215,33.541l12.5-6.881,12.5,6.881-12.5,7.206Z" transform="translate(-13.97 -15.477)" fill="#1c78c0"/>
  </g>
</svg>
