<svg xmlns="http://www.w3.org/2000/svg" width="50" height="50" viewBox="0 0 50 50">
  <g id="icon" transform="translate(-3 -37)">
    <path id="Trazado_74" data-name="Trazado 74" d="M43.225,69.538a9.1,9.1,0,0,0-4.575,1.719c-2.423,1.5-3.63,1.4-3.63,1.4s-.009-.019-.039-.068c-.164-.27.772-2.694-.28-5.58-1.139-3.156-2.944-3.919-2.8-4.16a15,15,0,0,0,2.78-5.792,12.139,12.139,0,0,0-.559-6.564c-.155-.3-1.525.5-1.525.5a19.621,19.621,0,0,0-1.642-3.089c-1.158-.744-2.413,3.069-2.413,3.069a5.633,5.633,0,0,0-4.719,1.815,3.894,3.894,0,0,1-1.555.917c-.164.057-.367.048-.869,1.4-.772,2.066,1.3,4.363,1.3,4.363a11.186,11.186,0,0,0-3.388,3.919,10,10,0,0,0-.7,4.71s-1.756,1.525-1.872,3.1a5.191,5.191,0,0,0,.714,3.156.782.782,0,0,0,1.062.368s-1.168,1.36-.077,1.94c.994.521,2.673.82,3.561-.078.647-.646.772-2.084,1.014-2.673.057-.135.251.231.434.415a4,4,0,0,0,.55.406,1.684,1.684,0,0,0-.927,2.22c.213.511.975.84,2.22.83a66.63,66.63,0,0,0,6.9-.618,1.747,1.747,0,0,0,1.052-.589,25.4,25.4,0,0,0,6.245-2.828,11.225,11.225,0,0,1,4.237-1.95A1.158,1.158,0,0,0,43.225,69.538Z" transform="translate(-1.016 -0.801)" fill="#2c8ebb"/>
    <path id="Trazado_75" data-name="Trazado 75" d="M28,37A25,25,0,1,0,53,62,25.006,25.006,0,0,0,28,37ZM43.039,72.415a10.034,10.034,0,0,0-3.794,1.757,27.04,27.04,0,0,1-6.274,2.9,3.52,3.52,0,0,1-1.468.714,63.092,63.092,0,0,1-7.22.656h-.1a3.943,3.943,0,0,1-3.021-1.023,5.048,5.048,0,0,1-4.42-.28,2.238,2.238,0,0,1-1.2-1.573,2.413,2.413,0,0,1-.009-.831,2.645,2.645,0,0,1-.319-.406,6.6,6.6,0,0,1-.946-4.054,6.342,6.342,0,0,1,1.834-3.562,11.519,11.519,0,0,1,.849-4.7,10.822,10.822,0,0,1,2.751-3.619,5.392,5.392,0,0,1-.685-4.6c.473-1.256.859-1.95,1.708-2.249h-.009A2.758,2.758,0,0,0,21.735,51a7.117,7.117,0,0,1,4.788-2.3c.077-.194.164-.386.261-.589a4.259,4.259,0,0,1,2.132-2.432,1.965,1.965,0,0,1,1.776.2c.261.173.6.386,1.574,2.4a1.888,1.888,0,0,1,1.148-.038,1.536,1.536,0,0,1,.966.781c.994,1.911,1.129,5.319.694,7.51A13.632,13.632,0,0,1,32.72,61.9a10.382,10.382,0,0,1,2.326,3.8,10.249,10.249,0,0,1,.569,4.2,11.511,11.511,0,0,0,1.255-.685,10.527,10.527,0,0,1,5.319-1.941,2.667,2.667,0,0,1,2.819,2.3A2.561,2.561,0,0,1,43.039,72.415Z" fill="#2c8ebb"/>
  </g>
</svg>
