<svg width="128" height="128" viewBox="0 0 128 128" fill="none" xmlns="http://www.w3.org/2000/svg">
<path d="M60 2.3094C62.4752 0.880338 65.5248 0.880339 68 2.3094L115.426 29.6906C117.901 31.1197 119.426 33.7607 119.426 36.6188V91.3812C119.426 94.2393 117.901 96.8803 115.426 98.3094L68 125.691C65.5248 127.12 62.4752 127.12 60 125.691L12.5744 98.3094C10.0992 96.8803 8.57438 94.2393 8.57438 91.3812V36.6188C8.57438 33.7607 10.0992 31.1197 12.5744 29.6906L60 2.3094Z" fill="#FB581C"/>
<path d="M56.0998 90.7273C55.1349 90.0241 54.39 88.7963 54.1889 87.5774C53.9929 86.3897 65.4289 39.0341 66.1803 37.9216C67.1084 36.5477 68.0028 36.0256 69.4701 36.0011C70.465 35.9846 71.0695 36.1508 71.6034 36.5879C72.7257 37.5069 73.5699 39.0578 73.5699 40.201C73.5699 41.3692 62.3316 87.9788 61.7505 89.2209C60.8485 91.1486 57.7951 91.9626 56.0998 90.7273ZM40.3174 90.7185C39.2557 90.1661 24.0859 77.1693 22.3268 75.305C20.7864 73.6725 20.5583 71.1271 21.7946 69.3672C21.9793 69.1043 26.1875 65.3705 31.1463 61.0697C41.1554 52.3889 41.254 52.3283 43.5493 53.4505C44.3047 53.8199 44.9944 54.4385 45.331 55.0486C46.0376 56.3296 46.0684 58.7261 45.3928 59.8583C45.1257 60.306 41.9442 63.2369 38.3229 66.3714L31.7385 72.0705L34.1278 74.1505C35.4419 75.2945 38.4032 77.8675 40.7085 79.8683C43.0138 81.8691 45.1201 83.8751 45.3892 84.3261C46.0676 85.4632 46.0395 87.8575 45.3326 89.139C44.7793 90.142 42.9768 91.2835 41.9461 91.2835C41.6475 91.2835 40.9146 91.0293 40.3174 90.7185ZM83.8808 73.8203C83.192 73.4345 82.455 72.7202 82.1604 72.1529C81.5096 70.8998 81.5234 68.7334 82.1896 67.5705C82.4618 67.0953 84.2678 65.3376 86.2028 63.6644C88.1379 61.9913 91.102 59.4176 92.7899 57.9452L95.8587 55.268L89.2677 49.5597C85.6426 46.4201 82.4607 43.4895 82.1968 43.0472C81.5279 41.9262 81.561 39.5227 82.2628 38.2503C82.8187 37.2426 84.6108 36.1115 85.6712 36.0992C85.9818 36.0958 86.7758 36.4002 87.4356 36.7762C88.582 37.4294 103.43 50.1333 105.255 52.0232C107.046 53.8769 107.052 56.6094 105.269 58.5079C103.535 60.3533 88.3471 73.3631 87.278 73.9183C85.8661 74.6516 85.3373 74.6364 83.8808 73.8203Z" fill="white"/>
</svg>
