<svg width="24" height="24" viewBox="0 0 31 31" fill="currentColor" stroke='currentColor' xmlns="http://www.w3.org/2000/svg">
<path d="M10.375 24.8125C10.375 24.7708 10.3333 24.7292 10.25 24.6875C10.2083 24.6458 10.125 24.625 10 24.625C9.79167 24.625 9.6875 24.7083 9.6875 24.875C9.6875 25.0417 9.79167 25.125 10 25.125C10.25 25.0833 10.375 24.9792 10.375 24.8125ZM8.4375 24.5625C8.47917 24.3958 8.60417 24.3542 8.8125 24.4375C9.02083 24.4792 9.10417 24.5625 9.0625 24.6875C9.0625 24.7708 9.02083 24.8333 8.9375 24.875C8.85417 24.9167 8.77083 24.9167 8.6875 24.875C8.60417 24.8333 8.52083 24.7917 8.4375 24.75C8.39583 24.6667 8.39583 24.6042 8.4375 24.5625ZM11.1875 24.4375C11.3958 24.4375 11.5 24.5 11.5 24.625C11.5417 24.75 11.4583 24.8542 11.25 24.9375C11.1667 24.9375 11.0833 24.9375 11 24.9375C10.9583 24.8958 10.9167 24.8125 10.875 24.6875C10.875 24.5625 10.9792 24.4792 11.1875 24.4375ZM15.3125 0.5C18.1458 0.5 20.7708 1.16667 23.1875 2.5C25.6042 3.83333 27.5 5.64583 28.875 7.9375C30.2917 10.3125 31 12.9167 31 15.75C31 19.2083 30.0208 22.3125 28.0625 25.0625C26.1458 27.7708 23.625 29.6458 20.5 30.6875C20.1667 30.7708 19.8958 30.7292 19.6875 30.5625C19.5208 30.3958 19.4375 30.1875 19.4375 29.9375V24.6875C19.4375 23.3542 19.0833 22.3958 18.375 21.8125C19.9167 21.6458 21.0625 21.4375 21.8125 21.1875C22.9792 20.7708 23.875 20.1458 24.5 19.3125C25.2083 18.2292 25.5625 16.75 25.5625 14.875C25.5625 14.0833 25.4167 13.3958 25.125 12.8125C24.9167 12.3958 24.5208 11.875 23.9375 11.25C24.1042 10.8333 24.2083 10.3333 24.25 9.75C24.2917 8.83333 24.1458 7.91667 23.8125 7C23.3958 6.875 22.8125 6.95833 22.0625 7.25C21.5625 7.45833 20.9792 7.75 20.3125 8.125L19.5 8.6875C18.2083 8.3125 16.875 8.125 15.5 8.125C14.1667 8.125 12.875 8.3125 11.625 8.6875L10.8125 8.125C10.1458 7.75 9.54167 7.45833 9 7.25C8.25 6.95833 7.6875 6.875 7.3125 7C6.9375 7.91667 6.79167 8.83333 6.875 9.75C6.875 10.3333 6.95833 10.8125 7.125 11.1875C6.625 11.8125 6.25 12.3958 6 12.9375C5.79167 13.4375 5.6875 14.0833 5.6875 14.875C5.6875 16.75 6.02083 18.2083 6.6875 19.25C7.27083 20.125 8.14583 20.7708 9.3125 21.1875C10.0625 21.4375 11.1875 21.6458 12.6875 21.8125C12.1458 22.3125 11.8125 23.0208 11.6875 23.9375C10.9792 24.2708 10.2917 24.3958 9.625 24.3125C8.54167 24.2292 7.70833 23.6667 7.125 22.625C6.875 22.1667 6.54167 21.7917 6.125 21.5C5.83333 21.3333 5.52083 21.1875 5.1875 21.0625L4.75 21C4.29167 21 4.04167 21.0833 4 21.25C4 21.375 4.10417 21.5208 4.3125 21.6875L4.625 21.9375C4.91667 22.1042 5.20833 22.375 5.5 22.75C5.75 23.0417 5.95833 23.375 6.125 23.75L6.375 24.25C6.58333 24.875 6.97917 25.3542 7.5625 25.6875C8.0625 25.9792 8.66667 26.1667 9.375 26.25C9.875 26.2917 10.3958 26.2708 10.9375 26.1875L11.625 26.125L11.6875 29.9375C11.6875 30.1875 11.5833 30.3958 11.375 30.5625C11.2083 30.7292 10.9583 30.7708 10.625 30.6875C7.45833 29.6458 4.89583 27.7708 2.9375 25.0625C0.979167 22.3125 0 19.2083 0 15.75C0 12.9167 0.666667 10.3333 2 8C3.33333 5.66667 5.16667 3.83333 7.5 2.5C9.83333 1.16667 12.4375 0.5 15.3125 0.5ZM6.0625 22.0625C6.14583 21.9792 6.25 22 6.375 22.125C6.5 22.25 6.52083 22.3542 6.4375 22.4375C6.35417 22.5208 6.25 22.5 6.125 22.375C6 22.25 5.97917 22.1458 6.0625 22.0625ZM5.375 21.5625C5.45833 21.4792 5.5625 21.4792 5.6875 21.5625C5.8125 21.6042 5.85417 21.6875 5.8125 21.8125C5.77083 21.8958 5.66667 21.8958 5.5 21.8125C5.375 21.7292 5.33333 21.6458 5.375 21.5625ZM7.4375 23.75C7.47917 23.7083 7.54167 23.7083 7.625 23.75C7.70833 23.75 7.77083 23.7917 7.8125 23.875C7.89583 23.9167 7.9375 23.9792 7.9375 24.0625C7.97917 24.1458 7.97917 24.2083 7.9375 24.25C7.8125 24.375 7.66667 24.3542 7.5 24.1875C7.41667 24.1042 7.375 24.0208 7.375 23.9375C7.375 23.8542 7.39583 23.7917 7.4375 23.75ZM6.6875 22.875C6.77083 22.8333 6.83333 22.8333 6.875 22.875C6.95833 22.875 7.02083 22.9167 7.0625 23C7.1875 23.1667 7.1875 23.2917 7.0625 23.375C7.02083 23.4167 6.95833 23.4167 6.875 23.375C6.83333 23.3333 6.77083 23.2917 6.6875 23.25C6.60417 23.0417 6.60417 22.9167 6.6875 22.875Z" fill="black"/>
</svg>
