<svg width="63" height="57" viewBox="0 0 63 57" fill="none" xmlns="http://www.w3.org/2000/svg">
<path d="M27.796 1.93485C30.1166 0.722658 32.8834 0.722657 35.204 1.93485L54.4838 12.0059C57.1244 13.3853 58.7798 16.1176 58.7798 19.0968V37.9032C58.7798 40.8824 57.1244 43.6147 54.4838 44.9941L35.204 55.0652C32.8834 56.2773 30.1166 56.2773 27.796 55.0652L8.51619 44.9941C5.87561 43.6147 4.2202 40.8824 4.2202 37.9032V19.0968C4.2202 16.1176 5.8756 13.3853 8.51619 12.0059L27.796 1.93485Z" fill="#FB581C"/>
<path d="M28.2757 41.3707C27.8008 41.0576 27.4341 40.5109 27.3351 39.968C27.2387 39.4392 32.8673 18.3511 33.2372 17.8557C33.694 17.2439 34.1342 17.0114 34.8564 17.0005C35.346 16.9931 35.6436 17.0672 35.9063 17.2618C36.4588 17.671 36.8742 18.3617 36.8742 18.8708C36.8742 19.391 31.3429 40.1468 31.0569 40.6999C30.6129 41.5584 29.1101 41.9209 28.2757 41.3707ZM20.5078 41.3668C19.9852 41.1208 12.5189 35.3332 11.6531 34.503C10.8949 33.776 10.7826 32.6426 11.3911 31.8588C11.482 31.7418 13.5532 30.079 15.9939 28.1639C20.9202 24.2982 20.9688 24.2712 22.0985 24.7709C22.4703 24.9354 22.8097 25.2109 22.9754 25.4826C23.3232 26.053 23.3384 27.1202 23.0058 27.6244C22.8744 27.8238 21.3085 29.1289 19.5261 30.5248L16.2854 33.0626L17.4614 33.9889C18.1081 34.4983 19.5657 35.6441 20.7003 36.5351C21.8349 37.4261 22.8716 38.3194 23.0041 38.5202C23.338 39.0266 23.3241 40.0928 22.9762 40.6634C22.7039 41.1101 21.8167 41.6184 21.3094 41.6184C21.1624 41.6184 20.8017 41.5052 20.5078 41.3668ZM41.9491 33.8419C41.6101 33.67 41.2474 33.3519 41.1024 33.0994C40.7821 32.5413 40.7889 31.5766 41.1167 31.0588C41.2507 30.8471 42.1396 30.0644 43.092 29.3193C44.0444 28.5742 45.5033 27.4282 46.3341 26.7725L47.8445 25.5803L44.6005 23.0383C42.8163 21.6402 41.2502 20.3352 41.1203 20.1382C40.7911 19.639 40.8074 18.5687 41.1528 18.0021C41.4264 17.5533 42.3084 17.0497 42.8303 17.0442C42.9832 17.0426 43.374 17.1782 43.6988 17.3456C44.263 17.6365 51.5708 23.2937 52.4695 24.1353C53.351 24.9608 53.3537 26.1776 52.476 27.0231C51.6228 27.8448 44.1474 33.6383 43.6212 33.8855C42.9263 34.212 42.666 34.2053 41.9491 33.8419Z" fill="white"/>
</svg>
