<svg width="56" height="56" viewBox="0 0 56 56" fill="none" xmlns="http://www.w3.org/2000/svg">
<path d="M24 2.3094C26.4752 0.880338 29.5248 0.880339 32 2.3094L48.2487 11.6906C50.7239 13.1197 52.2487 15.7607 52.2487 18.6188V37.3812C52.2487 40.2393 50.7239 42.8803 48.2487 44.3094L32 53.6906C29.5248 55.1197 26.4752 55.1197 24 53.6906L7.75129 44.3094C5.27608 42.8803 3.75129 40.2393 3.75129 37.3812V18.6188C3.75129 15.7607 5.27608 13.1197 7.75129 11.6906L24 2.3094Z" fill="#FB581C"/>
<path d="M24.5437 39.6932C24.1215 39.3856 23.7956 38.8484 23.7076 38.3151C23.6219 37.7955 28.6251 17.0774 28.9539 16.5907C29.3599 15.9896 29.7512 15.7612 30.3932 15.7505C30.8284 15.7432 31.0929 15.816 31.3265 16.0072C31.8175 16.4093 32.1868 17.0878 32.1868 17.5879C32.1868 18.099 27.2701 38.4907 27.0158 39.0341C26.6212 39.8775 25.2854 40.2336 24.5437 39.6932ZM17.6389 39.6894C17.1744 39.4477 10.5376 33.7616 9.768 32.9459C9.09407 32.2317 8.99426 31.1181 9.53516 30.3481C9.61595 30.2331 11.4571 28.5996 13.6265 26.718C18.0055 22.9201 18.0486 22.8936 19.0528 23.3846C19.3833 23.5462 19.6851 23.8168 19.8323 24.0838C20.1414 24.6442 20.1549 25.6927 19.8594 26.188C19.7425 26.3839 18.3506 27.6661 16.7662 29.0375L13.8856 31.5308L14.9309 32.4408C15.5058 32.9413 16.8014 34.067 17.81 34.9424C18.8185 35.8177 19.74 36.6954 19.8578 36.8927C20.1546 37.3902 20.1423 38.4376 19.833 38.9983C19.5909 39.4371 18.8023 39.9365 18.3514 39.9365C18.2208 39.9365 17.9001 39.8253 17.6389 39.6894ZM36.6978 32.2964C36.3965 32.1276 36.0741 31.8151 35.9452 31.5669C35.6605 31.0187 35.6665 30.0709 35.9579 29.5621C36.077 29.3542 36.8672 28.5852 37.7137 27.8532C38.5603 27.1212 39.8571 25.9952 40.5956 25.351L41.9382 24.1797L39.0546 21.6824C37.4686 20.3088 36.0765 19.0267 35.9611 18.8331C35.6684 18.3427 35.6829 17.2912 35.99 16.7345C36.2332 16.2936 37.0172 15.7988 37.4811 15.7934C37.617 15.7919 37.9644 15.9251 38.2531 16.0896C38.7546 16.3754 45.2505 21.9333 46.0493 22.7601C46.8328 23.5711 46.8352 24.7666 46.055 25.5972C45.2966 26.4045 38.6518 32.0964 38.1841 32.3393C37.5664 32.6601 37.3351 32.6534 36.6978 32.2964Z" fill="white"/>
</svg>
