<svg width="34" height="20" viewBox="0 0 34 20" fill="none" xmlns="http://www.w3.org/2000/svg">
<path d="M13.9411 19.6667C13.5579 19.414 13.262 18.9728 13.1821 18.5347C13.1043 18.1079 17.6465 1.09031 17.945 0.690551C18.3136 0.196835 18.6688 0.00919485 19.2516 0.000401197C19.6467 -0.00554817 19.8869 0.0541967 20.0989 0.211272C20.5447 0.541507 20.88 1.09884 20.88 1.50967C20.88 1.92945 16.4163 18.679 16.1855 19.1253C15.8272 19.8181 14.6145 20.1106 13.9411 19.6667ZM7.67259 16.6447C7.25091 16.4462 1.22569 11.7757 0.527004 11.1057C-0.0848229 10.5191 -0.175432 9.60439 0.315623 8.97192C0.388967 8.87745 2.06042 7.53567 4.02995 5.99018C8.00541 2.87065 8.04458 2.84887 8.95625 3.25215C9.25629 3.38488 9.53022 3.60718 9.6639 3.82644C9.94455 4.28677 9.9568 5.14796 9.68847 5.55483C9.58237 5.71571 8.31873 6.76895 6.88038 7.89536L4.26519 9.94337L5.21418 10.6908C5.73612 11.102 6.91231 12.0266 7.82793 12.7456C8.74355 13.4646 9.58015 14.1855 9.68703 14.3475C9.95649 14.7562 9.9453 15.6166 9.66454 16.0771C9.44477 16.4375 8.72884 16.8477 8.31948 16.8477C8.20088 16.8477 7.90979 16.7564 7.67259 16.6447ZM24.9753 16.6099C24.7017 16.4712 24.409 16.2145 24.292 16.0107C24.0335 15.5603 24.039 14.7818 24.3036 14.3639C24.4117 14.1932 25.129 13.5615 25.8976 12.9603C26.6662 12.359 27.8435 11.4341 28.5139 10.905L29.7328 9.94292L27.1149 7.8916C25.6751 6.76337 24.4113 5.71023 24.3064 5.55129C24.0408 5.14845 24.0539 4.28473 24.3327 3.82748C24.5535 3.46535 25.2652 3.05891 25.6864 3.05446C25.8098 3.05324 26.1252 3.16264 26.3872 3.29775C26.8425 3.53249 32.7398 8.09774 33.465 8.77687C34.1764 9.44302 34.1785 10.425 33.4702 11.1072C32.7817 11.7704 26.7493 16.4455 26.3246 16.6451C25.7638 16.9086 25.5538 16.9031 24.9753 16.6099Z" fill="white"/>
</svg>
