<svg width="170" height="34" viewBox="0 0 170 34" fill="none" xmlns="http://www.w3.org/2000/svg">
<path d="M0 9.06137H3.60199L3.91982 3.63882H8.75779V9.06137H13.9136V13.0569H8.75779V28.1117C8.75779 28.8251 9.14624 29.0035 9.57 29.0035H13.9136V33.3202H7.83963C5.15579 33.3202 3.56668 31.6078 3.56668 28.076V13.0569H0V9.06137ZM27.8978 8.49057C34.5368 8.49057 38.8097 13.5564 38.8097 20.5129V23.4026H21.0116C21.4001 26.863 24.6136 29.2532 28.6041 29.2532C31.6057 29.2532 33.7599 27.6479 35.3137 26.0425L38.3506 29.1105C35.914 32.2499 32.1707 34.0693 28.2156 33.998C21.9298 33.998 15.9265 29.4316 15.9265 21.4048C15.9265 14.1985 21.2235 8.49057 27.8978 8.49057ZM33.7952 19.3357C33.6892 15.9466 31.641 13.271 27.7212 13.271C24.2605 13.2353 21.3648 15.8752 21.0116 19.3357H33.7952ZM42.4117 0H47.5675V28.1117C47.5675 28.7538 47.6028 29.0035 48.3797 29.0035H51.5933V33.3202H46.614C43.3299 33.3202 42.4117 31.1797 42.4117 28.1473V0ZM65.1537 8.49057C71.7927 8.49057 76.0656 13.5564 76.0656 20.5129V23.4026H58.2322C58.6207 26.8274 61.8342 29.2532 65.8247 29.2532C68.8263 29.2532 70.9805 27.6479 72.5696 26.0425L75.6066 29.1105C73.1699 32.2499 69.4267 34.0693 65.4715 33.998C59.1857 33.998 53.1824 29.4316 53.1824 21.4048C53.1824 14.1985 58.4441 8.49057 65.1537 8.49057ZM71.0511 19.3357C70.9452 15.9466 68.897 13.271 64.9771 13.271C61.5164 13.2353 58.6207 15.8752 58.2675 19.3357H71.0511ZM91.8862 8.38355C97.7129 8.38355 100.997 11.9153 102.516 15.9466L98.2073 17.8017C96.8654 14.7336 94.7113 13.1283 91.8508 13.1283C87.8251 13.1283 85 16.339 85 21.1908C85 26.0425 87.931 29.2532 91.8508 29.2532C94.7819 29.2532 96.936 27.7906 98.8076 25.115L102.41 27.5765C100.114 31.4651 97.1126 33.9623 91.5683 33.9623C84.7175 33.9623 79.8442 28.5754 79.8442 21.2978C79.8442 14.0202 84.7175 8.38355 91.8862 8.38355ZM105.058 20.7983H110.037V21.2978C110.037 25.5074 113.463 28.9322 117.63 28.9322H117.665C121.55 28.9322 124.94 25.8998 124.94 21.4405V20.834H130.025C130.025 21.1194 130.06 21.6189 130.06 21.9756C130.06 29.0392 124.092 33.998 117.489 33.998C110.885 33.998 104.988 28.9322 104.988 21.7616C104.988 21.4405 104.988 21.1194 105.058 20.7983ZM117.559 8.38355C123.598 8.38355 128.224 12.3434 129.707 17.9444H124.551C123.421 15.1261 120.843 13.378 117.559 13.378C114.522 13.3067 111.732 15.1261 110.567 17.9444H105.411C106.789 12.3434 111.803 8.41923 117.559 8.38355ZM133.874 9.06137H138.571L138.606 13.6277H138.818C140.266 10.3813 142.773 8.38355 146.446 8.38355C150.118 8.38355 152.59 10.4527 153.614 14.2699H153.897C155.274 10.4884 157.887 8.38355 161.878 8.38355C167.351 8.38355 170 12.6288 170 18.0871V33.3202H164.809V18.7292C164.809 15.4828 163.644 12.9856 160.289 12.9856C156.44 12.9856 154.391 16.339 154.391 19.7638V33.3202H149.236V18.7292C149.236 14.8763 147.717 12.9856 144.751 12.9856C140.796 12.9856 138.959 16.232 138.959 19.7638V33.3202H133.803L133.874 9.06137Z" fill="white"/>
</svg>
