<svg width="62" height="70" viewBox="0 0 62 70" fill="none" xmlns="http://www.w3.org/2000/svg">
<path d="M0 0L5.57425 62.9818L30.5881 70L55.6716 62.9552L61.25 0H0ZM49.6633 14.4298L47.8131 35.4102V35.5236L47.8047 35.784L46.486 50.4546L46.3468 51.758L30.6271 56.1344L30.6146 56.1456L14.9171 51.7426L13.8542 39.62H21.5514L22.0981 45.787L30.6285 48.1138L39.1895 45.7548L40.0937 35.7112H22.1941L22.041 34.013L21.6919 30.0356L21.5082 27.8992H40.7712L41.4668 20.0886H12.1306L11.9776 18.3918L11.6284 14.413L11.4448 12.2766H49.858L49.6633 14.4298Z" fill="#373737"/>
</svg>
