<svg width="79" height="70" viewBox="0 0 79 70" fill="none" xmlns="http://www.w3.org/2000/svg">
<path d="M39.2091 50.958C48.0268 50.958 55.175 43.813 55.175 34.9993C55.175 26.1855 48.0268 19.0406 39.2091 19.0406C30.3913 19.0406 23.2431 26.1855 23.2431 34.9993C23.2431 43.813 30.3913 50.958 39.2091 50.958Z" fill="#373737"/>
<path d="M66.3301 23.2291C64.952 22.7279 63.5109 22.2268 62.0081 21.7886C62.3835 20.2865 62.6972 18.7831 62.9479 17.344C64.263 9.08467 62.8232 3.25695 58.8135 1.00313C57.5921 0.314574 56.2072 -0.031254 54.8052 0.00221857C50.4202 0.00221857 44.8461 3.25835 39.209 8.7039C33.5719 3.25835 27.9978 0.00221857 23.6128 0.00221857C22.2108 -0.0308278 20.8258 0.315487 19.6045 1.00454C15.5962 3.32134 14.1551 9.14346 15.4702 17.3454C15.7209 18.7859 16.0304 20.2851 16.4099 21.79C14.9452 22.1947 13.5025 22.6755 12.0879 23.2305C4.25899 26.2347 0 30.3671 0 34.9993C0 39.6315 4.32201 43.764 12.0879 46.7696C13.466 47.2707 14.9072 47.7719 16.4099 48.21C16.0346 49.7121 15.7209 51.2156 15.4702 52.6547C14.1551 60.914 15.5948 66.7417 19.6045 68.9955C20.8258 69.6846 22.2108 70.0309 23.6128 69.9978C28.0595 69.9978 33.6349 66.7417 39.209 61.2962C44.8461 66.7403 50.4188 69.9964 54.8052 69.9964C56.2073 70.0295 57.5922 69.6832 58.8135 68.9941C62.8218 66.6773 64.263 60.8552 62.9479 52.6533C62.6972 51.2128 62.3877 49.7135 62.0081 48.2086C63.4729 47.804 64.9155 47.3231 66.3301 46.7682C74.1591 43.7626 78.418 39.6287 78.418 34.9979C78.418 30.3671 74.1605 26.2347 66.3301 23.2291ZM57.0601 4.13468C59.6286 5.63675 60.5054 10.2704 59.441 16.8442C59.2262 18.237 58.9335 19.6167 58.5642 20.9767C55.1604 20.2135 51.707 19.6905 48.2298 19.4116C46.217 16.5756 44.0421 13.8581 41.716 11.2727C46.3503 6.70206 51.049 3.57332 54.8697 3.57332C55.6372 3.55834 56.3944 3.75239 57.0601 4.13468ZM50.0449 41.2596C48.9174 43.2628 47.6023 45.2661 46.2242 47.2693C43.9064 47.4569 41.5899 47.5199 39.209 47.5199C36.7665 47.5199 34.4472 47.4569 32.1938 47.2693C30.8157 45.2656 29.5632 43.2624 28.4362 41.2596C27.2458 39.1934 26.1183 37.06 25.117 34.9993C26.1197 32.9331 27.2472 30.7997 28.4362 28.739C29.5636 26.7358 30.8787 24.7326 32.2568 22.7293C34.5747 22.5418 36.8912 22.4788 39.272 22.4788C41.7146 22.4788 44.0338 22.5418 46.2873 22.7293C47.6654 24.733 48.9179 26.7363 50.0449 28.739C51.2353 30.8053 52.3627 32.9387 53.3641 34.9993C52.2997 37.0656 51.2353 39.1318 50.0449 41.2596ZM55.2436 39.199C56.1833 41.3898 56.9354 43.519 57.6245 45.6468C55.4943 46.148 53.2395 46.5232 50.86 46.8367C51.612 45.6468 52.4257 44.3954 53.1148 43.0809C53.8669 41.7664 54.5545 40.4519 55.2436 39.199ZM39.2146 56.16C37.7119 54.5319 36.2735 52.7793 34.8926 50.9636C36.3337 51.0266 37.7735 51.0882 39.2146 51.0882C40.6558 51.0882 42.0955 51.0252 43.5366 50.9636C42.1557 52.7779 40.7132 54.5319 39.2146 56.16ZM27.5651 46.7696C25.1842 46.456 22.9308 46.0808 20.8006 45.5797C21.4896 43.5134 22.2417 41.3226 23.1814 39.1318C23.8705 40.3833 24.5596 41.6992 25.3116 42.9507C26.0637 44.3282 26.813 45.5181 27.5651 46.7696ZM23.1744 30.7997C22.2347 28.6089 21.4826 26.4796 20.7936 24.3518C22.9237 23.8506 25.1786 23.4755 27.5581 23.1619C26.806 24.3518 25.9923 25.6033 25.3032 26.9178C24.5526 28.2379 23.8635 29.5524 23.1744 30.7997ZM39.2146 13.8387C40.7174 15.4667 42.1557 17.2194 43.5366 19.035C42.0955 18.972 40.6558 18.9105 39.2146 18.9105C37.7735 18.9105 36.3337 18.9734 34.8926 19.035C36.2651 17.2208 37.7063 15.4667 39.2146 13.8387ZM53.119 26.9864L50.8642 23.2305C53.2451 23.5441 55.4985 23.9192 57.6287 24.4204C56.9396 26.4866 56.1875 28.6774 55.2478 30.8683C54.5545 29.5524 53.8669 28.2379 53.1148 26.985L53.119 26.9864ZM18.9785 16.8428C17.9141 10.2634 18.7908 5.63675 21.3594 4.13328C22.0256 3.75123 22.7833 3.55766 23.5512 3.57332C27.3088 3.57332 32.0075 6.64047 36.7049 11.2727C34.3637 13.8454 32.1881 16.5638 30.1911 19.4116C26.7174 19.7213 23.2661 20.244 19.8566 20.9767C19.4813 19.5362 19.2306 18.1587 18.9799 16.8442L18.9785 16.8428ZM3.50131 34.9993C3.50131 32.0596 7.07124 28.9266 13.3344 26.6098C14.6448 26.0969 15.983 25.6581 17.3427 25.2953C18.4073 28.6202 19.6619 31.8812 21.1003 35.0623C19.6355 38.2108 18.3802 41.4525 17.3427 44.7663C8.70565 42.2619 3.50131 38.499 3.50131 34.9993ZM21.358 65.864C18.7894 64.3619 17.9127 59.7283 18.9771 53.1544C19.1918 51.7616 19.4845 50.382 19.8538 49.022C23.2577 49.7851 26.711 50.3081 30.1883 50.587C32.201 53.4231 34.3759 56.1406 36.7021 58.726C32.0678 63.2966 27.369 66.4253 23.5484 66.4253C22.7808 66.4403 22.0236 66.2463 21.358 65.864ZM59.441 53.1558C60.5054 59.7353 59.6286 64.3619 57.0601 65.8654C56.3939 66.2474 55.6362 66.441 54.8683 66.4253C51.1107 66.4253 46.4119 63.3582 41.7146 58.726C44.0557 56.1533 46.2313 53.4349 48.2284 50.587C51.702 50.2774 55.1533 49.7547 58.5628 49.022C58.9396 50.4638 59.1903 51.8399 59.441 53.1558ZM65.0781 43.3888C63.7654 43.902 62.4248 44.3408 61.0628 44.7033C59.9982 41.3785 58.7436 38.1175 57.3052 34.9363C58.77 31.7878 60.0252 28.5461 61.0628 25.2323C69.7068 27.7367 74.9055 31.4926 74.9055 34.9993C74.9111 37.9391 71.2782 41.072 65.0781 43.3888Z" fill="#373737"/>
</svg>
