<svg xmlns="http://www.w3.org/2000/svg" width="24.712" height="24.712" viewBox="0 0 24.712 24.712">
  <path id="Icon_awesome-download" data-name="Icon awesome-download" d="M10.425,0h3.861a1.156,1.156,0,0,1,1.158,1.158V9.267h4.233a.964.964,0,0,1,.681,1.646l-7.341,7.346a.935.935,0,0,1-1.318,0L4.349,10.913a.964.964,0,0,1,.681-1.646H9.267V1.158A1.156,1.156,0,0,1,10.425,0ZM24.712,18.148v5.406a1.156,1.156,0,0,1-1.158,1.158H1.158A1.156,1.156,0,0,1,0,23.554V18.148A1.156,1.156,0,0,1,1.158,16.99H8.239L10.6,19.355a2.473,2.473,0,0,0,3.5,0l2.365-2.365h7.081A1.156,1.156,0,0,1,24.712,18.148ZM18.727,22.4a.965.965,0,1,0-.965.965A.968.968,0,0,0,18.727,22.4Zm3.089,0a.965.965,0,1,0-.965.965A.968.968,0,0,0,21.816,22.4Z" fill="#00f89c"/>
</svg>
