<svg xmlns="http://www.w3.org/2000/svg" width="52.945" height="60.3" viewBox="0 0 52.945 60.3">
  <g id="fullstack" transform="translate(-4.698 -7.8)">
    <path id="Trazado_90" data-name="Trazado 90" d="M147.956,7.8c.055.111.129.221.184.313-.332.332-.645.35-.94-.037,0-.092.018-.184.018-.277Z" transform="translate(-116.223)" fill="#f3eff1"/>
    <path id="Trazado_91" data-name="Trazado 91" d="M57.643,26.569a3.8,3.8,0,0,0-2.121-3.633c-6.1-3.522-12.208-7.063-18.33-10.567a56.512,56.512,0,0,0-5.274-2.932c-.313-.037-.645.148-.94-.037a5.151,5.151,0,0,0-2.029.775c-7.34,4.241-14.679,8.52-22.055,12.706a3.848,3.848,0,0,0-2.176,3.707c.037,8.446.074,16.892-.018,25.338a4.316,4.316,0,0,0,2.453,4.2q10.926,6.251,21.816,12.614a4.016,4.016,0,0,0,4.444-.018q11.037-6.417,22.148-12.78a3.815,3.815,0,0,0,2.084-3.651C57.606,43.7,57.587,35.144,57.643,26.569ZM55.061,52.294c-.129,1.014-.922,1.475-1.678,1.918-4.039,2.342-8.1,4.684-12.134,7.026-2.748,1.586-5.532,3.117-8.243,4.795a3.161,3.161,0,0,1-3.633,0c-5.219-3.061-10.474-6.067-15.712-9.091C12.02,56,10.4,55.023,8.737,54.1A2.442,2.442,0,0,1,7.28,51.943a1.6,1.6,0,0,1-.074-.719v-23.9a1.362,1.362,0,0,1,.074-.719c.129-1.014.9-1.475,1.678-1.918,2.821-1.641,5.661-3.282,8.483-4.905,4-2.305,8.022-4.573,11.968-6.952a3.085,3.085,0,0,1,3.485,0c6.786,3.965,13.591,7.874,20.4,11.784,1.033.59,1.807,1.254,1.752,2.526a1.593,1.593,0,0,1,.055.719V51.575A1.074,1.074,0,0,1,55.061,52.294Z" transform="translate(0 -1.305)" fill="#00f89c"/>
    <path id="Trazado_92" data-name="Trazado 92" d="M81.434,81.373c-2.434-1.4-4.85-2.8-7.413-4.3C76.6,75.583,79,74.2,81.416,72.817c.553-.313,1.162-.59,1.143-1.4-.018-.756-.59-1.014-1.106-1.328-2.084-1.2-4.186-2.416-6.27-3.614-1.143-.664-1.143-.664-.055-1.309,2.176-1.254,4.334-2.508,6.51-3.762,1.254-.738,1.309-1.715.074-2.434-5.754-3.356-11.544-6.676-17.3-10.013a1.752,1.752,0,0,0-1.973,0c-5.754,3.356-11.544,6.676-17.3,10.013-1.236.719-1.2,1.7.055,2.434,2.158,1.254,4.334,2.508,6.51,3.762,1.106.645,1.106.645-.037,1.309-.111.055-.221.129-.313.184C49.31,67.838,47.282,69,45.235,70.18c-1.346.775-1.328,1.733.018,2.545l1.438.83c1.992,1.162,4,2.324,5.993,3.467-.111.313-.35.35-.535.461L45.4,81.355q-2.351,1.355,0,2.711,8.464,4.9,16.91,9.774a1.943,1.943,0,0,0,2.213,0q8.437-4.924,16.91-9.774C83,83.181,83,82.277,81.434,81.373Zm-33.4-21.06c-.055-.018-.074-.092-.148-.2,1.918-1.125,3.836-2.25,5.772-3.356L62.79,51.5c.369-.2.645-.369,1.088-.111Q71.292,55.7,78.7,59.982a1.977,1.977,0,0,1,.277.24c-3.467,2.01-6.823,3.946-10.179,5.883-1.586.922-3.172,1.826-4.758,2.748a1.026,1.026,0,0,1-1.18.055C57.94,66.031,52.98,63.172,48.038,60.314Zm.5,11.581c-.516-.3-.738-.5-.055-.885,2.047-1.143,4.075-2.342,6.122-3.522a5.779,5.779,0,0,1,.59-.277c.221.111.443.221.645.332C58.07,68.815,60.3,70.088,62.5,71.4a1.584,1.584,0,0,0,1.789,0c2.231-1.328,4.5-2.6,6.731-3.909a1,1,0,0,1,1.18,0c2.029,1.2,4.057,2.379,6.1,3.541.516.3.627.5.037.848Q71.061,76.053,63.8,80.267a.8.8,0,0,1-.922-.055Q55.746,76.035,48.536,71.895ZM78.023,83.328c-4.075,2.36-8.225,4.592-12.189,7.118a3.933,3.933,0,0,1-4.868-.018c-3.946-2.49-8.059-4.721-12.116-7.063-.94-.535-.922-.7.018-1.254,1.881-1.088,3.762-2.158,5.624-3.264a1.135,1.135,0,0,1,1.4,0c2.121,1.272,4.3,2.471,6.417,3.744a1.883,1.883,0,0,0,2.194.018c2.139-1.291,4.334-2.508,6.491-3.78a1.023,1.023,0,0,1,1.236-.037c1.936,1.162,3.909,2.268,5.864,3.412.221.129.535.184.553.535C78.613,83.088,78.262,83.181,78.023,83.328Z" transform="translate(-32.238 -33.317)" fill="#00f89c"/>
  </g>
</svg>
