<svg xmlns="http://www.w3.org/2000/svg" width="240" height="240" viewBox="0 0 240 240">
  <g id="Grupo_9" data-name="Grupo 9" transform="translate(-1573 -778)">
    <circle id="Elipse_3" data-name="Elipse 3" cx="120" cy="120" r="120" transform="translate(1573 778)" fill="#25262b"/>
    <path id="Trazado_3" data-name="Trazado 3" d="M46.966,105.844a8.527,8.527,0,0,1-4.084-1.07L29.949,97.093c-1.945-1.07-.972-1.459-.389-1.653a23.558,23.558,0,0,0,5.834-2.625.894.894,0,0,1,.972.1l9.918,5.932a1.236,1.236,0,0,0,1.167,0l38.8-22.462a1.117,1.117,0,0,0,.583-1.07V30.484a1.117,1.117,0,0,0-.583-1.07L47.452,7.05a1.236,1.236,0,0,0-1.167,0L7.487,29.415a1.22,1.22,0,0,0-.583,1.07V75.311a1.22,1.22,0,0,0,.583,1.07l10.6,6.126c5.737,2.917,9.335-.486,9.335-3.89V34.374a1.182,1.182,0,0,1,1.167-1.167h4.959a1.182,1.182,0,0,1,1.167,1.167V78.617c0,7.682-4.181,12.155-11.474,12.155-2.236,0-3.987,0-8.946-2.431L4.084,82.507A8.206,8.206,0,0,1,0,75.408V30.581a8.206,8.206,0,0,1,4.084-7.1l38.8-22.462a8.679,8.679,0,0,1,8.168,0l38.8,22.462a8.206,8.206,0,0,1,4.084,7.1V75.408a8.207,8.207,0,0,1-4.084,7.1l-38.8,22.462a9.952,9.952,0,0,1-4.084.875Zm11.96-30.825c-17.017,0-20.517-7.779-20.517-14.391a1.182,1.182,0,0,1,1.167-1.167h5.056a1,1,0,0,1,1.07.972c.778,5.154,3.014,7.682,13.322,7.682,8.168,0,11.669-1.848,11.669-6.223,0-2.528-.972-4.376-13.711-5.64-10.6-1.07-17.211-3.4-17.211-11.863,0-7.876,6.612-12.544,17.7-12.544,12.447,0,18.573,4.278,19.35,13.613a1.568,1.568,0,0,1-.292.875,1.2,1.2,0,0,1-.778.389H70.692a1.139,1.139,0,0,1-1.07-.875c-1.167-5.348-4.181-7.1-12.155-7.1-8.946,0-10.016,3.112-10.016,5.445,0,2.82,1.264,3.7,13.322,5.251,11.96,1.556,17.6,3.792,17.6,12.155-.1,8.557-7.1,13.419-19.448,13.419Z" transform="translate(1646.068 845.57)" fill="#00f89c"/>
  </g>
</svg>
