<svg xmlns="http://www.w3.org/2000/svg" width="126" height="126" viewBox="0 0 126 126">
  <g id="Grupo_8" data-name="Grupo 8" transform="translate(-1600 -435)">
    <circle id="Elipse_1" data-name="Elipse 1" cx="63" cy="63" r="63" transform="translate(1600 435)" fill="#25262b"/>
    <g id="react_5" transform="translate(1628 438.689)">
      <path id="Trazado_2" data-name="Trazado 2" d="M57.356,48.418c-.722-.245-1.471-.49-2.248-.708.123-.518.245-1.035.341-1.526,1.7-8.256.586-14.9-3.2-17.084-3.638-2.1-9.591.1-15.6,5.327-.572.5-1.158,1.035-1.73,1.594-.381-.368-.777-.722-1.158-1.063-6.294-5.6-12.616-7.956-16.4-5.749-3.638,2.071-4.714,8.324-3.188,16.144.15.749.327,1.526.518,2.316-.9.259-1.757.518-2.575.817C4.714,51.048,0,55.08,0,59.276,0,63.6,5.068,67.941,12.752,70.57c.613.2,1.24.409,1.88.586-.2.845-.4,1.676-.545,2.493-1.458,7.684-.313,13.787,3.311,15.872,3.747,2.166,10.027-.054,16.144-5.409.477-.422.967-.872,1.458-1.335q.94.92,1.88,1.717c5.926,5.1,11.785,7.166,15.408,5.068,3.747-2.166,4.959-8.719,3.379-16.689-.123-.613-.259-1.226-.422-1.866.436-.136.872-.259,1.294-.409,8-2.643,13.2-6.934,13.2-11.308C69.753,55.067,64.89,51.007,57.356,48.418ZM55.612,67.75c-.381.123-.777.245-1.172.368a71,71,0,0,0-3.529-8.842A69.968,69.968,0,0,0,54.3,50.571c.708.2,1.4.422,2.071.654,6.458,2.221,10.395,5.5,10.395,8.038C66.77,61.974,62.519,65.475,55.612,67.75Zm-2.861,5.681a25.32,25.32,0,0,1,.341,9.21c-.409,2.234-1.253,3.733-2.289,4.332-2.193,1.267-6.894-.381-11.975-4.741q-.879-.756-1.757-1.594a70.89,70.89,0,0,0,5.845-7.425,69.4,69.4,0,0,0,9.441-1.458C52.519,72.314,52.642,72.886,52.751,73.431ZM23.787,86.755c-2.153.763-3.856.777-4.891.191-2.207-1.267-3.12-6.172-1.866-12.738.136-.749.313-1.526.5-2.316a70.783,70.783,0,0,0,9.4,1.362,72.118,72.118,0,0,0,5.994,7.4c-.45.436-.886.845-1.335,1.226A25.742,25.742,0,0,1,23.787,86.755ZM13.719,67.737a25.046,25.046,0,0,1-8.133-4.319c-1.73-1.485-2.6-2.956-2.6-4.142,0-2.534,3.787-5.776,10.109-7.984.763-.272,1.567-.518,2.4-.749A71.051,71.051,0,0,0,18.9,59.358,72.966,72.966,0,0,0,15.449,68.3C14.85,68.1,14.278,67.927,13.719,67.737ZM17.1,44.781c-1.308-6.7-.436-11.757,1.744-13.024,2.33-1.349,7.493.572,12.929,5.409.354.313.695.627,1.049.967a70.884,70.884,0,0,0-5.94,7.357,72.005,72.005,0,0,0-9.305,1.444C17.384,46.2,17.234,45.489,17.1,44.781Zm30.081,7.425c-.695-1.2-1.4-2.357-2.125-3.488,2.221.286,4.36.654,6.362,1.117a63.421,63.421,0,0,1-2.234,6.008Q48.242,54.045,47.179,52.206ZM34.9,40.258A60.177,60.177,0,0,1,39,45.217c-1.362-.068-2.752-.1-4.142-.1s-2.752.027-4.1.1C32.125,43.432,33.514,41.77,34.9,40.258ZM22.561,52.233c-.695,1.2-1.349,2.4-1.975,3.61-.872-2.057-1.608-4.087-2.221-6.035,1.989-.45,4.114-.8,6.321-1.09q-1.083,1.717-2.125,3.515Zm2.207,17.806A63.532,63.532,0,0,1,18.338,69c.613-1.989,1.376-4.06,2.262-6.158.627,1.213,1.281,2.411,1.975,3.61h0C23.283,67.682,24.019,68.868,24.768,70.039ZM34.986,78.5c-1.417-1.526-2.82-3.215-4.2-5.027q2,.082,4.087.082c1.417,0,2.834-.027,4.21-.1A64.879,64.879,0,0,1,34.986,78.5ZM49.209,62.737c.926,2.125,1.717,4.182,2.343,6.131a61.653,61.653,0,0,1-6.512,1.1c.722-1.144,1.444-2.33,2.139-3.556C47.9,65.2,48.582,63.977,49.209,62.737Zm-4.6,2.207q-1.635,2.841-3.351,5.395c-2.071.15-4.21.218-6.39.218s-4.278-.068-6.321-.2c-1.185-1.73-2.33-3.542-3.406-5.409h0q-1.614-2.8-2.97-5.627,1.349-2.82,2.97-5.627h0q1.614-2.8,3.379-5.381c2.071-.163,4.2-.245,6.349-.245h0c2.166,0,4.291.082,6.362.245,1.158,1.7,2.275,3.5,3.365,5.368q1.635,2.841,3.011,5.6C46.7,61.17,45.694,63.064,44.6,64.944Zm6.158-33.269c2.33,1.349,3.242,6.785,1.771,13.91-.1.45-.2.913-.313,1.39A71.965,71.965,0,0,0,42.887,45.5a70.294,70.294,0,0,0-5.9-7.357c.531-.518,1.076-1.008,1.608-1.471C43.746,32.179,48.569,30.408,50.762,31.675ZM34.877,53.037a6.226,6.226,0,1,1-6.226,6.226A6.224,6.224,0,0,1,34.877,53.037Z" transform="translate(0)" fill="#00d8ff"/>
    </g>
  </g>
</svg>
