<svg id="Grupo_19" data-name="Grupo 19" xmlns="http://www.w3.org/2000/svg" width="96.496" height="95.577" viewBox="0 0 96.496 95.577">
  <path id="Trazado_87" data-name="Trazado 87" d="M48.248,0C74.894,0,96.5,21.4,96.5,47.788s-21.6,47.788-48.248,47.788S0,74.181,0,47.788,21.6,0,48.248,0Z" fill="#25262b"/>
  <path id="Icon_awesome-user-alt" data-name="Icon awesome-user-alt" d="M20.821,23.424A11.712,11.712,0,1,0,9.109,11.712,11.715,11.715,0,0,0,20.821,23.424Zm10.41,2.6H26.75a14.158,14.158,0,0,1-11.858,0H10.41A10.41,10.41,0,0,0,0,36.437v1.3a3.9,3.9,0,0,0,3.9,3.9H37.738a3.9,3.9,0,0,0,3.9-3.9v-1.3A10.41,10.41,0,0,0,31.231,26.026Z" transform="translate(27.57 27.284)" fill="#00f89c"/>
</svg>
