<svg width="125" height="66" viewBox="0 0 125 66" fill="none" xmlns="http://www.w3.org/2000/svg">
<path d="M62.2814 0.666748C48.4141 0.666748 36.552 9.50082 31.8988 21.7382L31.7044 22.1853H32.2098H35.6893H35.8837L35.9809 21.9909C40.3298 11.7746 50.4733 4.61279 62.2814 4.61279C68.4742 4.61279 74.1848 6.59131 78.8625 9.93897C78.6967 10.4521 78.6098 10.9657 78.6098 11.5329C78.6098 14.4529 80.9593 16.8591 83.8777 16.8591C84.4309 16.8591 84.9641 16.7062 85.4716 16.5481C86.6823 18.2352 87.7382 20.0597 88.5624 21.9909L88.6596 22.1853H88.8734H92.3918H92.8972L92.7028 21.7382C91.6728 18.9882 90.2402 16.3622 88.5235 14.0211C88.9309 13.2687 89.2622 12.4458 89.2622 11.5329C89.2622 8.59379 86.8735 6.20676 83.936 6.20676C82.9959 6.20676 82.1549 6.51709 81.3895 6.94542C76.0285 3.03241 69.427 0.666748 62.2814 0.666748ZM120.831 19.9499V20.2414V25.6648H116.846C115.838 25.6648 114.871 25.8783 113.969 26.2674C113.956 26.2722 113.923 26.2626 113.91 26.2674V26.3063C113.036 26.6794 112.247 27.2396 111.578 27.9003H111.519C110.841 28.5645 110.282 29.3531 109.887 30.2523C109.507 31.1468 109.323 32.1441 109.323 33.1876C109.323 34.2081 109.509 35.1489 109.887 36.0645C110.288 36.9723 110.83 37.8224 111.519 38.5138C112.21 39.2011 112.998 39.7095 113.91 40.1077L113.969 40.1466C114.883 40.5265 115.824 40.7103 116.846 40.7103C117.867 40.7103 118.827 40.5264 119.742 40.1466H119.781V40.1077C120.694 39.7092 121.463 39.2036 122.133 38.5138C122.824 37.8213 123.349 36.9756 123.727 36.0645C124.129 35.1473 124.368 34.2103 124.368 33.1876V20.2414V19.9499H124.018H121.18H120.831ZM7.50331 25.6648C6.54364 25.6648 5.59615 25.8914 4.66527 26.2674C3.74737 26.6252 2.91061 27.1668 2.17713 27.9003C1.44171 28.634 0.901953 29.432 0.544282 30.3495C0.187157 31.2614 0 32.2111 0 33.1876C0 34.1457 0.187499 35.1146 0.544282 36.0256C0.901958 36.9415 1.44194 37.7786 2.17713 38.5138C2.90929 39.2443 3.74991 39.7681 4.66527 40.1466C5.59505 40.5006 6.54629 40.7103 7.50331 40.7103C8.46186 40.7103 9.39202 40.5015 10.3025 40.1466C11.2386 39.7685 12.0961 39.2455 12.8295 38.5138L13.782 37.5224L14.0347 37.2697L13.8403 37.017L11.8381 35.0342L11.5854 34.7815L11.3522 35.0342L10.3414 36.0256C9.96527 36.4209 9.54727 36.7237 9.0584 36.9198C8.56035 37.1185 8.03977 37.2114 7.50331 37.2114C6.38617 37.2114 5.46554 36.8259 4.66527 36.0256C4.26899 35.6293 3.96961 35.1755 3.77109 34.6843C3.57321 34.1844 3.47951 33.7001 3.47951 33.1876C3.47951 32.675 3.57344 32.1303 3.77109 31.6325C3.96893 31.143 4.27134 30.7258 4.66527 30.3495C5.06325 29.9515 5.47712 29.691 5.96766 29.4942C6.4653 29.2952 6.99078 29.2027 7.50331 29.2027C8.01584 29.2027 8.50266 29.2953 9.00008 29.4942C9.49189 29.691 9.94308 29.9513 10.3414 30.3495L11.3522 31.3409L11.5854 31.5936L11.8381 31.3409L13.8403 29.3582L14.0347 29.1055L13.782 28.9111L12.8295 27.9003C12.0948 27.1656 11.241 26.6248 10.3025 26.2674C9.3909 25.8905 8.4645 25.6648 7.50331 25.6648ZM22.4905 25.6648C21.5301 25.6648 20.5467 25.8895 19.6136 26.2674C18.6952 26.6254 17.8974 27.1671 17.1643 27.9003C16.431 28.6336 15.8893 29.4315 15.5315 30.3495C15.1766 31.26 14.9872 32.2305 14.9872 33.1876C14.9872 34.1461 15.1775 35.0944 15.5315 36.0256C15.8892 36.9417 16.4304 37.7815 17.1643 38.5138C17.8767 39.2261 18.7012 39.7686 19.6136 40.1466C20.5287 40.526 21.4886 40.7103 22.4905 40.7103C23.4924 40.7103 24.4148 40.526 25.3285 40.1466C26.2444 39.7686 27.0656 39.226 27.7778 38.5138L28.7692 37.5224L29.0219 37.2697L28.7692 37.017L26.7864 35.0342L26.5337 34.7815L26.3393 35.0342L25.3285 36.0256C24.688 36.6646 23.9466 37.0348 23.0931 37.1725C22.4379 37.2669 21.8491 37.0742 21.2464 36.8615L28.7692 29.3582L29.0219 29.1055L28.7692 28.9111L27.7778 27.9003C27.0434 27.1659 26.2287 26.625 25.2897 26.2674C24.3759 25.8886 23.4509 25.6648 22.4905 25.6648ZM37.4388 25.6648C36.4153 25.6648 35.4588 25.8651 34.5424 26.2674C33.6303 26.6479 32.8051 27.2094 32.1126 27.9003C31.4442 28.5703 30.9176 29.3435 30.5186 30.2523C30.1373 31.1472 29.9744 32.1444 29.9744 33.1876V40.3604V40.7103H30.2659H33.1429H33.4539V40.3604V33.1876C33.4539 32.629 33.5492 32.1041 33.7455 31.6325C33.9649 31.1339 34.2468 30.7035 34.6008 30.3495C34.9765 29.9723 35.4114 29.6914 35.8837 29.4942C36.3766 29.2779 36.8843 29.2027 37.4388 29.2027C37.9933 29.2027 38.5417 29.2781 39.0328 29.4942C39.5255 29.6913 39.9253 29.9776 40.2768 30.3495L40.3157 30.3884C40.6874 30.7397 40.972 31.1401 41.171 31.6325C41.3855 32.1023 41.4626 32.6331 41.4626 33.1876V40.3604V40.7103H41.8125H44.6505H45.0004V40.3604V33.1876C45.0004 32.142 44.7625 31.1483 44.3589 30.2523C43.9797 29.3391 43.4583 28.5718 42.765 27.9003C42.0727 27.2096 41.2863 26.6479 40.374 26.2674C39.4759 25.8636 38.4822 25.6648 37.4388 25.6648ZM53.5729 25.6648C52.6117 25.6648 51.6657 25.8914 50.7348 26.2674C49.8153 26.6252 48.9787 27.1666 48.2467 27.9003C47.5151 28.6335 46.9523 29.4313 46.5944 30.3495C46.2392 31.2609 46.0501 32.2107 46.0501 33.1876C46.0501 34.1461 46.2395 35.1152 46.5944 36.0256C46.9523 36.9422 47.5154 37.7791 48.2467 38.5138C48.9774 39.2445 49.8178 39.7681 50.7348 40.1466C51.6646 40.5006 52.6143 40.7103 53.5729 40.7103C54.5299 40.7103 55.4421 40.5015 56.3526 40.1466C57.2887 39.7685 58.1073 39.2455 58.8407 38.5138H58.899L59.8321 37.5224L60.0848 37.2697L59.8321 37.017L57.8882 35.0342L57.655 34.7815L57.4023 35.0342L56.4109 36.0256C56.033 36.4213 55.5989 36.7236 55.1085 36.9198C54.6142 37.1181 54.1093 37.2114 53.5729 37.2114C52.4557 37.2114 51.5332 36.8255 50.7348 36.0256C50.3362 35.6299 50.0377 35.1754 49.8406 34.6843C49.6414 34.1848 49.5296 33.7001 49.5296 33.1876C49.5296 32.675 49.6417 32.1299 49.8406 31.6325C50.037 31.1431 50.2802 30.7252 50.6765 30.3495H50.7348C51.1309 29.9519 51.5258 29.691 52.0178 29.4942C52.5133 29.2954 53.0603 29.2027 53.5729 29.2027C54.0854 29.2027 54.5526 29.2952 55.0502 29.4942C55.542 29.691 56.0108 29.9509 56.4109 30.3495L57.4023 31.3409L57.655 31.5936L57.8882 31.3409L59.8321 29.3582L60.0848 29.1055L59.8321 28.9111L58.899 27.9003C58.1643 27.1656 57.2912 26.6248 56.3526 26.2674C55.441 25.8905 54.5325 25.6648 53.5729 25.6648ZM68.5017 25.6648C67.4779 25.6648 66.5213 25.8653 65.6054 26.2674C64.6913 26.6464 63.925 27.2074 63.2339 27.9003C62.5654 28.5687 61.9807 29.3432 61.5816 30.2523C61.2019 31.1471 61.0373 32.1459 61.0373 33.1876C61.0373 34.2093 61.2036 35.1487 61.5816 36.0645C61.9802 36.971 62.5677 37.8243 63.2339 38.5138C63.9236 39.2035 64.6935 39.7082 65.6054 40.1077V40.1466C66.5203 40.5266 67.4803 40.7103 68.5017 40.7103C69.5445 40.7103 70.5404 40.528 71.437 40.1466V40.1077C72.3489 39.7081 73.1383 39.2033 73.8279 38.5138C74.5209 37.8224 75.1013 36.9751 75.4802 36.0645C75.8803 35.1477 76.0634 34.2118 76.0634 33.1876C76.0634 32.1435 75.8821 31.1482 75.4802 30.2523C75.1009 29.3391 74.5232 28.5705 73.8279 27.9003C73.1369 27.2076 72.3512 26.6464 71.437 26.2674C70.5393 25.8638 69.547 25.6648 68.5017 25.6648ZM81.7394 25.6648C81.099 25.6648 80.4865 25.821 79.9122 26.073C79.3625 26.3035 78.8683 26.5921 78.4543 27.0061C78.0403 27.4201 77.7134 27.9359 77.4629 28.5029C77.2339 29.0556 77.113 29.6548 77.113 30.2912C77.113 30.9276 77.236 31.5256 77.4629 32.099V32.1379C77.7131 32.6804 78.0461 33.1444 78.4543 33.5763C78.8655 33.9859 79.3652 34.3374 79.9122 34.5872C80.4848 34.8162 81.1031 34.937 81.7394 34.937H87.5127C87.869 34.937 88.0917 35.0496 88.3097 35.2675C88.53 35.489 88.6596 35.7333 88.6596 36.0645C88.6596 36.42 88.5261 36.645 88.3097 36.8615C88.0918 37.0806 87.869 37.2114 87.5127 37.2114H78.8625H78.5126V37.5224V40.3604V40.7103H78.8625H87.5127C88.1491 40.7103 88.7671 40.5914 89.3205 40.3604C89.8857 40.11 90.3451 39.7811 90.759 39.3691C91.1926 38.9337 91.5202 38.4252 91.7503 37.8723C92.0024 37.2977 92.1585 36.7049 92.1585 36.0645C92.1585 35.424 92.0045 34.8311 91.7503 34.2761C91.5204 33.6995 91.1992 33.1954 90.759 32.7794C90.359 32.3794 89.8632 32.0732 89.3205 31.8463C89.2988 31.8372 89.2841 31.7975 89.2622 31.788V31.8463C88.7191 31.6052 88.1362 31.4381 87.5127 31.4381H81.7395C81.4094 31.4381 81.1611 31.3664 80.9425 31.1465C80.7157 30.9027 80.6509 30.6205 80.6509 30.2912C80.6509 29.962 80.7214 29.7153 80.9425 29.4942C81.1611 29.2744 81.4094 29.2027 81.7395 29.2027H90.4091H90.759V28.8528V26.0147V25.6648H90.4091H81.7394ZM93.2471 25.6648V26.0147V33.1876C93.2471 34.2097 93.4134 35.1503 93.7914 36.0645C94.1914 36.9719 94.7174 37.8226 95.3853 38.5138C96.075 39.2018 96.924 39.7096 97.8346 40.1077V40.1466C98.7492 40.5264 99.6883 40.7103 100.712 40.7103C101.753 40.7103 102.749 40.5277 103.647 40.1466V40.1077C104.556 39.7096 105.348 39.2016 106.038 38.5138C106.728 37.8214 107.254 36.9776 107.632 36.0645C108.034 35.1487 108.234 34.2118 108.234 33.1876V26.0147V25.6648H107.943H105.046H104.755V26.0147V33.1876C104.755 33.7427 104.622 34.2312 104.405 34.7232C104.207 35.2172 103.924 35.6512 103.55 36.0256C103.196 36.3808 102.805 36.7004 102.305 36.9198C101.811 37.1177 101.268 37.2114 100.712 37.2114C100.17 37.2114 99.6555 37.1057 99.1759 36.9198C99.161 36.9134 99.1324 36.9262 99.1176 36.9198C98.6519 36.7025 98.2444 36.3775 97.8735 36.0256C97.529 35.6557 97.2535 35.2118 97.0376 34.7232C96.8397 34.2285 96.7266 33.7461 96.7266 33.1876V26.0147V25.6648H96.3767H93.5387H93.2471ZM22.2961 29.1832C22.7819 29.2061 23.2476 29.3401 23.6957 29.4942C23.445 29.7399 23.1979 29.9471 22.8404 30.2912C22.3066 30.825 21.7465 31.3867 21.1492 31.9824L19.5164 33.693C19.1902 34.0202 18.9806 34.2096 18.7583 34.4316C18.617 34.0253 18.4667 33.6257 18.4667 33.1876C18.4667 32.0721 18.8138 31.1478 19.6136 30.3495C20.2523 29.7108 20.9626 29.3218 21.7907 29.2027C21.9573 29.1796 22.1342 29.1756 22.2961 29.1832ZM68.5017 29.2027C69.0562 29.2027 69.6053 29.2769 70.0957 29.4942C70.5879 29.6896 70.9882 29.9776 71.3398 30.3495H71.398C71.7687 30.7012 72.0351 31.1392 72.2339 31.6325C72.4469 32.1008 72.5449 32.6331 72.5449 33.1876C72.5449 33.7421 72.4489 34.2299 72.2339 34.7232C72.0345 35.2165 71.7725 35.6885 71.398 36.0645C71.0441 36.4184 70.5957 36.7004 70.0957 36.9198C69.603 37.1175 69.0603 37.2114 68.5017 37.2114C67.9448 37.2114 67.4587 37.1174 66.966 36.9198C66.4647 36.6998 66.0424 36.3836 65.6637 36.0256C65.3186 35.6539 64.9856 35.211 64.7695 34.7232H64.8084C64.6105 34.2285 64.5168 33.7461 64.5168 33.1876C64.5168 32.629 64.6123 32.1022 64.8084 31.6325H64.7695C64.9906 31.132 65.3097 30.7035 65.6637 30.3495C66.0397 29.9734 66.4726 29.6901 66.966 29.4942C67.4565 29.2769 67.9489 29.2027 68.5017 29.2027ZM116.846 29.2027H120.831V33.1876C120.831 33.7409 120.755 34.2308 120.539 34.7232C120.34 35.218 120.018 35.6534 119.645 36.0256C119.291 36.3808 118.901 36.7004 118.401 36.9198C117.932 37.1169 117.403 37.2114 116.846 37.2114C116.302 37.2114 115.789 37.1067 115.31 36.9198C115.295 36.9134 115.266 36.9262 115.252 36.9198C114.767 36.7021 114.338 36.3757 113.969 36.0256C113.625 35.6577 113.329 35.212 113.113 34.7232C112.916 34.2285 112.822 33.7444 112.822 33.1876C112.822 32.629 112.917 32.102 113.113 31.6325C113.334 31.1307 113.614 30.7038 113.969 30.3495C114.345 29.9744 114.758 29.6916 115.252 29.4942H115.31C115.801 29.2782 116.289 29.2027 116.846 29.2027ZM31.4517 44.5786L31.6655 44.9868C36.3091 57.2661 48.1262 66 62.0287 66C75.9019 66 87.8422 57.2245 92.5084 44.9868L92.6445 44.5786H92.1974H88.6207H88.368L88.3097 44.7924C83.9227 54.9479 73.7943 62.1122 62.0287 62.1122C50.2334 62.1122 40.1172 54.9838 35.7476 44.7924L35.6893 44.5786H35.4366H31.9571H31.4517Z" fill="white"/>
<path d="M83.9359 8.69495C82.3841 8.69495 81.0979 9.92438 81.0979 11.4747C81.0979 13.025 82.3841 14.2738 83.9359 14.2738C85.4893 14.2738 86.7157 13.025 86.7157 11.4747C86.7157 9.92438 85.4894 8.69495 83.9359 8.69495Z" fill="white"/>
</svg>
