<svg xmlns="http://www.w3.org/2000/svg" width="229" height="33" viewBox="0 0 229 33" fill="none"><path d="M16.357 32.9015H1.533C1.21024 32.9015 0.948242 32.6395 0.948242 32.3167V21.4683C0.948242 20.9937 1.49123 20.7165 1.87474 20.9974L16.6988 31.8459C17.1544 32.18 16.919 32.9015 16.357 32.9015Z" fill="#F74BB3"></path><path d="M22.9837 32.9015H37.8077C38.1305 32.9015 38.3925 32.6395 38.3925 32.3167V21.4683C38.3925 20.9937 37.8495 20.7165 37.466 20.9974L22.6457 31.8459C22.1901 32.18 22.4255 32.9015 22.9875 32.9015H22.9837Z" fill="#F74BB3"></path><path d="M19.328 5.91442L11.9577 0.45034C11.859 0.374397 11.7337 0.336426 11.6122 0.336426H1.53837C1.21562 0.336426 0.953613 0.598427 0.953613 0.921183V16.0718C0.953613 16.254 1.04095 16.4287 1.18904 16.5388L19.3242 29.9883C19.5292 30.1401 19.8102 30.1401 20.019 29.9883L38.1579 16.5388C38.306 16.4287 38.3934 16.254 38.3934 16.0718V0.921183C38.3934 0.598427 38.1314 0.336426 37.8086 0.336426H27.731C27.6057 0.336426 27.4842 0.374397 27.3855 0.45034L20.019 5.91442C19.814 6.0663 19.533 6.0663 19.3242 5.91442H19.328Z" fill="#F74BB3"></path><path d="M60.5107 16.1436L52.7 4.71425H47.8511V28.5261H54.4733V17.3055L58.3502 22.9063H62.6333L66.514 17.3397V28.5223H73.1362V4.71045H68.2835L60.5031 16.1398L60.5107 16.1436Z" fill="white"></path><path d="M98.0552 7.75638C96.897 6.64382 95.5301 5.77807 93.958 5.16294C92.386 4.5478 90.6621 4.24023 88.7901 4.24023C86.9181 4.24023 85.1943 4.5478 83.6222 5.16294C82.0502 5.77807 80.6833 6.64002 79.5251 7.75638C78.367 8.86894 77.4671 10.1752 76.833 11.6712C76.1988 13.1635 75.8799 14.8039 75.8799 16.5885C75.8799 18.3732 76.2026 19.987 76.8481 21.5058C77.4975 23.0247 78.4012 24.3347 79.5745 25.451C80.7478 26.5636 82.1148 27.4331 83.6868 28.0597C85.2588 28.6824 86.9827 28.9976 88.8547 28.9976C90.7267 28.9976 92.4126 28.69 93.9694 28.0787C95.5301 27.4635 96.8894 26.5978 98.0514 25.47C99.2095 24.3423 100.109 23.0285 100.744 21.5248C101.378 20.0211 101.697 18.3884 101.697 16.6265C101.697 14.8646 101.378 13.1977 100.744 11.694C100.109 10.1903 99.2095 8.88033 98.0514 7.76398L98.0589 7.75638H98.0552ZM94.1441 20.0325C93.6543 21.0122 92.9518 21.7716 92.0367 22.307C91.1216 22.8424 90.0394 23.112 88.7939 23.112C87.856 23.112 87.0131 22.9601 86.2688 22.6601C85.5208 22.3602 84.8791 21.9273 84.3437 21.3577C83.8083 20.7881 83.402 20.1009 83.1248 19.2997C82.8438 18.4947 82.7071 17.5948 82.7071 16.5885C82.7071 15.2747 82.9501 14.1318 83.4438 13.1597C83.9336 12.1914 84.6361 11.4434 85.5512 10.9194C86.4663 10.3954 87.5485 10.1334 88.7939 10.1334C89.7318 10.1334 90.571 10.2853 91.319 10.5852C92.0671 10.8852 92.7088 11.3181 93.2442 11.8877C93.7796 12.4572 94.1859 13.1369 94.4631 13.9305C94.744 14.7241 94.8807 15.6089 94.8807 16.5885C94.8807 17.9023 94.6339 19.0529 94.1479 20.0325H94.1441Z" fill="white"></path><path d="M119.164 17.3213L109.128 4.71484H104.446V28.5267H111.133V16.3417L120.835 28.5267H125.851V4.71484H119.16V17.3213H119.164Z" fill="white"></path><path d="M135.489 19.0946H145.756V13.6761H135.489V10.2663H146.793V4.71484H128.798V28.5267H146.998V22.9753H135.493V19.0984L135.489 19.0946Z" fill="white"></path><path d="M170.21 10.3948V4.71045H149.238V10.3948H156.362V28.5223H163.048V10.3948H170.206H170.21Z" fill="white"></path><path d="M174.992 4.71045L165.929 28.5223H172.752L174.104 24.5087H182.503L183.821 28.5223H190.777L181.812 4.71045H174.989H174.992ZM175.862 19.2914L178.353 11.9022L180.783 19.2914H175.858H175.862Z" fill="white"></path><path d="M193.622 4.71045H186.499V10.3948H193.622V28.5223H200.309V10.3948H207.467V4.71045H193.619H193.622Z" fill="white"></path><path d="M216.671 22.9715V19.0946H226.938V13.6761H216.671V10.2663H227.975V4.71484H209.98V28.5267H228.176V22.9753H216.671V22.9715Z" fill="white"></path></svg>